{"glyphs":{"0":{"ha":692,"x_min":0,"x_max":0,"o":"m 404 0 b 836 558 639 0 836 250 b 404 1113 836 863 639 1113 b -35 558 163 1113 -35 863 b 404 0 -35 250 163 0 z m 368 540 b 404 792 368 679 385 792 b 439 540 421 792 439 679 b 404 290 439 403 421 290 b 368 540 385 290 368 403 z "},"1":{"ha":489,"x_min":0,"x_max":0,"o":"m 185 61 b 590 65 232 -6 561 -18 b 626 790 619 149 593 513 b 403 1093 657 1057 524 1149 b -7 903 283 1040 146 953 b 79 521 -62 888 -11 521 b 258 592 142 521 199 567 b 185 61 232 414 133 126 z "},"2":{"ha":715,"x_min":0,"x_max":0,"o":"m 135 4 b 844 22 351 -1 731 -12 b 788 472 942 53 942 458 l 769 461 b 629 365 733 428 703 400 b 468 325 581 344 515 339 b 796 606 586 371 729 379 b 418 1115 861 835 642 1126 b -19 813 229 1106 22 949 b 221 514 -64 676 42 500 b 449 725 335 524 363 758 b 354 519 525 696 476 626 b 28 317 251 428 44 400 b 135 4 4 217 -37 6 z "},"3":{"ha":664,"x_min":0,"x_max":0,"o":"m 224 0 b 838 331 442 0 838 58 b 599 590 838 531 725 590 b 725 939 704 594 769 808 b 333 1113 685 1061 560 1113 b -35 821 107 1113 -35 1064 b 278 638 -35 681 131 621 b 426 739 324 643 392 690 b 282 617 408 704 368 628 b 149 625 213 607 190 615 b 314 401 67 463 129 401 b 429 439 354 401 397 410 b 294 369 425 425 372 369 b 164 394 254 369 200 381 b 50 178 81 368 50 301 b 224 0 50 58 79 0 z "},"4":{"ha":640,"x_min":0,"x_max":0,"o":"m 496 0 b 750 75 596 0 724 44 l 679 478 l 715 394 b 778 443 756 394 778 404 b 740 640 778 496 760 583 l 675 622 b 671 765 671 671 671 719 b 479 1113 671 951 671 1113 b 350 1061 407 1113 382 1092 b -35 443 306 1021 -35 608 b 171 257 -35 275 104 257 b 394 306 242 257 333 275 b 360 71 383 232 360 156 b 496 0 360 10 394 0 z m 294 596 b 414 794 294 636 369 739 l 397 596 b 344 564 396 578 372 564 b 294 596 321 564 294 574 z "},"5":{"ha":647,"x_min":0,"x_max":0,"o":"m 401 0 b 785 382 621 0 785 168 b 365 751 785 533 643 771 b 763 751 461 767 739 719 b 775 865 771 760 775 811 b 701 1111 775 969 763 1111 b 1 992 617 1111 10 1111 l 51 590 b 439 597 90 368 333 492 l 449 389 b 128 435 360 440 240 454 b -35 188 -36 408 -35 315 b 401 0 -35 32 107 0 z "},"6":{"ha":647,"x_min":0,"x_max":0,"o":"m 406 0 b 785 340 621 0 785 131 b 421 646 785 553 636 646 b 189 490 371 646 261 594 b 421 668 219 542 289 640 b 611 913 485 753 611 869 b 393 1111 611 1028 499 1111 b -35 461 288 1111 -35 774 b 406 0 -35 150 189 0 z m 396 300 b 418 450 396 317 401 368 b 439 304 433 368 439 322 b 418 188 439 233 426 188 b 396 300 410 188 396 233 z "},"7":{"ha":581,"x_min":0,"x_max":0,"o":"m 313 0 b 579 114 399 0 579 22 b 763 869 579 596 763 769 b 644 1111 763 942 753 1111 b -139 914 535 1111 -139 1111 b -42 665 -139 792 -119 665 b 394 794 114 665 279 689 b 147 149 221 525 147 244 b 313 0 147 53 225 0 z "},"8":{"ha":646,"x_min":0,"x_max":0,"o":"m 379 0 b 785 342 603 0 785 151 b 639 601 785 446 728 540 b 726 810 688 654 726 728 b 407 1114 726 981 581 1114 b 90 810 235 1114 90 981 b 156 628 90 742 117 678 b -35 342 39 567 -35 463 b 379 0 -35 151 147 0 z m 347 338 b 381 463 347 406 365 463 b 417 338 400 463 417 406 b 381 213 417 269 400 213 b 347 338 365 213 347 269 z m 385 829 b 421 953 385 897 404 953 b 457 829 438 953 457 897 b 421 701 457 757 438 701 b 385 829 404 701 385 757 z "},"9":{"ha":647,"x_min":0,"x_max":0,"o":"m 358 0 b 785 651 463 0 785 339 b 344 1113 785 963 561 1113 b -35 771 129 1113 -35 981 b 329 465 -35 560 113 465 b 561 621 378 465 490 517 b 329 443 531 571 461 471 b 139 199 265 360 139 228 b 358 0 139 86 251 0 z m 311 807 b 332 925 311 879 325 925 b 354 813 340 925 354 879 b 332 663 354 794 350 743 b 311 807 317 743 311 790 z "}," ":{"ha":278,"x_min":0,"x_max":0,"o":""},"A":{"ha":854,"x_min":0,"x_max":0,"o":"m 289 0 b 415 50 354 6 393 22 b 433 228 456 94 440 183 l 332 233 l 524 257 b 639 0 540 163 515 -4 b 889 158 815 8 893 56 b 719 613 883 233 790 367 b 572 1076 660 828 639 1036 b 354 1113 538 1099 451 1113 b 76 1029 232 1113 76 1093 b 125 794 76 944 64 786 l 274 811 l 156 776 l 90 494 b -33 444 42 485 -25 494 b 19 158 -43 397 -12 175 l 58 158 l 64 246 b 121 43 71 185 64 92 b 289 0 169 4 226 -4 z m 296 521 l 393 561 l 400 667 b 415 843 404 742 406 843 b 460 568 424 843 451 663 l 557 539 b 429 538 526 542 474 538 b 296 521 363 538 346 529 z "},"Á":{"ha":854,"x_min":0,"x_max":0,"o":"m 289 0 b 415 50 354 6 393 22 b 433 228 456 94 440 183 l 332 233 l 524 257 b 639 0 540 163 515 -4 b 889 158 815 8 893 56 b 719 613 883 233 790 367 b 572 1076 660 828 639 1036 b 354 1113 538 1099 451 1113 b 76 1029 232 1113 76 1093 b 125 794 76 944 64 786 l 274 811 l 156 776 l 90 494 b -33 444 42 485 -25 494 b 19 158 -43 397 -12 175 l 58 158 l 64 246 b 121 43 71 185 64 92 b 289 0 169 4 226 -4 z m 296 521 l 393 561 l 400 667 b 415 843 404 742 406 843 b 460 568 424 843 451 663 l 557 539 b 429 538 526 542 474 538 b 296 521 363 538 346 529 z m 326 1244 b 360 1213 326 1226 340 1213 l 390 1213 b 408 1221 397 1213 404 1215 l 519 1360 b 529 1385 526 1368 529 1376 b 492 1419 529 1403 515 1418 l 417 1422 b 393 1407 407 1422 397 1417 b 326 1244 328 1254 326 1249 z "},"Ă":{"ha":854,"x_min":0,"x_max":0,"o":"m 289 0 b 415 50 354 6 393 22 b 433 228 456 94 440 183 l 332 233 l 524 257 b 639 0 540 163 515 -4 b 889 158 815 8 893 56 b 719 613 883 233 790 367 b 572 1076 660 828 639 1036 b 354 1113 538 1099 451 1113 b 76 1029 232 1113 76 1093 b 125 794 76 944 64 786 l 274 811 l 156 776 l 90 494 b -33 444 42 485 -25 494 b 19 158 -43 397 -12 175 l 58 158 l 64 246 b 121 43 71 185 64 92 b 289 0 169 4 226 -4 z m 242 1361 b 428 1213 242 1275 336 1213 b 613 1361 518 1213 613 1275 b 583 1394 613 1379 601 1394 l 539 1394 b 514 1374 526 1394 518 1386 b 428 1311 501 1338 468 1311 b 340 1374 386 1311 353 1338 b 315 1394 336 1386 328 1394 l 271 1394 b 242 1361 253 1394 242 1382 z m 296 521 l 393 561 l 400 667 b 415 843 404 742 406 843 b 460 568 424 843 451 663 l 557 539 b 429 538 526 542 474 538 b 296 521 363 538 346 529 z "},"Â":{"ha":854,"x_min":0,"x_max":0,"o":"m 289 0 b 415 50 354 6 393 22 b 433 228 456 94 440 183 l 332 233 l 524 257 b 639 0 540 163 515 -4 b 889 158 815 8 893 56 b 719 613 883 233 790 367 b 572 1076 660 828 639 1036 b 354 1113 538 1099 451 1113 b 76 1029 232 1113 76 1093 b 125 794 76 944 64 786 l 274 811 l 156 776 l 90 494 b -33 444 42 485 -25 494 b 19 158 -43 397 -12 175 l 58 158 l 64 246 b 121 43 71 185 64 92 b 289 0 169 4 226 -4 z m 235 1285 b 268 1253 235 1268 249 1253 l 368 1253 b 392 1268 378 1253 388 1258 b 425 1346 406 1300 415 1326 l 457 1268 b 481 1253 461 1258 471 1253 l 581 1253 b 614 1285 600 1253 614 1268 b 549 1447 614 1289 613 1294 b 525 1463 544 1457 535 1463 l 425 1463 b 425 1463 425 1463 425 1463 l 324 1463 b 300 1447 314 1463 304 1457 b 235 1285 236 1294 235 1289 z m 296 521 l 393 561 l 400 667 b 415 843 404 742 406 843 b 460 568 424 843 451 663 l 557 539 b 429 538 526 542 474 538 b 296 521 363 538 346 529 z "},"Ä":{"ha":854,"x_min":0,"x_max":0,"o":"m 289 0 b 415 50 354 6 393 22 b 433 228 456 94 440 183 l 332 233 l 524 257 b 639 0 540 163 515 -4 b 889 158 815 8 893 56 b 719 613 883 233 790 367 b 572 1076 660 828 639 1036 b 354 1113 538 1099 451 1113 b 76 1029 232 1113 76 1093 b 125 794 76 944 64 786 l 274 811 l 156 776 l 90 494 b -33 444 42 485 -25 494 b 19 158 -43 397 -12 175 l 58 158 l 64 246 b 121 43 71 185 64 92 b 289 0 169 4 226 -4 z m 236 1294 b 318 1213 236 1249 272 1213 b 400 1294 364 1213 400 1249 b 318 1376 400 1340 364 1376 b 236 1294 272 1376 236 1340 z m 296 521 l 393 561 l 400 667 b 415 843 404 742 406 843 b 460 568 424 843 451 663 l 557 539 b 429 538 526 542 474 538 b 296 521 363 538 346 529 z m 454 1294 b 536 1213 454 1249 490 1213 b 618 1294 582 1213 618 1249 b 536 1376 618 1340 582 1376 b 454 1294 490 1376 454 1340 z "},"À":{"ha":854,"x_min":0,"x_max":0,"o":"m 289 0 b 415 50 354 6 393 22 b 433 228 456 94 440 183 l 332 233 l 524 257 b 639 0 540 163 515 -4 b 889 158 815 8 893 56 b 719 613 883 233 790 367 b 572 1076 660 828 639 1036 b 354 1113 538 1099 451 1113 b 76 1029 232 1113 76 1093 b 125 794 76 944 64 786 l 274 811 l 156 776 l 90 494 b -33 444 42 485 -25 494 b 19 158 -43 397 -12 175 l 58 158 l 64 246 b 121 43 71 185 64 92 b 289 0 169 4 226 -4 z m 296 521 l 393 561 l 400 667 b 415 843 404 742 406 843 b 460 568 424 843 451 663 l 557 539 b 429 538 526 542 474 538 b 296 521 363 538 346 529 z m 326 1385 b 336 1360 326 1376 329 1368 l 447 1221 b 465 1213 451 1215 458 1213 l 496 1213 b 529 1244 515 1213 529 1226 b 463 1407 529 1249 528 1254 b 439 1422 458 1417 449 1422 l 364 1419 b 326 1385 340 1418 326 1403 z "},"Ā":{"ha":854,"x_min":0,"x_max":0,"o":"m 289 0 b 415 50 354 6 393 22 b 433 228 456 94 440 183 l 332 233 l 524 257 b 639 0 540 163 515 -4 b 889 158 815 8 893 56 b 719 613 883 233 790 367 b 572 1076 660 828 639 1036 b 354 1113 538 1099 451 1113 b 76 1029 232 1113 76 1093 b 125 794 76 944 64 786 l 274 811 l 156 776 l 90 494 b -33 444 42 485 -25 494 b 19 158 -43 397 -12 175 l 58 158 l 64 246 b 121 43 71 185 64 92 b 289 0 169 4 226 -4 z m 231 1269 b 288 1213 231 1238 256 1213 l 568 1213 b 625 1269 600 1213 625 1238 l 625 1322 b 568 1379 625 1354 600 1379 l 288 1379 b 231 1322 256 1379 231 1354 z m 296 521 l 393 561 l 400 667 b 415 843 404 742 406 843 b 460 568 424 843 451 663 l 557 539 b 429 538 526 542 474 538 b 296 521 363 538 346 529 z "},"Ą":{"ha":854,"x_min":0,"x_max":0,"o":"m 289 0 b 415 50 354 6 393 22 b 433 228 456 94 440 183 l 332 233 l 524 257 b 639 0 540 163 515 -4 l 646 0 b 542 -149 582 -50 542 -101 b 724 -278 542 -237 626 -278 b 769 -235 753 -278 769 -260 l 769 -206 b 726 -164 769 -182 751 -165 b 667 -126 682 -161 667 -150 b 706 -44 667 -97 683 -71 b 718 -15 714 -35 718 -25 b 706 6 718 -7 714 0 b 889 158 835 22 893 69 b 719 613 883 233 790 367 b 572 1076 660 828 639 1036 b 354 1113 538 1099 451 1113 b 76 1029 232 1113 76 1093 b 125 794 76 944 64 786 l 274 811 l 156 776 l 90 494 b -33 444 42 485 -25 494 b 19 158 -43 397 -12 175 l 58 158 l 64 246 b 121 43 71 185 64 92 b 289 0 169 4 226 -4 z m 296 521 l 393 561 l 400 667 b 415 843 404 742 406 843 b 460 568 424 843 451 663 l 557 539 b 429 538 526 542 474 538 b 296 521 363 538 346 529 z "},"Å":{"ha":854,"x_min":0,"x_max":0,"o":"m 289 0 b 415 50 354 6 393 22 b 433 228 456 94 440 183 l 332 233 l 524 257 b 639 0 540 163 515 -4 b 889 158 815 8 893 56 b 719 613 883 233 790 367 b 572 1076 660 828 639 1036 b 354 1113 538 1099 451 1113 b 76 1029 232 1113 76 1093 b 125 794 76 944 64 786 l 274 811 l 156 776 l 90 494 b -33 444 42 485 -25 494 b 19 158 -43 397 -12 175 l 58 158 l 64 246 b 121 43 71 185 64 92 b 289 0 169 4 226 -4 z m 289 1350 b 428 1211 289 1274 351 1211 b 565 1350 503 1211 565 1274 b 428 1488 565 1425 503 1488 b 289 1350 351 1488 289 1425 z m 296 521 l 393 561 l 400 667 b 415 843 404 742 406 843 b 460 568 424 843 451 663 l 557 539 b 429 538 526 542 474 538 b 296 521 363 538 346 529 z m 390 1350 b 428 1386 390 1369 407 1386 b 464 1350 447 1386 464 1369 b 428 1313 464 1329 447 1313 b 390 1350 407 1313 390 1329 z "},"Ã":{"ha":854,"x_min":0,"x_max":0,"o":"m 289 0 b 415 50 354 6 393 22 b 433 228 456 94 440 183 l 332 233 l 524 257 b 639 0 540 163 515 -4 b 889 158 815 8 893 56 b 719 613 883 233 790 367 b 572 1076 660 828 639 1036 b 354 1113 538 1099 451 1113 b 76 1029 232 1113 76 1093 b 125 794 76 944 64 786 l 274 811 l 156 776 l 90 494 b -33 444 42 485 -25 494 b 19 158 -43 397 -12 175 l 58 158 l 64 246 b 121 43 71 185 64 92 b 289 0 169 4 226 -4 z m 214 1213 l 297 1213 b 357 1300 297 1247 318 1300 b 508 1203 399 1300 431 1203 b 642 1369 568 1203 642 1275 l 558 1369 b 508 1286 558 1326 532 1286 b 357 1383 472 1286 438 1383 b 214 1213 290 1383 214 1313 z m 296 521 l 393 561 l 400 667 b 415 843 404 742 406 843 b 460 568 424 843 451 663 l 557 539 b 429 538 526 542 474 538 b 296 521 363 538 346 529 z "},"Æ":{"ha":1561,"x_min":0,"x_max":0,"o":"m 289 0 b 415 50 354 6 393 22 b 433 228 456 94 440 183 l 332 233 l 524 257 b 639 0 540 163 515 -4 b 779 21 696 3 743 10 b 806 8 788 14 796 10 b 1565 71 889 -7 1511 18 b 1517 438 1618 124 1601 451 l 1196 385 l 1186 438 b 1310 469 1229 438 1286 444 b 1260 706 1349 492 1324 710 l 1106 694 l 1099 738 b 1411 732 1204 747 1361 713 b 1417 1069 1483 760 1513 1029 b 1046 1122 1376 1086 1200 1124 b 622 1051 832 1119 625 1097 b 622 997 621 1036 622 1018 b 572 1076 608 1036 593 1064 b 354 1113 538 1099 451 1113 b 76 1029 232 1113 76 1093 b 125 794 76 944 64 788 l 274 811 l 156 776 l 90 494 b -33 444 42 485 -25 494 b 19 158 -43 397 -12 175 l 58 158 l 64 246 b 121 43 71 185 64 92 b 289 0 169 4 226 -4 z m 296 521 l 393 561 l 400 667 b 415 843 406 742 406 843 b 460 568 424 843 451 663 l 557 539 b 429 538 526 542 474 538 b 296 521 363 538 346 529 z m 679 774 l 846 792 l 785 753 b 825 344 785 542 800 492 l 818 344 b 719 613 788 414 751 501 b 679 774 704 668 692 722 z "},"B":{"ha":881,"x_min":0,"x_max":0,"o":"m 425 0 b 901 214 589 4 846 26 b 663 603 975 463 744 585 l 485 578 l 688 625 b 682 922 764 699 768 828 b 15 1100 561 1061 308 1125 b 85 715 -114 1088 46 690 l 192 785 l 136 711 l 232 361 l 326 350 b 192 324 282 342 240 336 b 115 154 146 311 101 271 b 425 0 128 39 115 -8 z m 331 772 b 489 756 394 785 472 801 b 443 674 507 707 485 685 l 408 772 z m 443 324 l 515 354 l 489 444 b 593 371 589 474 624 418 b 443 324 572 342 507 328 z "},"C":{"ha":756,"x_min":0,"x_max":0,"o":"m 419 1 b 765 551 692 18 854 308 l 451 493 b 411 386 429 489 444 386 b 354 728 342 386 269 728 b 469 586 389 728 432 611 b 731 710 508 560 739 671 b 706 1094 722 749 714 1008 b 457 1113 701 1133 499 1113 b 451 929 396 1113 431 1001 b 183 1117 432 988 364 1129 b -35 525 25 1106 -42 738 b 419 1 -25 247 183 -12 z "},"Ć":{"ha":756,"x_min":0,"x_max":0,"o":"m 419 1 b 765 551 692 18 854 308 l 451 493 b 411 386 429 489 444 386 b 354 728 342 386 269 728 b 469 586 389 728 432 611 b 731 710 508 560 739 671 b 706 1094 722 749 714 1008 b 457 1113 701 1133 499 1113 b 451 929 396 1113 431 1001 b 183 1117 432 988 364 1129 b -35 525 25 1106 -42 738 b 419 1 -25 247 183 -12 z m 276 1244 b 310 1213 276 1226 290 1213 l 340 1213 b 358 1221 347 1213 354 1215 l 469 1360 b 479 1385 476 1368 479 1376 b 442 1419 479 1403 465 1418 l 367 1422 b 343 1407 357 1422 347 1417 b 276 1244 278 1254 276 1249 z "},"Č":{"ha":756,"x_min":0,"x_max":0,"o":"m 419 1 b 765 551 692 18 854 308 l 451 493 b 411 386 429 489 444 386 b 354 728 342 386 269 728 b 469 586 389 728 432 611 b 731 710 508 560 739 671 b 706 1094 722 749 714 1008 b 457 1113 701 1133 499 1113 b 451 929 396 1113 431 1001 b 183 1117 432 988 364 1129 b -35 525 25 1106 -42 738 b 419 1 -25 247 183 -12 z m 192 1431 b 257 1268 192 1426 193 1421 b 281 1253 261 1258 271 1253 l 381 1253 b 381 1253 381 1253 381 1253 l 482 1253 b 506 1268 492 1253 501 1258 b 571 1431 569 1421 571 1426 b 538 1463 571 1447 557 1463 l 438 1463 b 414 1447 428 1463 418 1457 b 382 1369 400 1415 390 1389 l 349 1447 b 325 1463 344 1457 335 1463 l 225 1463 b 192 1431 206 1463 192 1447 z "},"Ç":{"ha":756,"x_min":0,"x_max":0,"o":"m 389 -332 b 553 -222 472 -332 553 -306 b 522 -136 553 -183 539 -154 b 417 -83 492 -104 456 -89 b 444 -19 443 -32 444 -25 b 438 3 444 -11 442 -4 b 765 551 699 32 853 314 l 451 493 b 411 386 429 489 444 386 b 354 728 342 386 269 728 b 469 586 389 728 432 611 b 731 710 508 560 739 671 b 706 1094 722 749 714 1008 b 457 1113 701 1133 499 1113 b 451 929 396 1113 431 1001 b 183 1117 432 988 364 1129 b -35 525 25 1106 -42 738 b 322 11 -26 286 129 61 b 315 -1 319 7 317 3 b 269 -117 285 -92 269 -111 b 310 -161 269 -140 285 -158 l 347 -165 b 400 -197 379 -169 400 -185 b 358 -217 400 -212 389 -217 b 275 -193 338 -217 306 -207 b 251 -187 267 -189 258 -187 b 203 -244 218 -187 203 -228 b 215 -271 203 -254 207 -264 b 389 -332 256 -307 297 -332 z "},"Ċ":{"ha":756,"x_min":0,"x_max":0,"o":"m 419 1 b 765 551 692 18 854 308 l 451 493 b 411 386 429 489 444 386 b 354 728 342 386 269 728 b 469 586 389 728 432 611 b 731 710 508 560 739 671 b 706 1094 722 749 714 1008 b 457 1113 701 1133 499 1113 b 451 929 396 1113 431 1001 b 183 1117 432 988 364 1129 b -35 525 25 1106 -42 738 b 419 1 -25 247 183 -12 z m 296 1294 b 378 1213 296 1249 332 1213 b 460 1294 424 1213 460 1249 b 378 1376 460 1340 424 1376 b 296 1294 332 1376 296 1340 z "},"D":{"ha":871,"x_min":0,"x_max":0,"o":"m 428 -3 b 858 250 594 3 776 71 b 668 942 958 465 901 740 b 15 1106 533 1051 310 1132 b 86 718 -115 1093 47 693 l 196 789 l 151 728 l 243 326 l 196 322 b 115 154 147 308 104 271 b 428 -3 129 36 115 -11 z m 386 761 b 615 507 501 761 615 651 b 449 329 615 428 565 329 b 533 375 483 335 506 351 l 472 714 b 386 761 464 732 428 746 z "},"Ð":{"ha":833,"x_min":0,"x_max":0,"o":"m 428 -3 b 858 250 594 3 776 71 b 668 942 958 465 901 740 b 15 1106 533 1051 310 1132 b 86 718 -115 1093 47 693 l 196 789 l 151 728 l 179 607 l 110 607 b 39 549 69 607 39 582 b 110 489 39 514 69 489 l 206 489 l 243 326 l 196 322 b 115 154 147 308 104 271 b 428 -3 129 36 115 -11 z m 386 761 b 615 507 501 761 615 651 b 449 329 615 428 565 329 b 533 375 483 335 506 351 l 513 489 l 522 489 b 593 549 563 489 593 514 b 522 607 593 582 563 607 l 492 607 l 472 714 b 386 761 464 732 428 746 z "},"Ď":{"ha":871,"x_min":0,"x_max":0,"o":"m 428 -3 b 858 250 594 3 776 71 b 668 942 958 465 901 740 b 15 1106 533 1051 310 1132 b 86 718 -115 1093 47 693 l 196 789 l 151 728 l 243 326 l 196 322 b 115 154 147 308 104 271 b 428 -3 129 36 115 -11 z m 250 1431 b 315 1268 250 1426 251 1421 b 339 1253 319 1258 329 1253 l 439 1253 b 440 1253 439 1253 439 1253 l 540 1253 b 564 1268 550 1253 560 1258 b 629 1431 628 1421 629 1426 b 596 1463 629 1447 615 1463 l 496 1463 b 472 1447 486 1463 476 1457 b 440 1369 458 1415 449 1389 l 407 1447 b 383 1463 403 1457 393 1463 l 283 1463 b 250 1431 264 1463 250 1447 z m 386 761 b 615 507 501 761 615 651 b 449 329 615 428 565 329 b 533 375 483 335 506 351 l 472 714 b 386 761 464 732 428 746 z "},"Đ":{"ha":833,"x_min":0,"x_max":0,"o":"m 428 -3 b 858 250 594 3 776 71 b 668 942 958 465 901 740 b 15 1106 533 1051 310 1132 b 86 718 -115 1093 47 693 l 196 789 l 151 728 l 179 607 l 110 607 b 39 549 69 607 39 582 b 110 489 39 514 69 489 l 206 489 l 243 326 l 196 322 b 115 154 147 308 104 271 b 428 -3 129 36 115 -11 z m 386 761 b 615 507 501 761 615 651 b 449 329 615 428 565 329 b 533 375 483 335 506 351 l 513 489 l 522 489 b 593 549 563 489 593 514 b 522 607 593 582 563 607 l 492 607 l 472 714 b 386 761 464 732 428 746 z "},"E":{"ha":904,"x_min":0,"x_max":0,"o":"m 149 8 b 908 71 232 -7 854 18 b 860 438 961 124 944 451 l 539 385 l 529 438 b 653 469 572 438 629 444 b 603 706 692 492 667 710 l 449 694 l 442 738 b 754 732 547 747 704 713 b 760 1069 826 760 856 1029 b 389 1122 719 1086 543 1124 b -35 1051 175 1119 -32 1097 b 19 774 -39 974 -17 796 l 189 792 l 128 753 b 168 344 128 542 143 492 b 74 286 136 344 74 342 b 149 8 74 228 67 21 z "},"É":{"ha":904,"x_min":0,"x_max":0,"o":"m 149 8 b 908 71 232 -7 854 18 b 860 438 961 124 944 451 l 539 385 l 529 438 b 653 469 572 438 629 444 b 603 706 692 492 667 710 l 449 694 l 442 738 b 754 732 547 747 704 713 b 760 1069 826 760 856 1029 b 389 1122 719 1086 543 1124 b -35 1051 175 1119 -32 1097 b 19 774 -39 974 -17 796 l 189 792 l 128 753 b 168 344 128 542 143 492 b 74 286 136 344 74 342 b 149 8 74 228 67 21 z m 351 1244 b 385 1213 351 1226 365 1213 l 415 1213 b 433 1221 422 1213 429 1215 l 544 1360 b 554 1385 551 1368 554 1376 b 517 1419 554 1403 540 1418 l 442 1422 b 418 1407 432 1422 422 1417 b 351 1244 353 1254 351 1249 z "},"Ě":{"ha":904,"x_min":0,"x_max":0,"o":"m 149 8 b 908 71 232 -7 854 18 b 860 438 961 124 944 451 l 539 385 l 529 438 b 653 469 572 438 629 444 b 603 706 692 492 667 710 l 449 694 l 442 738 b 754 732 547 747 704 713 b 760 1069 826 760 856 1029 b 389 1122 719 1086 543 1124 b -35 1051 175 1119 -32 1097 b 19 774 -39 974 -17 796 l 189 792 l 128 753 b 168 344 128 542 143 492 b 74 286 136 344 74 342 b 149 8 74 228 67 21 z m 267 1431 b 332 1268 267 1426 268 1421 b 356 1253 336 1258 346 1253 l 456 1253 b 457 1253 456 1253 456 1253 l 557 1253 b 581 1268 567 1253 576 1258 b 646 1431 644 1421 646 1426 b 613 1463 646 1447 632 1463 l 513 1463 b 489 1447 503 1463 493 1457 b 457 1369 475 1415 465 1389 l 424 1447 b 400 1463 419 1457 410 1463 l 300 1463 b 267 1431 281 1463 267 1447 z "},"Ê":{"ha":904,"x_min":0,"x_max":0,"o":"m 149 8 b 908 71 232 -7 854 18 b 860 438 961 124 944 451 l 539 385 l 529 438 b 653 469 572 438 629 444 b 603 706 692 492 667 710 l 449 694 l 442 738 b 754 732 547 747 704 713 b 760 1069 826 760 856 1029 b 389 1122 719 1086 543 1124 b -35 1051 175 1119 -32 1097 b 19 774 -39 974 -17 796 l 189 792 l 128 753 b 168 344 128 542 143 492 b 74 286 136 344 74 342 b 149 8 74 228 67 21 z m 260 1285 b 293 1253 260 1268 274 1253 l 393 1253 b 417 1268 403 1253 413 1258 b 450 1346 431 1300 440 1326 l 482 1268 b 506 1253 486 1258 496 1253 l 606 1253 b 639 1285 625 1253 639 1268 b 574 1447 639 1289 638 1294 b 550 1463 569 1457 560 1463 l 450 1463 b 450 1463 450 1463 450 1463 l 349 1463 b 325 1447 339 1463 329 1457 b 260 1285 261 1294 260 1289 z "},"Ë":{"ha":904,"x_min":0,"x_max":0,"o":"m 149 8 b 908 71 232 -7 854 18 b 860 438 961 124 944 451 l 539 385 l 529 438 b 653 469 572 438 629 444 b 603 706 692 492 667 710 l 449 694 l 442 738 b 754 732 547 747 704 713 b 760 1069 826 760 856 1029 b 389 1122 719 1086 543 1124 b -35 1051 175 1119 -32 1097 b 19 774 -39 974 -17 796 l 189 792 l 128 753 b 168 344 128 542 143 492 b 74 286 136 344 74 342 b 149 8 74 228 67 21 z m 261 1294 b 343 1213 261 1249 297 1213 b 425 1294 389 1213 425 1249 b 343 1376 425 1340 389 1376 b 261 1294 297 1376 261 1340 z m 479 1294 b 561 1213 479 1249 515 1213 b 643 1294 607 1213 643 1249 b 561 1376 643 1340 607 1376 b 479 1294 515 1376 479 1340 z "},"Ė":{"ha":904,"x_min":0,"x_max":0,"o":"m 149 8 b 908 71 232 -7 854 18 b 860 438 961 124 944 451 l 539 385 l 529 438 b 653 469 572 438 629 444 b 603 706 692 492 667 710 l 449 694 l 442 738 b 754 732 547 747 704 713 b 760 1069 826 760 856 1029 b 389 1122 719 1086 543 1124 b -35 1051 175 1119 -32 1097 b 19 774 -39 974 -17 796 l 189 792 l 128 753 b 168 344 128 542 143 492 b 74 286 136 344 74 342 b 149 8 74 228 67 21 z m 371 1294 b 453 1213 371 1249 407 1213 b 535 1294 499 1213 535 1249 b 453 1376 535 1340 499 1376 b 371 1294 407 1376 371 1340 z "},"È":{"ha":904,"x_min":0,"x_max":0,"o":"m 149 8 b 908 71 232 -7 854 18 b 860 438 961 124 944 451 l 539 385 l 529 438 b 653 469 572 438 629 444 b 603 706 692 492 667 710 l 449 694 l 442 738 b 754 732 547 747 704 713 b 760 1069 826 760 856 1029 b 389 1122 719 1086 543 1124 b -35 1051 175 1119 -32 1097 b 19 774 -39 974 -17 796 l 189 792 l 128 753 b 168 344 128 542 143 492 b 74 286 136 344 74 342 b 149 8 74 228 67 21 z m 351 1385 b 361 1360 351 1376 354 1368 l 472 1221 b 490 1213 476 1215 483 1213 l 521 1213 b 554 1244 540 1213 554 1226 b 488 1407 554 1249 553 1254 b 464 1422 483 1417 474 1422 l 389 1419 b 351 1385 365 1418 351 1403 z "},"Ē":{"ha":904,"x_min":0,"x_max":0,"o":"m 149 8 b 908 71 232 -7 854 18 b 860 438 961 124 944 451 l 539 385 l 529 438 b 653 469 572 438 629 444 b 603 706 692 492 667 710 l 449 694 l 442 738 b 754 732 547 747 704 713 b 760 1069 826 760 856 1029 b 389 1122 719 1086 543 1124 b -35 1051 175 1119 -32 1097 b 19 774 -39 974 -17 796 l 189 792 l 128 753 b 168 344 128 542 143 492 b 74 286 136 344 74 342 b 149 8 74 228 67 21 z m 256 1269 b 313 1213 256 1238 281 1213 l 593 1213 b 650 1269 625 1213 650 1238 l 650 1322 b 593 1379 650 1354 625 1379 l 313 1379 b 256 1322 281 1379 256 1354 z "},"Ę":{"ha":904,"x_min":0,"x_max":0,"o":"m 149 8 b 908 71 232 -7 854 18 b 860 438 961 124 944 451 l 539 385 l 529 438 b 653 469 572 438 629 444 b 603 706 692 492 667 710 l 449 694 l 442 738 b 754 732 547 747 704 713 b 760 1069 826 760 856 1029 b 389 1122 719 1086 543 1124 b -35 1051 175 1119 -32 1097 b 19 774 -39 974 -17 796 l 189 792 l 128 753 b 168 344 128 542 143 492 b 74 286 136 344 74 342 b 149 8 74 228 67 21 z m 586 -149 b 768 -278 586 -237 671 -278 b 814 -235 797 -278 814 -260 l 814 -206 b 771 -164 814 -182 796 -165 b 711 -126 726 -161 711 -150 b 750 -44 711 -97 728 -71 b 763 -15 758 -35 763 -25 b 719 14 763 1 746 14 b 699 7 713 14 706 11 b 586 -149 631 -46 586 -100 z "},"Ẽ":{"ha":904,"x_min":0,"x_max":0,"o":"m 149 8 b 908 71 232 -7 854 18 b 860 438 961 124 944 451 l 539 385 l 529 438 b 653 469 572 438 629 444 b 603 706 692 492 667 710 l 449 694 l 442 738 b 754 732 547 747 704 713 b 760 1069 826 760 856 1029 b 389 1122 719 1086 543 1124 b -35 1051 175 1119 -32 1097 b 19 774 -39 974 -17 796 l 189 792 l 128 753 b 168 344 128 542 143 492 b 74 286 136 344 74 342 b 149 8 74 228 67 21 z m 239 1213 l 322 1213 b 382 1300 322 1247 343 1300 b 533 1203 424 1300 456 1203 b 667 1369 593 1203 667 1275 l 583 1369 b 533 1286 583 1326 557 1286 b 382 1383 497 1286 463 1383 b 239 1213 315 1383 239 1313 z "},"Ə":{"ha":904,"x_min":0,"x_max":0,"o":"m 753 1103 b -7 1040 669 1118 47 1093 b 42 674 -60 988 -43 660 l 363 726 l 372 674 b 249 642 329 674 272 667 b 299 406 210 619 235 401 l 453 417 l 460 374 b 147 379 354 364 197 399 b 142 42 75 351 46 82 b 513 -11 182 25 358 -12 b 936 60 726 -8 933 14 b 882 338 940 138 918 315 l 713 319 l 774 358 b 733 767 774 569 758 619 b 828 825 765 767 828 769 b 753 1103 828 883 835 1090 z "},"F":{"ha":754,"x_min":0,"x_max":0,"o":"m 129 0 b 444 108 332 -17 451 43 l 364 533 l 419 397 b 619 393 481 389 597 375 b 615 649 633 403 707 608 b 688 660 639 649 663 651 b 651 1089 806 699 851 1089 b 111 1111 451 1089 164 1125 b -17 889 51 1099 1 1010 b 83 635 -33 772 -75 653 b 129 0 57 435 -75 19 z m 371 640 l 376 715 b 569 654 442 704 503 668 z "},"G":{"ha":771,"x_min":0,"x_max":0,"o":"m 500 17 b 756 569 911 124 806 549 b 253 439 708 592 257 461 b 333 207 247 413 311 228 b 536 268 354 185 467 247 l 364 160 b 221 450 285 110 219 417 b 358 524 226 483 311 497 b 364 697 347 540 329 686 b 493 567 397 713 467 569 b 744 650 515 563 740 633 b 719 1094 750 669 736 1067 b 428 1088 701 1117 435 1096 b 457 926 419 1079 450 982 b 154 1110 428 1019 347 1149 b -35 585 31 1083 -28 826 b 500 17 -43 338 89 -90 z "},"Ğ":{"ha":771,"x_min":0,"x_max":0,"o":"m 500 17 b 756 569 911 124 806 549 b 253 439 708 592 257 461 b 333 207 247 413 311 228 b 536 268 354 185 467 247 l 364 160 b 221 450 285 110 219 417 b 358 524 226 483 311 497 b 364 697 347 540 329 686 b 493 567 397 713 467 569 b 744 650 515 563 740 633 b 719 1094 750 669 736 1067 b 428 1088 701 1117 435 1096 b 457 926 419 1079 450 982 b 154 1110 428 1019 347 1149 b -35 585 31 1083 -28 826 b 500 17 -43 338 89 -90 z m 200 1361 b 386 1213 200 1275 294 1213 b 571 1361 476 1213 571 1275 b 542 1394 571 1379 560 1394 l 497 1394 b 472 1374 485 1394 476 1386 b 386 1311 460 1338 426 1311 b 299 1374 344 1311 311 1338 b 274 1394 294 1386 286 1394 l 229 1394 b 200 1361 211 1394 200 1382 z "},"Ģ":{"ha":771,"x_min":0,"x_max":0,"o":"m 500 17 b 756 569 911 124 806 549 b 253 439 708 592 257 461 b 333 207 247 413 311 228 b 536 268 354 185 467 247 l 364 160 b 221 450 285 110 219 417 b 358 524 226 483 311 497 b 364 697 347 540 329 686 b 493 567 397 713 467 569 b 744 650 515 563 740 633 b 719 1094 750 669 736 1067 b 428 1088 701 1117 435 1096 b 457 926 419 1079 450 982 b 154 1110 428 1019 347 1149 b -35 585 31 1083 -28 826 b 500 17 -43 338 89 -90 z m 293 -296 b 336 -333 293 -317 314 -333 l 383 -333 b 424 -299 404 -333 417 -318 b 479 -117 457 -210 479 -146 b 435 -74 479 -93 461 -74 l 364 -74 b 321 -117 340 -74 325 -93 b 293 -296 293 -292 293 -294 z "},"Ġ":{"ha":771,"x_min":0,"x_max":0,"o":"m 500 17 b 756 569 911 124 806 549 b 253 439 708 592 257 461 b 333 207 247 413 311 228 b 536 268 354 185 467 247 l 364 160 b 221 450 285 110 219 417 b 358 524 226 483 311 497 b 364 697 347 540 329 686 b 493 567 397 713 467 569 b 744 650 515 563 740 633 b 719 1094 750 669 736 1067 b 428 1088 701 1117 435 1096 b 457 926 419 1079 450 982 b 154 1110 428 1019 347 1149 b -35 585 31 1083 -28 826 b 500 17 -43 338 89 -90 z m 304 1294 b 386 1213 304 1249 340 1213 b 468 1294 432 1213 468 1249 b 386 1376 468 1340 432 1376 b 304 1294 340 1376 304 1340 z "},"H":{"ha":1065,"x_min":0,"x_max":0,"o":"m 718 21 b 1090 81 788 -24 1051 21 b 1008 561 1125 136 1064 319 b 835 1093 965 746 874 1083 b 610 1050 775 1110 619 1093 b 628 760 593 950 619 864 l 476 729 b 386 1083 450 846 436 1050 b -35 1050 325 1128 -31 1101 b 51 746 -39 997 22 756 l 272 786 l 153 733 b 142 344 144 608 146 467 b 161 33 138 218 125 64 b 558 50 194 3 528 -28 b 550 431 588 132 554 361 l 632 447 b 718 21 661 301 671 50 z "},"I":{"ha":435,"x_min":0,"x_max":0,"o":"m 164 3 b 467 156 383 -1 488 25 b 313 1100 444 288 347 1088 b 125 1088 276 1114 151 1118 b -32 222 68 1004 -28 375 b 164 3 -36 68 -54 7 z "},"Ĳ":{"ha":1129,"x_min":0,"x_max":0,"o":"m 164 3 b 468 149 379 -1 485 24 b 758 0 519 61 610 -4 b 1126 725 1201 15 1201 407 b 983 1111 1057 1007 1040 1106 b 517 1067 924 1115 557 1124 b 629 744 460 914 567 739 b 896 815 718 749 826 792 l 826 753 b 803 306 867 574 883 314 b 674 582 694 292 704 560 b 424 608 642 604 450 631 b 410 563 419 606 414 589 b 313 1100 375 817 333 1093 b 125 1088 276 1114 151 1118 b -32 222 68 1004 -28 375 b 164 3 -36 68 -54 7 z "},"Í":{"ha":435,"x_min":0,"x_max":0,"o":"m 164 3 b 467 156 383 -1 488 25 b 313 1100 444 288 347 1088 b 125 1088 276 1114 151 1118 b -32 222 68 1004 -28 375 b 164 3 -36 68 -54 7 z m 117 1244 b 150 1213 117 1226 131 1213 l 181 1213 b 199 1221 188 1213 194 1215 l 310 1360 b 319 1385 317 1368 319 1376 b 282 1419 319 1403 306 1418 l 207 1422 b 183 1407 197 1422 188 1417 b 117 1244 118 1254 117 1249 z "},"Î":{"ha":435,"x_min":0,"x_max":0,"o":"m 164 3 b 467 156 383 -1 488 25 b 313 1100 444 288 347 1088 b 125 1088 276 1114 151 1118 b -32 222 68 1004 -28 375 b 164 3 -36 68 -54 7 z m 25 1285 b 58 1253 25 1268 39 1253 l 158 1253 b 182 1268 168 1253 178 1258 b 214 1346 196 1300 206 1326 l 247 1268 b 271 1253 251 1258 261 1253 l 371 1253 b 404 1285 390 1253 404 1268 b 339 1447 404 1289 403 1294 b 315 1463 335 1457 325 1463 l 215 1463 b 214 1463 215 1463 215 1463 l 114 1463 b 90 1447 104 1463 94 1457 b 25 1285 26 1294 25 1289 z "},"Ï":{"ha":435,"x_min":0,"x_max":0,"o":"m 164 3 b 467 156 383 -1 488 25 b 313 1100 444 288 347 1088 b 125 1088 276 1114 151 1118 b -32 222 68 1004 -28 375 b 164 3 -36 68 -54 7 z m 26 1294 b 108 1213 26 1249 63 1213 b 190 1294 154 1213 190 1249 b 108 1376 190 1340 154 1376 b 26 1294 63 1376 26 1340 z m 244 1294 b 326 1213 244 1249 281 1213 b 408 1294 372 1213 408 1249 b 326 1376 408 1340 372 1376 b 244 1294 281 1376 244 1340 z "},"İ":{"ha":435,"x_min":0,"x_max":0,"o":"m 164 3 b 467 156 383 -1 488 25 b 313 1100 444 288 347 1088 b 125 1088 276 1114 151 1118 b -32 222 68 1004 -28 375 b 164 3 -36 68 -54 7 z m 136 1294 b 218 1213 136 1249 172 1213 b 300 1294 264 1213 300 1249 b 218 1376 300 1340 264 1376 b 136 1294 172 1376 136 1340 z "},"Ì":{"ha":435,"x_min":0,"x_max":0,"o":"m 164 3 b 467 156 383 -1 488 25 b 313 1100 444 288 347 1088 b 125 1088 276 1114 151 1118 b -32 222 68 1004 -28 375 b 164 3 -36 68 -54 7 z m 117 1385 b 126 1360 117 1376 119 1368 l 238 1221 b 256 1213 242 1215 249 1213 l 286 1213 b 319 1244 306 1213 319 1226 b 253 1407 319 1249 318 1254 b 229 1422 249 1417 239 1422 l 154 1419 b 117 1385 131 1418 117 1403 z "},"Ī":{"ha":435,"x_min":0,"x_max":0,"o":"m 164 3 b 467 156 383 -1 488 25 b 313 1100 444 288 347 1088 b 125 1088 276 1114 151 1118 b -32 222 68 1004 -28 375 b 164 3 -36 68 -54 7 z m 21 1269 b 78 1213 21 1238 46 1213 l 358 1213 b 415 1269 390 1213 415 1238 l 415 1322 b 358 1379 415 1354 390 1379 l 78 1379 b 21 1322 46 1379 21 1354 z "},"Į":{"ha":435,"x_min":0,"x_max":0,"o":"m 164 3 b 272 4 204 1 240 3 b 164 -149 207 -47 164 -101 b 346 -278 164 -237 249 -278 b 392 -235 375 -278 392 -260 l 392 -206 b 349 -164 392 -182 374 -165 b 289 -126 304 -161 289 -150 b 328 -44 289 -97 306 -71 b 340 -15 336 -35 340 -25 b 324 8 340 -6 335 3 b 467 156 433 22 482 63 b 313 1100 444 288 347 1088 b 125 1088 276 1114 151 1118 b -32 222 68 1004 -28 375 b 164 3 -36 68 -54 7 z "},"Ĩ":{"ha":435,"x_min":0,"x_max":0,"o":"m 164 3 b 467 156 383 -1 488 25 b 313 1100 444 288 347 1088 b 125 1088 276 1114 151 1118 b -32 222 68 1004 -28 375 b 164 3 -36 68 -54 7 z m 4 1213 l 88 1213 b 147 1300 88 1247 108 1300 b 299 1203 189 1300 221 1203 b 432 1369 358 1203 432 1275 l 349 1369 b 299 1286 349 1326 322 1286 b 147 1383 263 1286 228 1383 b 4 1213 81 1383 4 1313 z "},"J":{"ha":694,"x_min":0,"x_max":0,"o":"m 324 0 b 692 725 767 15 767 407 b 549 1111 622 1007 606 1106 b 82 1067 489 1115 122 1124 b 194 744 25 914 132 739 b 461 815 283 749 392 792 l 392 753 b 368 306 432 574 449 314 b 239 582 260 292 269 560 b -11 608 207 604 15 631 b 324 0 -37 586 -119 -12 z "},"K":{"ha":974,"x_min":0,"x_max":0,"o":"m 569 -40 b 1008 85 626 -62 1008 42 b 875 313 1008 128 965 211 b 631 528 785 411 725 467 b 875 892 713 608 807 703 b 665 1097 936 1053 768 1085 b 507 925 563 1110 549 1058 b 394 690 463 792 447 763 b 425 982 374 656 413 904 b 154 1110 439 1058 322 1085 b -35 914 -14 1135 -35 1025 b 64 732 -35 801 21 725 b 210 775 107 740 163 763 l 99 703 l 56 540 b 42 56 24 419 1 119 b 394 14 88 -17 343 -6 b 415 365 446 38 439 236 b 299 422 386 389 350 406 b 447 360 374 414 415 401 b 569 -40 494 290 515 -19 z "},"Ķ":{"ha":974,"x_min":0,"x_max":0,"o":"m 569 -40 b 1008 85 626 -62 1008 42 b 875 313 1008 128 965 211 b 631 528 785 411 725 467 b 875 892 713 608 807 703 b 665 1097 936 1053 768 1085 b 507 925 563 1110 549 1058 b 394 690 463 792 447 763 b 425 982 374 656 413 904 b 154 1110 439 1058 322 1085 b -35 914 -14 1135 -35 1025 b 64 732 -35 801 21 725 b 210 775 107 740 163 763 l 99 703 l 56 540 b 42 56 24 419 1 119 b 394 14 88 -17 343 -6 b 415 365 446 38 439 236 b 299 422 386 389 350 406 b 447 360 374 414 415 401 b 569 -40 494 290 515 -19 z m 378 -296 b 421 -333 378 -317 399 -333 l 468 -333 b 508 -299 489 -333 501 -318 b 564 -117 542 -210 564 -146 b 519 -74 564 -93 546 -74 l 449 -74 b 406 -117 425 -74 410 -93 b 378 -296 378 -292 378 -294 z "},"L":{"ha":779,"x_min":0,"x_max":0,"o":"m 185 0 b 801 161 232 0 743 122 b 642 528 861 199 700 519 b 379 439 582 536 468 469 l 506 1014 b 156 1111 511 1086 201 1128 b 29 676 108 1094 63 871 b -35 143 -6 482 -39 215 b 185 0 -31 72 139 0 z "},"Ĺ":{"ha":779,"x_min":0,"x_max":0,"o":"m 185 0 b 801 161 232 0 743 122 b 642 528 861 199 700 519 b 379 439 582 536 468 469 l 506 1014 b 156 1111 511 1086 201 1128 b 29 676 108 1094 63 871 b -35 143 -6 482 -39 215 b 185 0 -31 72 139 0 z m 289 1244 b 322 1213 289 1226 303 1213 l 353 1213 b 371 1221 360 1213 367 1215 l 482 1360 b 492 1385 489 1368 492 1376 b 454 1419 492 1403 478 1418 l 379 1422 b 356 1407 369 1422 360 1417 b 289 1244 290 1254 289 1249 z "},"Ľ":{"ha":779,"x_min":0,"x_max":0,"o":"m 185 0 b 801 161 232 0 743 122 b 642 528 861 199 700 519 b 379 439 582 536 468 469 l 506 1014 b 156 1111 511 1086 201 1128 b 29 676 108 1094 63 871 b -35 143 -6 482 -39 215 b 185 0 -31 72 139 0 z m 779 826 b 810 796 779 810 792 796 l 879 796 b 903 813 890 796 899 801 l 978 1011 b 981 1024 979 1015 981 1019 b 947 1054 981 1042 967 1054 l 849 1054 b 824 1033 836 1054 826 1047 l 781 833 b 779 826 781 831 779 828 z "},"Ļ":{"ha":779,"x_min":0,"x_max":0,"o":"m 185 0 b 801 161 232 0 743 122 b 642 528 861 199 700 519 b 379 439 582 536 468 469 l 506 1014 b 156 1111 511 1086 201 1128 b 29 676 108 1094 63 871 b -35 143 -6 482 -39 215 b 185 0 -31 72 139 0 z m 297 -296 b 340 -333 297 -317 318 -333 l 388 -333 b 428 -299 408 -333 421 -318 b 483 -117 461 -210 483 -146 b 439 -74 483 -93 465 -74 l 368 -74 b 325 -117 344 -74 329 -93 b 297 -296 297 -292 297 -294 z "},"Ł":{"ha":779,"x_min":0,"x_max":0,"o":"m 185 0 b 801 161 232 0 743 122 b 642 528 861 199 700 519 b 379 439 582 536 468 469 l 415 601 l 578 669 b 644 778 633 693 660 740 b 518 796 628 814 574 819 l 451 768 l 506 1014 b 156 1111 511 1086 201 1128 b 29 676 108 1094 63 871 b 14 583 24 646 18 615 l -162 508 b -231 399 -219 485 -247 436 b -106 382 -212 364 -162 358 l -10 422 b -35 143 -26 297 -37 186 b 185 0 -31 72 139 0 z "},"M":{"ha":1074,"x_min":0,"x_max":0,"o":"m 446 6 b 536 276 550 18 554 158 l 433 535 b 593 318 490 457 542 318 b 749 607 657 318 708 504 l 661 301 b 714 6 675 211 671 8 b 1101 51 757 0 1071 6 b 989 715 1135 103 1028 572 b 813 1111 954 847 886 1111 b 622 1072 706 1111 635 1093 l 554 735 b 403 1081 503 863 464 1064 b -32 1043 343 1099 -22 1086 b -6 778 -40 999 -32 804 l 193 790 l 94 753 b 103 43 97 529 67 99 b 446 6 138 -14 374 -6 z "},"N":{"ha":971,"x_min":0,"x_max":0,"o":"m 574 13 b 914 25 622 -6 888 -6 b 938 483 940 56 914 242 b 1006 1039 965 765 1010 990 b 675 1099 1001 1086 700 1108 b 588 733 649 1090 592 756 l 644 519 b 374 1094 553 711 469 1099 b 65 1069 304 1099 94 1117 b 17 442 35 1021 39 672 b -31 89 -1 263 -49 136 b 369 15 -1 1 313 -25 b 369 550 431 54 400 350 b 574 13 439 376 526 29 z "},"Ń":{"ha":971,"x_min":0,"x_max":0,"o":"m 574 13 b 914 25 622 -6 888 -6 b 938 483 940 56 914 242 b 1006 1039 965 765 1010 990 b 675 1099 1001 1086 700 1108 b 588 733 649 1090 592 756 l 644 519 b 374 1094 553 711 469 1099 b 65 1069 304 1099 94 1117 b 17 442 35 1021 39 672 b -31 89 -1 263 -49 136 b 369 15 -1 1 313 -25 b 369 550 431 54 400 350 b 574 13 439 376 526 29 z m 385 1244 b 418 1213 385 1226 399 1213 l 449 1213 b 467 1221 456 1213 463 1215 l 578 1360 b 588 1385 585 1368 588 1376 b 550 1419 588 1403 574 1418 l 475 1422 b 451 1407 465 1422 456 1417 b 385 1244 386 1254 385 1249 z "},"Ň":{"ha":971,"x_min":0,"x_max":0,"o":"m 574 13 b 914 25 622 -6 888 -6 b 938 483 940 56 914 242 b 1006 1039 965 765 1010 990 b 675 1099 1001 1086 700 1108 b 588 733 649 1090 592 756 l 644 519 b 374 1094 553 711 469 1099 b 65 1069 304 1099 94 1117 b 17 442 35 1021 39 672 b -31 89 -1 263 -49 136 b 369 15 -1 1 313 -25 b 369 550 431 54 400 350 b 574 13 439 376 526 29 z m 300 1431 b 365 1268 300 1426 301 1421 b 389 1253 369 1258 379 1253 l 489 1253 b 490 1253 489 1253 489 1253 l 590 1253 b 614 1268 600 1253 610 1258 b 679 1431 678 1421 679 1426 b 646 1463 679 1447 665 1463 l 546 1463 b 522 1447 536 1463 526 1457 b 490 1369 508 1415 499 1389 l 457 1447 b 433 1463 453 1457 443 1463 l 333 1463 b 300 1431 314 1463 300 1447 z "},"Ņ":{"ha":971,"x_min":0,"x_max":0,"o":"m 574 13 b 914 25 622 -6 888 -6 b 938 483 940 56 914 242 b 1006 1039 965 765 1010 990 b 675 1099 1001 1086 700 1108 b 588 733 649 1090 592 756 l 644 519 b 374 1094 553 711 469 1099 b 65 1069 304 1099 94 1117 b 17 442 35 1021 39 672 b -31 89 -1 263 -49 136 b 369 15 -1 1 313 -25 b 369 550 431 54 400 350 b 574 13 439 376 526 29 z m 393 -296 b 436 -333 393 -317 414 -333 l 483 -333 b 524 -299 504 -333 517 -318 b 579 -117 557 -210 579 -146 b 535 -74 579 -93 561 -74 l 464 -74 b 421 -117 440 -74 425 -93 b 393 -296 393 -292 393 -294 z "},"Ñ":{"ha":971,"x_min":0,"x_max":0,"o":"m 574 13 b 914 25 622 -6 888 -6 b 938 483 940 56 914 242 b 1006 1039 965 765 1010 990 b 675 1099 1001 1086 700 1108 b 588 733 649 1090 592 756 l 644 519 b 374 1094 553 711 469 1099 b 65 1069 304 1099 94 1117 b 17 442 35 1021 39 672 b -31 89 -1 263 -49 136 b 369 15 -1 1 313 -25 b 369 550 431 54 400 350 b 574 13 439 376 526 29 z m 272 1213 l 356 1213 b 415 1300 356 1247 376 1300 b 567 1203 457 1300 489 1203 b 700 1369 626 1203 700 1275 l 617 1369 b 567 1286 617 1326 590 1286 b 415 1383 531 1286 496 1383 b 272 1213 349 1383 272 1313 z "},"O":{"ha":915,"x_min":0,"x_max":0,"o":"m 483 8 b 950 568 676 22 961 154 b 442 1111 936 982 689 1115 b -33 513 218 1111 -50 949 b 483 8 -15 76 292 -4 z m 278 319 b 397 319 349 313 397 319 b 310 581 358 364 314 467 b 463 850 313 718 385 854 b 611 586 540 844 611 713 b 467 299 611 396 543 314 b 278 319 429 292 369 283 z "},"Ó":{"ha":915,"x_min":0,"x_max":0,"o":"m 483 8 b 950 568 676 22 961 154 b 442 1111 936 982 689 1115 b -33 513 218 1111 -50 949 b 483 8 -15 76 292 -4 z m 278 319 b 397 319 349 313 397 319 b 310 581 358 364 314 467 b 463 850 313 718 385 854 b 611 586 540 844 611 713 b 467 299 611 396 543 314 b 278 319 429 292 369 283 z m 357 1244 b 390 1213 357 1226 371 1213 l 421 1213 b 439 1221 428 1213 435 1215 l 550 1360 b 560 1385 557 1368 560 1376 b 522 1419 560 1403 546 1418 l 447 1422 b 424 1407 438 1422 428 1417 b 357 1244 358 1254 357 1249 z "},"Ô":{"ha":915,"x_min":0,"x_max":0,"o":"m 483 8 b 950 568 676 22 961 154 b 442 1111 936 982 689 1115 b -33 513 218 1111 -50 949 b 483 8 -15 76 292 -4 z m 265 1285 b 299 1253 265 1268 279 1253 l 399 1253 b 422 1268 408 1253 418 1258 b 456 1346 436 1300 446 1326 l 488 1268 b 511 1253 492 1258 501 1253 l 611 1253 b 644 1285 631 1253 644 1268 b 579 1447 644 1289 643 1294 b 556 1463 575 1457 565 1463 l 456 1463 b 454 1463 456 1463 456 1463 l 354 1463 b 331 1447 344 1463 335 1457 b 265 1285 267 1294 265 1289 z m 278 319 b 397 319 349 313 397 319 b 310 581 358 364 314 467 b 463 850 313 718 385 854 b 611 586 540 844 611 713 b 467 299 611 396 543 314 b 278 319 429 292 369 283 z "},"Ö":{"ha":915,"x_min":0,"x_max":0,"o":"m 483 8 b 950 568 676 22 961 154 b 442 1111 936 982 689 1115 b -33 513 218 1111 -50 949 b 483 8 -15 76 292 -4 z m 267 1294 b 349 1213 267 1249 303 1213 b 431 1294 394 1213 431 1249 b 349 1376 431 1340 394 1376 b 267 1294 303 1376 267 1340 z m 278 319 b 397 319 349 313 397 319 b 310 581 358 364 314 467 b 463 850 313 718 385 854 b 611 586 540 844 611 713 b 467 299 611 396 543 314 b 278 319 429 292 369 283 z m 485 1294 b 567 1213 485 1249 521 1213 b 649 1294 613 1213 649 1249 b 567 1376 649 1340 613 1376 b 485 1294 521 1376 485 1340 z "},"Ò":{"ha":915,"x_min":0,"x_max":0,"o":"m 483 8 b 950 568 676 22 961 154 b 442 1111 936 982 689 1115 b -33 513 218 1111 -50 949 b 483 8 -15 76 292 -4 z m 278 319 b 397 319 349 313 397 319 b 310 581 358 364 314 467 b 463 850 313 718 385 854 b 611 586 540 844 611 713 b 467 299 611 396 543 314 b 278 319 429 292 369 283 z m 357 1385 b 367 1360 357 1376 360 1368 l 478 1221 b 496 1213 482 1215 489 1213 l 526 1213 b 560 1244 546 1213 560 1226 b 493 1407 560 1249 558 1254 b 469 1422 489 1417 479 1422 l 394 1419 b 357 1385 371 1418 357 1403 z "},"Ő":{"ha":915,"x_min":0,"x_max":0,"o":"m 483 8 b 950 568 676 22 961 154 b 442 1111 936 982 689 1115 b -33 513 218 1111 -50 949 b 483 8 -15 76 292 -4 z m 268 1244 b 301 1213 268 1226 282 1213 l 332 1213 b 350 1221 339 1213 346 1215 l 461 1360 b 471 1385 468 1368 471 1376 b 433 1419 471 1403 457 1418 l 358 1422 b 335 1407 349 1422 339 1417 b 268 1244 269 1254 268 1249 z m 278 319 b 397 319 349 313 397 319 b 310 581 358 364 314 467 b 463 850 313 718 385 854 b 611 586 540 844 611 713 b 467 299 611 396 543 314 b 278 319 429 292 369 283 z m 446 1244 b 479 1213 446 1226 460 1213 l 510 1213 b 528 1221 517 1213 524 1215 l 639 1360 b 649 1385 646 1368 649 1376 b 611 1419 649 1403 635 1418 l 536 1422 b 513 1407 526 1422 517 1417 b 446 1244 447 1254 446 1249 z "},"Ō":{"ha":915,"x_min":0,"x_max":0,"o":"m 483 8 b 950 568 676 22 961 154 b 442 1111 936 982 689 1115 b -33 513 218 1111 -50 949 b 483 8 -15 76 292 -4 z m 261 1269 b 318 1213 261 1238 286 1213 l 599 1213 b 656 1269 631 1213 656 1238 l 656 1322 b 599 1379 656 1354 631 1379 l 318 1379 b 261 1322 286 1379 261 1354 z m 278 319 b 397 319 349 313 397 319 b 310 581 358 364 314 467 b 463 850 313 718 385 854 b 611 586 540 844 611 713 b 467 299 611 396 543 314 b 278 319 429 292 369 283 z "},"Ø":{"ha":761,"x_min":0,"x_max":0,"o":"m -21 46 b 103 72 8 19 60 29 l 139 108 b 483 8 246 22 381 1 b 950 568 676 22 961 154 b 888 856 946 685 924 781 l 936 904 b 961 1029 979 947 989 1000 b 838 1003 933 1057 881 1046 l 807 972 b 442 1111 711 1075 576 1114 b -33 513 218 1111 -50 949 b 47 213 -28 383 3 286 l 6 171 b -21 46 -37 128 -49 75 z m 310 581 b 463 850 313 718 385 854 b 576 742 507 847 549 803 l 322 488 b 310 581 315 517 311 549 z m 333 301 l 347 317 b 397 319 379 317 397 319 b 378 346 390 326 385 336 l 611 579 b 467 299 610 394 542 314 b 333 301 438 293 394 288 z "},"Õ":{"ha":915,"x_min":0,"x_max":0,"o":"m 483 8 b 950 568 676 22 961 154 b 442 1111 936 982 689 1115 b -33 513 218 1111 -50 949 b 483 8 -15 76 292 -4 z m 244 1213 l 328 1213 b 388 1300 328 1247 349 1300 b 539 1203 429 1300 461 1203 b 672 1369 599 1203 672 1275 l 589 1369 b 539 1286 589 1326 563 1286 b 388 1383 503 1286 468 1383 b 244 1213 321 1383 244 1313 z m 278 319 b 397 319 349 313 397 319 b 310 581 358 364 314 467 b 463 850 313 718 385 854 b 611 586 540 844 611 713 b 467 299 611 396 543 314 b 278 319 429 292 369 283 z "},"Œ":{"ha":1764,"x_min":0,"x_max":0,"o":"m 483 8 b 686 64 546 13 618 29 b 736 15 697 38 713 19 b 1410 74 819 0 1356 21 b 1361 440 1463 126 1446 454 l 1040 388 l 1031 440 b 1154 472 1074 440 1131 447 b 1104 708 1193 494 1168 713 l 950 697 l 943 740 b 1256 735 1049 750 1206 715 b 1261 1072 1328 763 1357 1032 b 890 1125 1221 1089 1044 1126 b 601 1093 728 1122 636 1117 b 442 1111 550 1107 496 1113 b -33 513 218 1111 -50 949 b 483 8 -15 76 292 -4 z m 278 319 b 397 319 349 313 397 319 b 310 581 358 364 314 467 b 463 850 313 718 385 854 b 611 586 540 844 611 713 b 467 299 611 396 543 314 b 278 319 429 292 369 283 z "},"P":{"ha":822,"x_min":0,"x_max":0,"o":"m 160 63 b 583 78 222 -56 529 29 b 521 385 638 128 578 281 b 857 708 704 389 850 456 b -4 1075 875 1194 61 1115 b 10 663 -65 1033 -19 697 b 151 626 40 631 107 638 l 131 481 b 160 63 122 410 96 179 z m 443 692 b 543 668 479 697 543 706 b 454 601 543 631 503 601 z "},"Þ":{"ha":524,"x_min":0,"x_max":0,"o":"m 115 -8 l 178 4 b 271 154 251 19 289 82 b 558 478 428 189 558 268 b 229 822 558 664 360 772 l 240 871 b 163 1003 256 932 222 986 b 33 917 104 1019 49 981 b -35 319 -21 663 -35 475 b -19 86 -35 240 -29 167 b 115 -8 -10 19 49 -22 z m 197 521 b 199 597 197 546 197 571 b 333 451 282 561 333 513 b 219 317 333 393 282 338 b 197 521 204 385 197 451 z "},"Q":{"ha":915,"x_min":0,"x_max":0,"o":"m 485 7 l 493 7 b 561 -144 519 -72 544 -135 b 936 63 611 -181 914 18 b 838 183 947 86 899 133 b 950 568 907 269 954 394 b 442 1110 936 983 689 1117 b -33 513 218 1110 -51 949 b 485 7 -17 75 292 -6 z m 311 581 b 463 850 311 719 383 857 b 611 586 539 846 600 714 b 579 408 617 526 603 461 b 496 488 542 446 508 478 b 393 440 474 500 413 465 b 414 311 390 431 399 379 b 311 581 357 344 315 436 z "},"R":{"ha":1006,"x_min":0,"x_max":0,"o":"m 669 10 b 1040 165 767 -68 1040 35 b 735 481 1040 268 857 494 b 869 739 796 504 869 607 b 428 1100 869 964 669 1086 b -24 1013 186 1111 -11 1111 b 161 607 -36 919 -81 588 b 190 38 169 418 104 99 b 582 54 267 -21 463 -8 b 508 336 542 119 508 206 b 411 378 481 340 461 350 b 508 361 443 369 481 357 b 608 382 550 365 569 369 l 533 336 b 669 10 538 214 569 89 z m 443 678 b 550 644 481 689 546 681 b 461 582 554 607 493 592 z "},"Ŕ":{"ha":1006,"x_min":0,"x_max":0,"o":"m 669 10 b 1040 165 767 -68 1040 35 b 735 481 1040 268 857 494 b 869 739 796 504 869 607 b 428 1100 869 964 669 1086 b -24 1013 186 1111 -11 1111 b 161 607 -36 919 -81 588 b 190 38 169 418 104 99 b 582 54 267 -21 463 -8 b 508 336 542 119 508 206 b 411 378 481 340 461 350 b 508 361 443 369 481 357 b 608 382 550 365 569 369 l 533 336 b 669 10 538 214 569 89 z m 401 1244 b 435 1213 401 1226 415 1213 l 465 1213 b 483 1221 472 1213 479 1215 l 594 1360 b 604 1385 601 1368 604 1376 b 567 1419 604 1403 590 1418 l 492 1422 b 468 1407 482 1422 472 1417 b 401 1244 403 1254 401 1249 z m 443 678 b 550 644 481 689 546 681 b 461 582 554 607 493 592 z "},"Ř":{"ha":1006,"x_min":0,"x_max":0,"o":"m 669 10 b 1040 165 767 -68 1040 35 b 735 481 1040 268 857 494 b 869 739 796 504 869 607 b 428 1100 869 964 669 1086 b -24 1013 186 1111 -11 1111 b 161 607 -36 919 -81 588 b 190 38 169 418 104 99 b 582 54 267 -21 463 -8 b 508 336 542 119 508 206 b 411 378 481 340 461 350 b 508 361 443 369 481 357 b 608 382 550 365 569 369 l 533 336 b 669 10 538 214 569 89 z m 317 1431 b 382 1268 317 1426 318 1421 b 406 1253 386 1258 396 1253 l 506 1253 b 507 1253 506 1253 506 1253 l 607 1253 b 631 1268 617 1253 626 1258 b 696 1431 694 1421 696 1426 b 663 1463 696 1447 682 1463 l 563 1463 b 539 1447 553 1463 543 1457 b 507 1369 525 1415 515 1389 l 474 1447 b 450 1463 469 1457 460 1463 l 350 1463 b 317 1431 331 1463 317 1447 z m 443 678 b 550 644 481 689 546 681 b 461 582 554 607 493 592 z "},"Ŗ":{"ha":1006,"x_min":0,"x_max":0,"o":"m 669 10 b 1040 165 767 -68 1040 35 b 735 481 1040 268 857 494 b 869 739 796 504 869 607 b 428 1100 869 964 669 1086 b -24 1013 186 1111 -11 1111 b 161 607 -36 919 -81 588 b 190 38 169 418 104 99 b 582 54 267 -21 463 -8 b 508 336 542 119 508 206 b 411 378 481 340 461 350 b 508 361 443 369 481 357 b 608 382 550 365 569 369 l 533 336 b 669 10 538 214 569 89 z m 410 -296 b 453 -333 410 -317 431 -333 l 500 -333 b 540 -299 521 -333 533 -318 b 596 -117 574 -210 596 -146 b 551 -74 596 -93 578 -74 l 481 -74 b 438 -117 457 -74 442 -93 b 410 -296 410 -292 410 -294 z m 443 678 b 550 644 481 689 546 681 b 461 582 554 607 493 592 z "},"S":{"ha":683,"x_min":0,"x_max":0,"o":"m 319 0 b 718 338 696 -26 713 243 b 567 633 722 497 581 629 b 449 633 550 638 496 617 b 350 728 408 647 358 703 b 379 744 342 749 358 761 b 457 660 400 728 418 674 b 546 660 488 650 513 656 b 683 878 696 678 700 771 b 383 1108 665 992 550 1108 b 0 917 229 1108 43 1079 b 53 690 -49 733 0 690 b 111 951 57 796 65 878 b 78 678 83 865 58 769 b 164 529 96 596 131 560 b -22 501 97 524 3 510 b 319 0 -54 489 -57 25 z m 274 438 b 350 360 325 404 367 379 b 274 438 319 324 283 386 z "},"Ś":{"ha":683,"x_min":0,"x_max":0,"o":"m 319 0 b 718 338 696 -26 713 243 b 567 633 722 497 581 629 b 449 633 550 638 496 617 b 350 728 408 647 358 703 b 379 744 342 749 358 761 b 457 660 400 728 418 674 b 546 660 488 650 513 656 b 683 878 696 678 700 771 b 383 1108 665 992 550 1108 b 0 917 229 1108 43 1079 b 53 690 -49 733 0 690 b 111 951 57 796 65 878 b 78 678 83 865 58 769 b 164 529 96 596 131 560 b -22 501 97 524 3 510 b 319 0 -54 489 -57 25 z m 240 1244 b 274 1213 240 1226 254 1213 l 304 1213 b 322 1221 311 1213 318 1215 l 433 1360 b 443 1385 440 1368 443 1376 b 406 1419 443 1403 429 1418 l 331 1422 b 307 1407 321 1422 311 1417 b 240 1244 242 1254 240 1249 z m 274 438 b 350 360 325 404 367 379 b 274 438 319 324 283 386 z "},"Š":{"ha":683,"x_min":0,"x_max":0,"o":"m 319 0 b 718 338 696 -26 713 243 b 567 633 722 497 581 629 b 449 633 550 638 496 617 b 350 728 408 647 358 703 b 379 744 342 749 358 761 b 457 660 400 728 418 674 b 546 660 488 650 513 656 b 683 878 696 678 700 771 b 383 1108 665 992 550 1108 b 0 917 229 1108 43 1079 b 53 690 -49 733 0 690 b 111 951 57 796 65 878 b 78 678 83 865 58 769 b 164 529 96 596 131 560 b -22 501 97 524 3 510 b 319 0 -54 489 -57 25 z m 156 1431 b 221 1268 156 1426 157 1421 b 244 1253 225 1258 235 1253 l 344 1253 b 346 1253 344 1253 344 1253 l 446 1253 b 469 1268 456 1253 465 1258 b 535 1431 533 1421 535 1426 b 501 1463 535 1447 521 1463 l 401 1463 b 378 1447 392 1463 382 1457 b 346 1369 364 1415 354 1389 l 313 1447 b 289 1463 308 1457 299 1463 l 189 1463 b 156 1431 169 1463 156 1447 z m 274 438 b 350 360 325 404 367 379 b 274 438 319 324 283 386 z "},"Ş":{"ha":683,"x_min":0,"x_max":0,"o":"m 353 -332 b 517 -222 436 -332 517 -306 b 486 -136 517 -183 503 -154 b 381 -83 456 -104 419 -89 b 408 -19 407 -32 408 -25 b 404 -1 408 -12 407 -7 b 718 338 699 17 713 251 b 567 633 722 497 581 629 b 449 633 550 638 496 617 b 350 728 408 647 358 703 b 379 744 342 749 358 761 b 457 660 400 728 418 674 b 546 660 488 650 513 656 b 683 878 696 678 700 771 b 383 1108 665 992 550 1108 b 0 917 229 1108 43 1079 b 53 690 -49 733 0 690 b 111 951 57 796 65 878 b 78 678 83 865 58 769 b 164 529 96 596 131 560 b -22 501 97 524 3 510 b 282 4 -53 489 -57 57 l 279 -1 b 233 -117 249 -92 233 -111 b 274 -161 233 -140 249 -158 l 311 -165 b 364 -197 343 -169 364 -185 b 322 -217 364 -212 353 -217 b 239 -193 301 -217 269 -207 b 215 -187 231 -189 222 -187 b 167 -244 182 -187 167 -228 b 179 -271 167 -254 171 -264 b 353 -332 219 -307 261 -332 z m 274 438 b 350 360 325 404 367 379 b 274 438 319 324 283 386 z "},"Ș":{"ha":683,"x_min":0,"x_max":0,"o":"m 319 0 b 718 338 696 -26 713 243 b 567 633 722 497 581 629 b 449 633 550 638 496 617 b 350 728 408 647 358 703 b 379 744 342 749 358 761 b 457 660 400 728 418 674 b 546 660 488 650 513 656 b 683 878 696 678 700 771 b 383 1108 665 992 550 1108 b 0 917 229 1108 43 1079 b 53 690 -49 733 0 690 b 111 951 57 796 65 878 b 78 678 83 865 58 769 b 164 529 96 596 131 560 b -22 501 97 524 3 510 b 319 0 -54 489 -57 25 z m 249 -296 b 292 -333 249 -317 269 -333 l 339 -333 b 379 -299 360 -333 372 -318 b 435 -117 413 -210 435 -146 b 390 -74 435 -93 417 -74 l 319 -74 b 276 -117 296 -74 281 -93 b 249 -296 249 -292 249 -294 z m 274 438 b 350 360 325 404 367 379 b 274 438 319 324 283 386 z "},"ẞ":{"ha":729,"x_min":0,"x_max":0,"o":"m 272 708 l 279 514 b 513 404 390 514 513 468 b 435 307 513 364 474 329 b 331 110 390 282 297 221 b 535 11 367 -11 481 -14 b 764 317 636 57 764 158 b 446 611 764 476 593 628 b 656 840 600 658 656 703 b 82 1125 656 1111 82 1125 l 82 1122 l 76 1124 b -11 92 -58 738 -47 390 b 111 3 -4 29 50 -7 l 164 11 b 265 153 233 22 283 83 b 204 683 222 322 204 508 b 217 869 204 717 207 789 b 422 806 328 856 422 840 b 272 708 422 744 332 708 z "},"T":{"ha":697,"x_min":0,"x_max":0,"o":"m 514 24 b 524 358 575 54 538 243 l 488 661 l 364 685 b 690 715 475 693 664 697 b 707 1094 717 732 761 1085 b 135 1111 656 1103 268 1115 b -32 918 -24 1115 -24 1044 b 47 618 -40 790 -28 614 l 210 653 b 96 54 171 468 68 151 b 514 24 119 -26 453 -8 z "},"Ť":{"ha":697,"x_min":0,"x_max":0,"o":"m 514 24 b 524 358 575 54 538 243 l 488 661 l 364 685 b 690 715 475 693 664 697 b 707 1094 717 732 761 1085 b 135 1111 656 1103 268 1115 b -32 918 -24 1115 -24 1044 b 47 618 -40 790 -28 614 l 210 653 b 96 54 171 468 68 151 b 514 24 119 -26 453 -8 z m 163 1431 b 228 1268 163 1426 164 1421 b 251 1253 232 1258 242 1253 l 351 1253 b 351 1253 351 1253 351 1253 l 453 1253 b 476 1268 463 1253 472 1258 b 542 1431 540 1421 542 1426 b 508 1463 542 1447 528 1463 l 408 1463 b 385 1447 399 1463 389 1457 b 353 1369 371 1415 361 1389 l 319 1447 b 296 1463 315 1457 306 1463 l 196 1463 b 163 1431 176 1463 163 1447 z "},"Ţ":{"ha":697,"x_min":0,"x_max":0,"o":"m 514 24 b 524 358 575 54 538 243 l 488 661 l 364 685 b 690 715 475 693 664 697 b 707 1094 717 732 761 1085 b 135 1111 656 1103 268 1115 b -32 918 -24 1115 -24 1044 b 47 618 -40 790 -28 614 l 210 653 b 96 54 171 468 68 151 b 286 -3 107 15 193 -1 b 240 -117 256 -92 240 -111 b 281 -161 240 -140 256 -158 l 318 -165 b 371 -197 350 -169 371 -185 b 329 -217 371 -212 360 -217 b 246 -193 308 -217 276 -207 b 222 -187 238 -189 229 -187 b 174 -244 189 -187 174 -228 b 186 -271 174 -254 178 -264 b 360 -332 226 -307 268 -332 b 524 -222 443 -332 524 -306 b 493 -136 524 -183 510 -154 b 388 -83 463 -104 426 -89 b 415 -19 414 -32 415 -25 b 410 1 415 -11 414 -4 b 514 24 457 7 497 14 z "},"Ț":{"ha":697,"x_min":0,"x_max":0,"o":"m 514 24 b 524 358 575 54 538 243 l 488 661 l 364 685 b 690 715 475 693 664 697 b 707 1094 717 732 761 1085 b 135 1111 656 1103 268 1115 b -32 918 -24 1115 -24 1044 b 47 618 -40 790 -28 614 l 210 653 b 96 54 171 468 68 151 b 514 24 119 -26 453 -8 z m 256 -296 b 299 -333 256 -317 276 -333 l 346 -333 b 386 -299 367 -333 379 -318 b 442 -117 419 -210 442 -146 b 397 -74 442 -93 424 -74 l 326 -74 b 283 -117 303 -74 288 -93 b 256 -296 256 -292 256 -294 z "},"U":{"ha":881,"x_min":0,"x_max":0,"o":"m 535 28 l 557 -25 b 914 54 575 -40 896 24 b 758 1096 932 86 785 1060 b 499 1083 731 1132 521 1104 b 489 663 476 1060 493 842 b 378 371 485 483 476 367 b 413 963 281 376 392 819 b 249 1111 436 1104 351 1092 b 74 993 168 1124 90 1104 b 7 183 57 882 -110 417 b 436 0 122 -49 364 -17 b 618 196 524 24 574 101 b 535 28 603 161 629 124 z "},"Ú":{"ha":881,"x_min":0,"x_max":0,"o":"m 535 28 l 557 -25 b 914 54 575 -40 896 24 b 758 1096 932 86 785 1060 b 499 1083 731 1132 521 1104 b 489 663 476 1060 493 842 b 378 371 485 483 476 367 b 413 963 281 376 392 819 b 249 1111 436 1104 351 1092 b 74 993 168 1124 90 1104 b 7 183 57 882 -110 417 b 436 0 122 -49 364 -17 b 618 196 524 24 574 101 b 535 28 603 161 629 124 z m 339 1244 b 372 1213 339 1226 353 1213 l 403 1213 b 421 1221 410 1213 417 1215 l 532 1360 b 542 1385 539 1368 542 1376 b 504 1419 542 1403 528 1418 l 429 1422 b 406 1407 419 1422 410 1417 b 339 1244 340 1254 339 1249 z "},"Û":{"ha":881,"x_min":0,"x_max":0,"o":"m 535 28 l 557 -25 b 914 54 575 -40 896 24 b 758 1096 932 86 785 1060 b 499 1083 731 1132 521 1104 b 489 663 476 1060 493 842 b 378 371 485 483 476 367 b 413 963 281 376 392 819 b 249 1111 436 1104 351 1092 b 74 993 168 1124 90 1104 b 7 183 57 882 -110 417 b 436 0 122 -49 364 -17 b 618 196 524 24 574 101 b 535 28 603 161 629 124 z m 247 1285 b 281 1253 247 1268 261 1253 l 381 1253 b 404 1268 390 1253 400 1258 b 438 1346 418 1300 428 1326 l 469 1268 b 493 1253 474 1258 483 1253 l 593 1253 b 626 1285 613 1253 626 1268 b 561 1447 626 1289 625 1294 b 538 1463 557 1457 547 1463 l 438 1463 b 436 1463 438 1463 438 1463 l 336 1463 b 313 1447 326 1463 317 1457 b 247 1285 249 1294 247 1289 z "},"Ü":{"ha":881,"x_min":0,"x_max":0,"o":"m 535 28 l 557 -25 b 914 54 575 -40 896 24 b 758 1096 932 86 785 1060 b 499 1083 731 1132 521 1104 b 489 663 476 1060 493 842 b 378 371 485 483 476 367 b 413 963 281 376 392 819 b 249 1111 436 1104 351 1092 b 74 993 168 1124 90 1104 b 7 183 57 882 -110 417 b 436 0 122 -49 364 -17 b 618 196 524 24 574 101 b 535 28 603 161 629 124 z m 249 1294 b 331 1213 249 1249 285 1213 b 413 1294 376 1213 413 1249 b 331 1376 413 1340 376 1376 b 249 1294 285 1376 249 1340 z m 467 1294 b 549 1213 467 1249 503 1213 b 631 1294 594 1213 631 1249 b 549 1376 631 1340 594 1376 b 467 1294 503 1376 467 1340 z "},"Ù":{"ha":881,"x_min":0,"x_max":0,"o":"m 535 28 l 557 -25 b 914 54 575 -40 896 24 b 758 1096 932 86 785 1060 b 499 1083 731 1132 521 1104 b 489 663 476 1060 493 842 b 378 371 485 483 476 367 b 413 963 281 376 392 819 b 249 1111 436 1104 351 1092 b 74 993 168 1124 90 1104 b 7 183 57 882 -110 417 b 436 0 122 -49 364 -17 b 618 196 524 24 574 101 b 535 28 603 161 629 124 z m 339 1385 b 349 1360 339 1376 342 1368 l 460 1221 b 478 1213 464 1215 471 1213 l 508 1213 b 542 1244 528 1213 542 1226 b 475 1407 542 1249 540 1254 b 451 1422 471 1417 461 1422 l 376 1419 b 339 1385 353 1418 339 1403 z "},"Ű":{"ha":881,"x_min":0,"x_max":0,"o":"m 535 28 l 557 -25 b 914 54 575 -40 896 24 b 758 1096 932 86 785 1060 b 499 1083 731 1132 521 1104 b 489 663 476 1060 493 842 b 378 371 485 483 476 367 b 413 963 281 376 392 819 b 249 1111 436 1104 351 1092 b 74 993 168 1124 90 1104 b 7 183 57 882 -110 417 b 436 0 122 -49 364 -17 b 618 196 524 24 574 101 b 535 28 603 161 629 124 z m 250 1244 b 283 1213 250 1226 264 1213 l 314 1213 b 332 1221 321 1213 328 1215 l 443 1360 b 453 1385 450 1368 453 1376 b 415 1419 453 1403 439 1418 l 340 1422 b 317 1407 331 1422 321 1417 b 250 1244 251 1254 250 1249 z m 428 1244 b 461 1213 428 1226 442 1213 l 492 1213 b 510 1221 499 1213 506 1215 l 621 1360 b 631 1385 628 1368 631 1376 b 593 1419 631 1403 617 1418 l 518 1422 b 494 1407 508 1422 499 1417 b 428 1244 429 1254 428 1249 z "},"Ū":{"ha":881,"x_min":0,"x_max":0,"o":"m 535 28 l 557 -25 b 914 54 575 -40 896 24 b 758 1096 932 86 785 1060 b 499 1083 731 1132 521 1104 b 489 663 476 1060 493 842 b 378 371 485 483 476 367 b 413 963 281 376 392 819 b 249 1111 436 1104 351 1092 b 74 993 168 1124 90 1104 b 7 183 57 882 -110 417 b 436 0 122 -49 364 -17 b 618 196 524 24 574 101 b 535 28 603 161 629 124 z m 243 1269 b 300 1213 243 1238 268 1213 l 581 1213 b 638 1269 613 1213 638 1238 l 638 1322 b 581 1379 638 1354 613 1379 l 300 1379 b 243 1322 268 1379 243 1354 z "},"Ų":{"ha":881,"x_min":0,"x_max":0,"o":"m 535 28 l 557 -25 b 646 -19 563 -29 599 -26 b 565 -149 596 -64 565 -108 b 747 -278 565 -237 650 -278 b 793 -235 776 -278 793 -260 l 793 -206 b 750 -164 793 -182 775 -165 b 690 -126 706 -161 690 -150 b 729 -44 690 -97 707 -71 b 742 -15 738 -35 742 -25 b 738 -3 742 -11 740 -6 b 914 54 822 15 906 39 b 758 1096 932 86 785 1060 b 499 1083 731 1132 521 1104 b 489 663 476 1060 493 842 b 378 371 485 483 476 367 b 413 963 281 376 392 819 b 249 1111 436 1104 351 1092 b 74 993 168 1124 90 1104 b 7 183 57 882 -110 417 b 436 0 122 -49 364 -17 b 618 196 524 24 574 101 b 535 28 603 161 629 124 z "},"Ů":{"ha":881,"x_min":0,"x_max":0,"o":"m 535 28 l 557 -25 b 914 54 575 -40 896 24 b 758 1096 932 86 785 1060 b 499 1083 731 1132 521 1104 b 489 663 476 1060 493 842 b 378 371 485 483 476 367 b 413 963 281 376 392 819 b 249 1111 436 1104 351 1092 b 74 993 168 1124 90 1104 b 7 183 57 882 -110 417 b 436 0 122 -49 364 -17 b 618 196 524 24 574 101 b 535 28 603 161 629 124 z m 301 1350 b 440 1211 301 1274 364 1211 b 578 1350 515 1211 578 1274 b 440 1488 578 1425 515 1488 b 301 1350 364 1488 301 1425 z m 403 1350 b 440 1386 403 1369 419 1386 b 476 1350 460 1386 476 1369 b 440 1313 476 1329 460 1313 b 403 1350 419 1313 403 1329 z "},"Ũ":{"ha":881,"x_min":0,"x_max":0,"o":"m 535 28 l 557 -25 b 914 54 575 -40 896 24 b 758 1096 932 86 785 1060 b 499 1083 731 1132 521 1104 b 489 663 476 1060 493 842 b 378 371 485 483 476 367 b 413 963 281 376 392 819 b 249 1111 436 1104 351 1092 b 74 993 168 1124 90 1104 b 7 183 57 882 -110 417 b 436 0 122 -49 364 -17 b 618 196 524 24 574 101 b 535 28 603 161 629 124 z m 226 1213 l 310 1213 b 369 1300 310 1247 331 1300 b 521 1203 411 1300 443 1203 b 654 1369 581 1203 654 1275 l 571 1369 b 521 1286 571 1326 544 1286 b 369 1383 485 1286 450 1383 b 226 1213 303 1383 226 1313 z "},"V":{"ha":768,"x_min":0,"x_max":0,"o":"m 626 4 b 799 1028 728 33 824 918 b 483 1057 772 1138 478 1103 b 496 506 488 1015 504 650 b 228 1111 451 708 439 1115 b -32 969 18 1107 -49 1032 b 218 71 -14 910 210 139 b 626 4 228 4 525 -21 z "},"W":{"ha":1188,"x_min":0,"x_max":0,"o":"m 574 4 b 674 400 642 31 674 264 b 772 17 707 274 733 43 b 1114 35 813 -8 1085 -26 b 1219 1050 1146 96 1240 1003 b 858 1054 1197 1097 889 1094 l 876 476 b 717 1097 825 685 799 1068 b 478 1063 633 1128 486 1101 b 486 525 468 1025 490 768 b 274 1115 417 754 435 1111 b -35 993 114 1119 -35 1028 b 217 74 -35 958 190 122 b 574 4 243 26 490 -26 z "},"Ẃ":{"ha":1188,"x_min":0,"x_max":0,"o":"m 574 4 b 674 400 642 31 674 264 b 772 17 707 274 733 43 b 1114 35 813 -8 1085 -26 b 1219 1050 1146 96 1240 1003 b 858 1054 1197 1097 889 1094 l 876 476 b 717 1097 825 685 799 1068 b 478 1063 633 1128 486 1101 b 486 525 468 1025 490 768 b 274 1115 417 754 435 1111 b -35 993 114 1119 -35 1028 b 217 74 -35 958 190 122 b 574 4 243 26 490 -26 z m 493 1244 b 526 1213 493 1226 507 1213 l 557 1213 b 575 1221 564 1213 571 1215 l 686 1360 b 696 1385 693 1368 696 1376 b 658 1419 696 1403 682 1418 l 583 1422 b 560 1407 574 1422 564 1417 b 493 1244 494 1254 493 1249 z "},"Ŵ":{"ha":1188,"x_min":0,"x_max":0,"o":"m 574 4 b 674 400 642 31 674 264 b 772 17 707 274 733 43 b 1114 35 813 -8 1085 -26 b 1219 1050 1146 96 1240 1003 b 858 1054 1197 1097 889 1094 l 876 476 b 717 1097 825 685 799 1068 b 478 1063 633 1128 486 1101 b 486 525 468 1025 490 768 b 274 1115 417 754 435 1111 b -35 993 114 1119 -35 1028 b 217 74 -35 958 190 122 b 574 4 243 26 490 -26 z m 401 1285 b 435 1253 401 1268 415 1253 l 535 1253 b 558 1268 544 1253 554 1258 b 592 1346 572 1300 582 1326 l 624 1268 b 647 1253 628 1258 638 1253 l 747 1253 b 781 1285 767 1253 781 1268 b 715 1447 781 1289 779 1294 b 692 1463 711 1457 701 1463 l 592 1463 b 590 1463 592 1463 592 1463 l 490 1463 b 467 1447 481 1463 471 1457 b 401 1285 403 1294 401 1289 z "},"Ẅ":{"ha":1188,"x_min":0,"x_max":0,"o":"m 574 4 b 674 400 642 31 674 264 b 772 17 707 274 733 43 b 1114 35 813 -8 1085 -26 b 1219 1050 1146 96 1240 1003 b 858 1054 1197 1097 889 1094 l 876 476 b 717 1097 825 685 799 1068 b 478 1063 633 1128 486 1101 b 486 525 468 1025 490 768 b 274 1115 417 754 435 1111 b -35 993 114 1119 -35 1028 b 217 74 -35 958 190 122 b 574 4 243 26 490 -26 z m 403 1294 b 485 1213 403 1249 439 1213 b 567 1294 531 1213 567 1249 b 485 1376 567 1340 531 1376 b 403 1294 439 1376 403 1340 z m 621 1294 b 703 1213 621 1249 657 1213 b 785 1294 749 1213 785 1249 b 703 1376 785 1340 749 1376 b 621 1294 657 1376 621 1340 z "},"Ẁ":{"ha":1188,"x_min":0,"x_max":0,"o":"m 574 4 b 674 400 642 31 674 264 b 772 17 707 274 733 43 b 1114 35 813 -8 1085 -26 b 1219 1050 1146 96 1240 1003 b 858 1054 1197 1097 889 1094 l 876 476 b 717 1097 825 685 799 1068 b 478 1063 633 1128 486 1101 b 486 525 468 1025 490 768 b 274 1115 417 754 435 1111 b -35 993 114 1119 -35 1028 b 217 74 -35 958 190 122 b 574 4 243 26 490 -26 z m 493 1385 b 503 1360 493 1376 496 1368 l 614 1221 b 632 1213 618 1215 625 1213 l 663 1213 b 696 1244 682 1213 696 1226 b 629 1407 696 1249 694 1254 b 606 1422 625 1417 615 1422 l 531 1419 b 493 1385 507 1418 493 1403 z "},"X":{"ha":1032,"x_min":0,"x_max":0,"o":"m 735 -3 b 1067 199 821 -43 1067 115 b 697 571 1067 281 821 449 l 919 899 b 711 1079 964 964 800 1079 b 440 813 621 1079 529 903 l 293 1096 b 14 1046 276 1128 81 1096 b 174 531 -51 996 88 674 l 285 633 b -35 121 178 461 -35 281 b 367 18 -35 -7 325 -14 b 485 240 407 51 449 165 b 735 -3 554 133 625 51 z "},"Y":{"ha":922,"x_min":0,"x_max":0,"o":"m 642 -19 b 956 390 851 -11 1060 32 b 851 1067 851 747 865 1040 b 550 1011 839 1092 550 1136 b 507 760 550 886 572 751 b 438 1040 417 760 433 999 b 185 1083 443 1083 261 1140 b 179 492 117 1036 44 633 b 89 507 135 506 100 513 b -4 118 46 485 -92 196 b 642 -19 81 40 429 -28 z m 349 436 b 599 622 458 436 543 489 b 554 403 585 550 624 442 b 349 436 524 386 439 408 z "},"Ý":{"ha":922,"x_min":0,"x_max":0,"o":"m 642 -19 b 956 390 851 -11 1060 32 b 851 1067 851 747 865 1040 b 550 1011 839 1092 550 1136 b 507 760 550 886 572 751 b 438 1040 417 760 433 999 b 185 1083 443 1083 261 1140 b 179 492 117 1036 44 633 b 89 507 135 506 100 513 b -4 118 46 485 -92 196 b 642 -19 81 40 429 -28 z m 349 436 b 599 622 458 436 543 489 b 554 403 585 550 624 442 b 349 436 524 386 439 408 z m 360 1244 b 393 1213 360 1226 374 1213 l 424 1213 b 442 1221 431 1213 438 1215 l 553 1360 b 563 1385 560 1368 563 1376 b 525 1419 563 1403 549 1418 l 450 1422 b 426 1407 440 1422 431 1417 b 360 1244 361 1254 360 1249 z "},"Ŷ":{"ha":922,"x_min":0,"x_max":0,"o":"m 642 -19 b 956 390 851 -11 1060 32 b 851 1067 851 747 865 1040 b 550 1011 839 1092 550 1136 b 507 760 550 886 572 751 b 438 1040 417 760 433 999 b 185 1083 443 1083 261 1140 b 179 492 117 1036 44 633 b 89 507 135 506 100 513 b -4 118 46 485 -92 196 b 642 -19 81 40 429 -28 z m 268 1285 b 301 1253 268 1268 282 1253 l 401 1253 b 425 1268 411 1253 421 1258 b 458 1346 439 1300 449 1326 l 490 1268 b 514 1253 494 1258 504 1253 l 614 1253 b 647 1285 633 1253 647 1268 b 582 1447 647 1289 646 1294 b 558 1463 578 1457 568 1463 l 458 1463 b 458 1463 458 1463 458 1463 l 357 1463 b 333 1447 347 1463 338 1457 b 268 1285 269 1294 268 1289 z m 349 436 b 599 622 458 436 543 489 b 554 403 585 550 624 442 b 349 436 524 386 439 408 z "},"Ÿ":{"ha":922,"x_min":0,"x_max":0,"o":"m 642 -19 b 956 390 851 -11 1060 32 b 851 1067 851 747 865 1040 b 550 1011 839 1092 550 1136 b 507 760 550 886 572 751 b 438 1040 417 760 433 999 b 185 1083 443 1083 261 1140 b 179 492 117 1036 44 633 b 89 507 135 506 100 513 b -4 118 46 485 -92 196 b 642 -19 81 40 429 -28 z m 269 1294 b 351 1213 269 1249 306 1213 b 433 1294 397 1213 433 1249 b 351 1376 433 1340 397 1376 b 269 1294 306 1376 269 1340 z m 349 436 b 599 622 458 436 543 489 b 554 403 585 550 624 442 b 349 436 524 386 439 408 z m 488 1294 b 569 1213 488 1249 524 1213 b 651 1294 615 1213 651 1249 b 569 1376 651 1340 615 1376 b 488 1294 524 1376 488 1340 z "},"Ỳ":{"ha":922,"x_min":0,"x_max":0,"o":"m 642 -19 b 956 390 851 -11 1060 32 b 851 1067 851 747 865 1040 b 550 1011 839 1092 550 1136 b 507 760 550 886 572 751 b 438 1040 417 760 433 999 b 185 1083 443 1083 261 1140 b 179 492 117 1036 44 633 b 89 507 135 506 100 513 b -4 118 46 485 -92 196 b 642 -19 81 40 429 -28 z m 349 436 b 599 622 458 436 543 489 b 554 403 585 550 624 442 b 349 436 524 386 439 408 z m 360 1385 b 369 1360 360 1376 363 1368 l 481 1221 b 499 1213 485 1215 492 1213 l 529 1213 b 563 1244 549 1213 563 1226 b 496 1407 563 1249 561 1254 b 472 1422 492 1417 482 1422 l 397 1419 b 360 1385 374 1418 360 1403 z "},"Ỹ":{"ha":922,"x_min":0,"x_max":0,"o":"m 642 -19 b 956 390 851 -11 1060 32 b 851 1067 851 747 865 1040 b 550 1011 839 1092 550 1136 b 507 760 550 886 572 751 b 438 1040 417 760 433 999 b 185 1083 443 1083 261 1140 b 179 492 117 1036 44 633 b 89 507 135 506 100 513 b -4 118 46 485 -92 196 b 642 -19 81 40 429 -28 z m 247 1213 l 331 1213 b 390 1300 331 1247 351 1300 b 542 1203 432 1300 464 1203 b 675 1369 601 1203 675 1275 l 592 1369 b 542 1286 592 1326 565 1286 b 390 1383 506 1286 471 1383 b 247 1213 324 1383 247 1313 z m 349 436 b 599 622 458 436 543 489 b 554 403 585 550 624 442 b 349 436 524 386 439 408 z "},"Z":{"ha":1006,"x_min":0,"x_max":0,"o":"m 156 -1 b 978 78 236 -6 832 32 b 906 532 1126 125 974 528 b 611 386 839 535 750 468 b 897 650 644 429 821 572 b 944 1024 990 738 958 907 b 288 1111 931 1136 611 1122 b -32 843 -19 1097 -46 1018 b 132 607 -19 672 68 603 b 454 654 194 611 318 611 b 33 371 307 596 25 440 b 156 -1 43 297 75 4 z "},"Ź":{"ha":1006,"x_min":0,"x_max":0,"o":"m 156 -1 b 978 78 236 -6 832 32 b 906 532 1126 125 974 528 b 611 386 839 535 750 468 b 897 650 644 429 821 572 b 944 1024 990 738 958 907 b 288 1111 931 1136 611 1122 b -32 843 -19 1097 -46 1018 b 132 607 -19 672 68 603 b 454 654 194 611 318 611 b 33 371 307 596 25 440 b 156 -1 43 297 75 4 z m 401 1244 b 435 1213 401 1226 415 1213 l 465 1213 b 483 1221 472 1213 479 1215 l 594 1360 b 604 1385 601 1368 604 1376 b 567 1419 604 1403 590 1418 l 492 1422 b 468 1407 482 1422 472 1417 b 401 1244 403 1254 401 1249 z "},"Ž":{"ha":1006,"x_min":0,"x_max":0,"o":"m 156 -1 b 978 78 236 -6 832 32 b 906 532 1126 125 974 528 b 611 386 839 535 750 468 b 897 650 644 429 821 572 b 944 1024 990 738 958 907 b 288 1111 931 1136 611 1122 b -32 843 -19 1097 -46 1018 b 132 607 -19 672 68 603 b 454 654 194 611 318 611 b 33 371 307 596 25 440 b 156 -1 43 297 75 4 z m 317 1431 b 382 1268 317 1426 318 1421 b 406 1253 386 1258 396 1253 l 506 1253 b 507 1253 506 1253 506 1253 l 607 1253 b 631 1268 617 1253 626 1258 b 696 1431 694 1421 696 1426 b 663 1463 696 1447 682 1463 l 563 1463 b 539 1447 553 1463 543 1457 b 507 1369 525 1415 515 1389 l 474 1447 b 450 1463 469 1457 460 1463 l 350 1463 b 317 1431 331 1463 317 1447 z "},"Ż":{"ha":1006,"x_min":0,"x_max":0,"o":"m 156 -1 b 978 78 236 -6 832 32 b 906 532 1126 125 974 528 b 611 386 839 535 750 468 b 897 650 644 429 821 572 b 944 1024 990 738 958 907 b 288 1111 931 1136 611 1122 b -32 843 -19 1097 -46 1018 b 132 607 -19 672 68 603 b 454 654 194 611 318 611 b 33 371 307 596 25 440 b 156 -1 43 297 75 4 z m 421 1294 b 503 1213 421 1249 457 1213 b 585 1294 549 1213 585 1249 b 503 1376 585 1340 549 1376 b 421 1294 457 1376 421 1340 z "},"a":{"ha":707,"x_min":0,"x_max":0,"o":"m 238 0 b 343 42 293 4 325 18 b 358 192 376 79 365 154 l 274 196 l 435 215 b 532 0 450 136 428 -4 b 742 133 679 7 744 47 b 599 515 738 196 660 307 b 476 906 550 696 532 871 b 293 935 447 925 375 935 b 58 865 190 935 58 919 b 100 668 58 794 49 663 l 225 682 l 125 653 l 71 415 b -33 374 29 408 -26 415 b 11 133 -42 335 -17 147 l 44 133 l 49 207 b 96 36 54 156 49 78 b 238 0 138 4 185 -4 z m 243 438 l 325 472 l 331 560 b 343 708 335 624 336 708 b 381 478 350 708 375 557 l 463 453 b 356 451 438 454 393 451 b 243 438 300 451 285 446 z "},"á":{"ha":707,"x_min":0,"x_max":0,"o":"m 238 0 b 343 42 293 4 325 18 b 358 192 376 79 365 154 l 274 196 l 435 215 b 532 0 450 136 428 -4 b 742 133 679 7 744 47 b 599 515 738 196 660 307 b 476 906 550 696 532 871 b 293 935 447 925 375 935 b 58 865 190 935 58 919 b 100 668 58 794 49 663 l 225 682 l 125 653 l 71 415 b -33 374 29 408 -26 415 b 11 133 -42 335 -17 147 l 44 133 l 49 207 b 96 36 54 156 49 78 b 238 0 138 4 185 -4 z m 207 1043 b 240 1011 207 1025 221 1011 l 271 1011 b 289 1019 278 1011 285 1014 l 400 1158 b 410 1183 407 1167 410 1175 b 372 1218 410 1201 396 1217 l 297 1221 b 274 1206 288 1221 278 1215 b 207 1043 208 1053 207 1047 z m 243 438 l 325 472 l 331 560 b 343 708 335 624 336 708 b 381 478 350 708 375 557 l 463 453 b 356 451 438 454 393 451 b 243 438 300 451 285 446 z "},"ă":{"ha":707,"x_min":0,"x_max":0,"o":"m 238 0 b 343 42 293 4 325 18 b 358 192 376 79 365 154 l 274 196 l 435 215 b 532 0 450 136 428 -4 b 742 133 679 7 744 47 b 599 515 738 196 660 307 b 476 906 550 696 532 871 b 293 935 447 925 375 935 b 58 865 190 935 58 919 b 100 668 58 794 49 663 l 225 682 l 125 653 l 71 415 b -33 374 29 408 -26 415 b 11 133 -42 335 -17 147 l 44 133 l 49 207 b 96 36 54 156 49 78 b 238 0 138 4 185 -4 z m 122 1160 b 308 1011 122 1074 217 1011 b 493 1160 399 1011 493 1074 b 464 1193 493 1178 482 1193 l 419 1193 b 394 1172 407 1193 399 1185 b 308 1110 382 1136 349 1110 b 221 1172 267 1110 233 1136 b 196 1193 217 1185 208 1193 l 151 1193 b 122 1160 133 1193 122 1181 z m 243 438 l 325 472 l 331 560 b 343 708 335 624 336 708 b 381 478 350 708 375 557 l 463 453 b 356 451 438 454 393 451 b 243 438 300 451 285 446 z "},"â":{"ha":707,"x_min":0,"x_max":0,"o":"m 238 0 b 343 42 293 4 325 18 b 358 192 376 79 365 154 l 274 196 l 435 215 b 532 0 450 136 428 -4 b 742 133 679 7 744 47 b 599 515 738 196 660 307 b 476 906 550 696 532 871 b 293 935 447 925 375 935 b 58 865 190 935 58 919 b 100 668 58 794 49 663 l 225 682 l 125 653 l 71 415 b -33 374 29 408 -26 415 b 11 133 -42 335 -17 147 l 44 133 l 49 207 b 96 36 54 156 49 78 b 238 0 138 4 185 -4 z m 115 1083 b 149 1051 115 1067 129 1051 l 249 1051 b 272 1067 258 1051 268 1057 b 306 1144 286 1099 296 1125 l 338 1067 b 361 1051 342 1057 351 1051 l 461 1051 b 494 1083 481 1051 494 1067 b 429 1246 494 1088 493 1093 b 406 1261 425 1256 415 1261 l 306 1261 b 304 1261 306 1261 306 1261 l 204 1261 b 181 1246 194 1261 185 1256 b 115 1083 117 1093 115 1088 z m 243 438 l 325 472 l 331 560 b 343 708 335 624 336 708 b 381 478 350 708 375 557 l 463 453 b 356 451 438 454 393 451 b 243 438 300 451 285 446 z "},"ä":{"ha":707,"x_min":0,"x_max":0,"o":"m 238 0 b 343 42 293 4 325 18 b 358 192 376 79 365 154 l 274 196 l 435 215 b 532 0 450 136 428 -4 b 742 133 679 7 744 47 b 599 515 738 196 660 307 b 476 906 550 696 532 871 b 293 935 447 925 375 935 b 58 865 190 935 58 919 b 100 668 58 794 49 663 l 225 682 l 125 653 l 71 415 b -33 374 29 408 -26 415 b 11 133 -42 335 -17 147 l 44 133 l 49 207 b 96 36 54 156 49 78 b 238 0 138 4 185 -4 z m 117 1093 b 199 1011 117 1047 153 1011 b 281 1093 244 1011 281 1047 b 199 1175 281 1139 244 1175 b 117 1093 153 1175 117 1139 z m 243 438 l 325 472 l 331 560 b 343 708 335 624 336 708 b 381 478 350 708 375 557 l 463 453 b 356 451 438 454 393 451 b 243 438 300 451 285 446 z m 335 1093 b 417 1011 335 1047 371 1011 b 499 1093 463 1011 499 1047 b 417 1175 499 1139 463 1175 b 335 1093 371 1175 335 1139 z "},"à":{"ha":707,"x_min":0,"x_max":0,"o":"m 238 0 b 343 42 293 4 325 18 b 358 192 376 79 365 154 l 274 196 l 435 215 b 532 0 450 136 428 -4 b 742 133 679 7 744 47 b 599 515 738 196 660 307 b 476 906 550 696 532 871 b 293 935 447 925 375 935 b 58 865 190 935 58 919 b 100 668 58 794 49 663 l 225 682 l 125 653 l 71 415 b -33 374 29 408 -26 415 b 11 133 -42 335 -17 147 l 44 133 l 49 207 b 96 36 54 156 49 78 b 238 0 138 4 185 -4 z m 207 1183 b 217 1158 207 1175 210 1167 l 328 1019 b 346 1011 332 1014 339 1011 l 376 1011 b 410 1043 396 1011 410 1025 b 343 1206 410 1047 408 1053 b 319 1221 339 1215 329 1221 l 244 1218 b 207 1183 221 1217 207 1201 z m 243 438 l 325 472 l 331 560 b 343 708 335 624 336 708 b 381 478 350 708 375 557 l 463 453 b 356 451 438 454 393 451 b 243 438 300 451 285 446 z "},"ā":{"ha":707,"x_min":0,"x_max":0,"o":"m 238 0 b 343 42 293 4 325 18 b 358 192 376 79 365 154 l 274 196 l 435 215 b 532 0 450 136 428 -4 b 742 133 679 7 744 47 b 599 515 738 196 660 307 b 476 906 550 696 532 871 b 293 935 447 925 375 935 b 58 865 190 935 58 919 b 100 668 58 794 49 663 l 225 682 l 125 653 l 71 415 b -33 374 29 408 -26 415 b 11 133 -42 335 -17 147 l 44 133 l 49 207 b 96 36 54 156 49 78 b 238 0 138 4 185 -4 z m 111 1068 b 168 1011 111 1036 136 1011 l 449 1011 b 506 1068 481 1011 506 1036 l 506 1121 b 449 1178 506 1153 481 1178 l 168 1178 b 111 1121 136 1178 111 1153 z m 243 438 l 325 472 l 331 560 b 343 708 335 624 336 708 b 381 478 350 708 375 557 l 463 453 b 356 451 438 454 393 451 b 243 438 300 451 285 446 z "},"ą":{"ha":707,"x_min":0,"x_max":0,"o":"m 238 0 b 343 42 293 4 325 18 b 358 192 376 79 365 154 l 274 196 l 435 215 b 514 1 449 142 431 14 b 408 -149 450 -50 408 -101 b 590 -278 408 -237 493 -278 b 636 -235 619 -278 636 -260 l 636 -206 b 593 -164 636 -182 618 -165 b 533 -126 549 -161 533 -150 b 572 -44 533 -97 550 -71 b 585 -15 581 -35 585 -25 b 576 3 585 -8 582 -1 b 742 133 692 17 744 57 b 599 515 738 196 660 307 b 476 906 550 696 532 871 b 293 935 447 925 375 935 b 58 865 190 935 58 919 b 100 668 58 794 49 663 l 225 682 l 125 653 l 71 415 b -33 374 29 408 -26 415 b 11 133 -42 335 -17 147 l 44 133 l 49 207 b 96 36 54 156 49 78 b 238 0 138 4 185 -4 z m 243 438 l 325 472 l 331 560 b 343 708 335 624 336 708 b 381 478 350 708 375 557 l 463 453 b 356 451 438 454 393 451 b 243 438 300 451 285 446 z "},"å":{"ha":707,"x_min":0,"x_max":0,"o":"m 238 0 b 343 42 293 4 325 18 b 358 192 376 79 365 154 l 274 196 l 435 215 b 532 0 450 136 428 -4 b 742 133 679 7 744 47 b 599 515 738 196 660 307 b 476 906 550 696 532 871 b 293 935 447 925 375 935 b 58 865 190 935 58 919 b 100 668 58 794 49 663 l 225 682 l 125 653 l 71 415 b -33 374 29 408 -26 415 b 11 133 -42 335 -17 147 l 44 133 l 49 207 b 96 36 54 156 49 78 b 238 0 138 4 185 -4 z m 169 1149 b 308 1010 169 1072 232 1010 b 446 1149 383 1010 446 1072 b 308 1286 446 1224 383 1286 b 169 1149 232 1286 169 1224 z m 243 438 l 325 472 l 331 560 b 343 708 335 624 336 708 b 381 478 350 708 375 557 l 463 453 b 356 451 438 454 393 451 b 243 438 300 451 285 446 z m 271 1149 b 308 1185 271 1168 288 1185 b 344 1149 328 1185 344 1168 b 308 1111 344 1128 328 1111 b 271 1149 288 1111 271 1128 z "},"ã":{"ha":707,"x_min":0,"x_max":0,"o":"m 238 0 b 343 42 293 4 325 18 b 358 192 376 79 365 154 l 274 196 l 435 215 b 532 0 450 136 428 -4 b 742 133 679 7 744 47 b 599 515 738 196 660 307 b 476 906 550 696 532 871 b 293 935 447 925 375 935 b 58 865 190 935 58 919 b 100 668 58 794 49 663 l 225 682 l 125 653 l 71 415 b -33 374 29 408 -26 415 b 11 133 -42 335 -17 147 l 44 133 l 49 207 b 96 36 54 156 49 78 b 238 0 138 4 185 -4 z m 94 1011 l 178 1011 b 238 1099 178 1046 199 1099 b 389 1001 279 1099 311 1001 b 522 1168 449 1001 522 1074 l 439 1168 b 389 1085 439 1125 413 1085 b 238 1182 353 1085 318 1182 b 94 1011 171 1182 94 1111 z m 243 438 l 325 472 l 331 560 b 343 708 335 624 336 708 b 381 478 350 708 375 557 l 463 453 b 356 451 438 454 393 451 b 243 438 300 451 285 446 z "},"æ":{"ha":1157,"x_min":0,"x_max":0,"o":"m 238 0 b 343 42 293 4 325 18 b 358 192 376 79 365 154 l 274 196 l 435 215 b 532 0 450 136 428 -4 b 578 4 549 1 564 1 b 1165 61 740 1 1126 22 b 1124 375 1211 106 1196 386 l 849 331 l 840 375 b 946 403 876 375 926 381 b 903 606 981 422 958 610 l 771 596 l 764 632 b 1033 628 856 640 990 611 b 1038 917 1094 651 1119 882 b 721 963 1003 932 851 964 b 394 929 586 961 456 950 b 293 935 364 933 329 935 b 58 865 190 935 58 919 b 100 668 58 794 49 663 l 225 682 l 125 653 l 71 415 b -33 374 29 408 -26 415 b 11 133 -42 335 -17 147 l 44 133 l 49 207 b 96 36 54 156 49 78 b 238 0 138 4 185 -4 z m 243 438 l 325 472 l 331 560 b 343 708 335 624 336 708 b 381 478 350 708 375 557 l 463 453 b 356 451 438 454 393 451 b 243 438 300 451 285 446 z "},"b":{"ha":747,"x_min":0,"x_max":0,"o":"m 360 0 b 769 183 501 4 706 26 b 564 518 833 339 635 503 l 411 497 l 586 538 b 581 793 651 600 656 711 b 8 946 476 913 260 967 b 68 615 -103 935 35 593 l 160 675 l 111 611 l 194 310 l 275 301 b 160 278 238 293 201 289 b 94 132 121 268 82 233 b 360 0 104 33 94 -7 z m 279 664 b 415 650 333 675 400 689 b 375 579 431 607 411 589 l 346 664 z m 375 278 l 438 304 l 415 382 b 504 318 501 407 531 360 b 375 278 486 293 431 282 z "},"c":{"ha":632,"x_min":0,"x_max":0,"o":"m 351 1 b 646 468 583 15 721 263 l 379 419 b 344 328 360 415 372 328 b 296 618 286 328 224 618 b 394 497 326 618 363 519 b 615 603 428 475 624 569 b 594 929 608 636 601 857 b 383 944 592 963 419 944 b 378 793 333 944 361 854 b 151 949 360 844 301 960 b -35 446 17 939 -40 626 b 351 1 -26 210 151 -11 z "},"ć":{"ha":632,"x_min":0,"x_max":0,"o":"m 351 1 b 646 468 583 15 721 263 l 379 419 b 344 328 360 415 372 328 b 296 618 286 328 224 618 b 394 497 326 618 363 519 b 615 603 428 475 624 569 b 594 929 608 636 601 857 b 383 944 592 963 419 944 b 378 793 333 944 361 854 b 151 949 360 844 301 960 b -35 446 17 939 -40 626 b 351 1 -26 210 151 -11 z m 215 1031 b 249 999 215 1013 229 999 l 279 999 b 297 1007 286 999 293 1001 l 408 1146 b 418 1171 415 1154 418 1163 b 381 1206 418 1189 404 1204 l 306 1208 b 282 1193 296 1208 286 1203 b 215 1031 217 1040 215 1035 z "},"č":{"ha":632,"x_min":0,"x_max":0,"o":"m 351 1 b 646 468 583 15 721 263 l 379 419 b 344 328 360 415 372 328 b 296 618 286 328 224 618 b 394 497 326 618 363 519 b 615 603 428 475 624 569 b 594 929 608 636 601 857 b 383 944 592 963 419 944 b 378 793 333 944 361 854 b 151 949 360 844 301 960 b -35 446 17 939 -40 626 b 351 1 -26 210 151 -11 z m 131 1217 b 196 1054 131 1213 132 1207 b 219 1039 200 1044 210 1039 l 319 1039 b 319 1039 319 1039 319 1039 l 421 1039 b 444 1054 431 1039 440 1044 b 510 1217 508 1207 510 1213 b 476 1249 510 1233 496 1249 l 376 1249 b 353 1233 367 1249 357 1243 b 321 1156 339 1201 329 1175 l 288 1233 b 264 1249 283 1243 274 1249 l 164 1249 b 131 1217 144 1249 131 1233 z "},"ç":{"ha":632,"x_min":0,"x_max":0,"o":"m 328 -332 b 492 -222 411 -332 492 -306 b 461 -136 492 -183 478 -154 b 356 -83 431 -104 394 -89 b 383 -19 382 -32 383 -25 b 376 4 383 -11 381 -3 b 646 468 593 33 718 269 l 379 419 b 344 328 360 415 372 328 b 296 618 286 328 224 618 b 394 497 326 618 363 519 b 615 603 428 475 624 569 b 594 929 608 636 601 857 b 383 944 592 963 419 944 b 378 793 333 944 361 854 b 151 949 360 844 301 960 b -35 446 17 939 -40 626 b 261 11 -28 246 101 57 b 254 -1 258 7 256 3 b 208 -117 224 -92 208 -111 b 249 -161 208 -140 224 -158 l 286 -165 b 339 -197 318 -169 339 -185 b 297 -217 339 -212 328 -217 b 214 -193 276 -217 244 -207 b 190 -187 206 -189 197 -187 b 142 -244 157 -187 142 -228 b 154 -271 142 -254 146 -264 b 328 -332 194 -307 236 -332 z "},"ċ":{"ha":632,"x_min":0,"x_max":0,"o":"m 351 1 b 646 468 583 15 721 263 l 379 419 b 344 328 360 415 372 328 b 296 618 286 328 224 618 b 394 497 326 618 363 519 b 615 603 428 475 624 569 b 594 929 608 636 601 857 b 383 944 592 963 419 944 b 378 793 333 944 361 854 b 151 949 360 844 301 960 b -35 446 17 939 -40 626 b 351 1 -26 210 151 -11 z m 235 1081 b 317 999 235 1035 271 999 b 399 1081 363 999 399 1035 b 317 1163 399 1126 363 1163 b 235 1081 271 1163 235 1126 z "},"d":{"ha":731,"x_min":0,"x_max":0,"o":"m 358 -3 b 725 213 500 3 656 60 b 564 800 810 396 761 629 b 8 939 449 893 258 963 b 68 610 -103 929 36 589 l 163 671 l 124 618 l 201 278 l 163 274 b 93 131 121 263 83 231 b 358 -3 106 31 93 -10 z m 324 647 b 518 431 422 647 518 554 b 376 279 518 364 476 279 b 449 318 406 285 425 299 l 397 607 b 324 647 390 622 358 633 z "},"ð":{"ha":647,"x_min":0,"x_max":0,"o":"m 242 0 b 682 461 458 0 682 150 b 551 842 682 593 625 729 b 607 906 597 860 608 872 b 494 965 604 944 578 993 l 465 956 b 254 1111 383 1050 299 1111 b 36 913 149 1111 36 1028 b 90 826 36 894 58 863 b 0 751 31 806 -3 789 b 111 693 6 713 42 669 l 185 718 b 226 668 200 701 214 683 b 458 490 358 640 428 542 b 226 646 386 594 276 646 b -137 340 11 646 -137 553 b 242 0 -137 131 26 0 z m 208 304 b 229 450 208 322 214 368 b 251 300 246 368 251 317 b 229 188 251 233 238 188 b 208 304 221 188 208 233 z "},"ď":{"ha":731,"x_min":0,"x_max":0,"o":"m 358 -3 b 725 213 500 3 656 60 b 564 800 810 396 761 629 b 8 939 449 893 258 963 b 68 610 -103 929 36 589 l 163 671 l 124 618 l 201 278 l 163 274 b 93 131 121 263 83 231 b 358 -3 106 31 93 -10 z m 324 647 b 518 431 422 647 518 554 b 376 279 518 364 476 279 b 449 318 406 285 425 299 l 397 607 b 324 647 390 622 358 633 z m 731 965 b 761 935 731 949 743 935 l 831 935 b 854 951 842 935 850 940 l 929 1150 b 932 1163 931 1154 932 1158 b 899 1193 932 1181 918 1193 l 800 1193 b 775 1172 788 1193 778 1186 l 732 972 b 731 965 732 969 731 967 z "},"đ":{"ha":731,"x_min":0,"x_max":0,"o":"m 358 -3 b 725 213 500 3 656 60 b 765 408 753 274 767 340 b 843 485 833 417 844 447 b 740 544 840 522 819 549 b 564 800 710 636 651 724 b 8 939 449 893 258 963 b 68 610 -103 929 36 589 l 163 671 l 124 618 l 201 278 l 163 274 b 93 131 121 263 83 231 b 358 -3 106 31 93 -10 z m 324 647 b 497 526 394 647 464 599 b 426 451 446 515 424 486 b 514 393 432 417 456 394 b 376 279 501 336 458 279 b 449 318 406 285 425 299 l 397 607 b 324 647 390 622 358 633 z "},"e":{"ha":765,"x_min":0,"x_max":0,"o":"m 122 7 b 774 61 194 -6 728 15 b 732 375 819 106 804 386 l 457 331 l 449 375 b 554 403 485 375 535 381 b 511 606 589 422 567 610 l 379 596 l 372 632 b 642 628 464 640 599 611 b 646 917 703 651 728 882 b 329 963 611 932 460 964 b -35 901 144 960 -33 940 b 11 664 -39 835 -19 682 l 157 678 l 104 646 b 139 296 104 465 117 422 b 57 246 111 296 57 293 b 122 7 57 196 51 18 z "},"é":{"ha":765,"x_min":0,"x_max":0,"o":"m 122 7 b 774 61 194 -6 728 15 b 732 375 819 106 804 386 l 457 331 l 449 375 b 554 403 485 375 535 381 b 511 606 589 422 567 610 l 379 596 l 372 632 b 642 628 464 640 599 611 b 646 917 703 651 728 882 b 329 963 611 932 460 964 b -35 901 144 960 -33 940 b 11 664 -39 835 -19 682 l 157 678 l 104 646 b 139 296 104 465 117 422 b 57 246 111 296 57 293 b 122 7 57 196 51 18 z m 282 1078 b 315 1046 282 1060 296 1046 l 346 1046 b 364 1054 353 1046 360 1049 l 475 1193 b 485 1218 482 1201 485 1210 b 447 1253 485 1236 471 1251 l 372 1256 b 349 1240 363 1256 353 1250 b 282 1078 283 1088 282 1082 z "},"ě":{"ha":765,"x_min":0,"x_max":0,"o":"m 122 7 b 774 61 194 -6 728 15 b 732 375 819 106 804 386 l 457 331 l 449 375 b 554 403 485 375 535 381 b 511 606 589 422 567 610 l 379 596 l 372 632 b 642 628 464 640 599 611 b 646 917 703 651 728 882 b 329 963 611 932 460 964 b -35 901 144 960 -33 940 b 11 664 -39 835 -19 682 l 157 678 l 104 646 b 139 296 104 465 117 422 b 57 246 111 296 57 293 b 122 7 57 196 51 18 z m 197 1264 b 263 1101 197 1260 199 1254 b 286 1086 267 1092 276 1086 l 386 1086 b 386 1086 386 1086 386 1086 l 488 1086 b 511 1101 497 1086 507 1092 b 576 1264 575 1254 576 1260 b 543 1296 576 1281 563 1296 l 443 1296 b 419 1281 433 1296 424 1290 b 388 1203 406 1249 396 1222 l 354 1281 b 331 1296 350 1290 340 1296 l 231 1296 b 197 1264 211 1296 197 1281 z "},"ê":{"ha":765,"x_min":0,"x_max":0,"o":"m 122 7 b 774 61 194 -6 728 15 b 732 375 819 106 804 386 l 457 331 l 449 375 b 554 403 485 375 535 381 b 511 606 589 422 567 610 l 379 596 l 372 632 b 642 628 464 640 599 611 b 646 917 703 651 728 882 b 329 963 611 932 460 964 b -35 901 144 960 -33 940 b 11 664 -39 835 -19 682 l 157 678 l 104 646 b 139 296 104 465 117 422 b 57 246 111 296 57 293 b 122 7 57 196 51 18 z m 190 1118 b 224 1086 190 1101 204 1086 l 324 1086 b 347 1101 333 1086 343 1092 b 381 1179 361 1133 371 1160 l 413 1101 b 436 1086 417 1092 426 1086 l 536 1086 b 569 1118 556 1086 569 1101 b 504 1281 569 1122 568 1128 b 481 1296 500 1290 490 1296 l 381 1296 b 379 1296 381 1296 381 1296 l 279 1296 b 256 1281 269 1296 260 1290 b 190 1118 192 1128 190 1122 z "},"ë":{"ha":765,"x_min":0,"x_max":0,"o":"m 122 7 b 774 61 194 -6 728 15 b 732 375 819 106 804 386 l 457 331 l 449 375 b 554 403 485 375 535 381 b 511 606 589 422 567 610 l 379 596 l 372 632 b 642 628 464 640 599 611 b 646 917 703 651 728 882 b 329 963 611 932 460 964 b -35 901 144 960 -33 940 b 11 664 -39 835 -19 682 l 157 678 l 104 646 b 139 296 104 465 117 422 b 57 246 111 296 57 293 b 122 7 57 196 51 18 z m 192 1128 b 274 1046 192 1082 228 1046 b 356 1128 319 1046 356 1082 b 274 1210 356 1174 319 1210 b 192 1128 228 1210 192 1174 z m 410 1128 b 492 1046 410 1082 446 1046 b 574 1128 538 1046 574 1082 b 492 1210 574 1174 538 1210 b 410 1128 446 1210 410 1174 z "},"ė":{"ha":765,"x_min":0,"x_max":0,"o":"m 122 7 b 774 61 194 -6 728 15 b 732 375 819 106 804 386 l 457 331 l 449 375 b 554 403 485 375 535 381 b 511 606 589 422 567 610 l 379 596 l 372 632 b 642 628 464 640 599 611 b 646 917 703 651 728 882 b 329 963 611 932 460 964 b -35 901 144 960 -33 940 b 11 664 -39 835 -19 682 l 157 678 l 104 646 b 139 296 104 465 117 422 b 57 246 111 296 57 293 b 122 7 57 196 51 18 z m 301 1128 b 383 1046 301 1082 338 1046 b 465 1128 429 1046 465 1082 b 383 1210 465 1174 429 1210 b 301 1128 338 1210 301 1174 z "},"è":{"ha":765,"x_min":0,"x_max":0,"o":"m 122 7 b 774 61 194 -6 728 15 b 732 375 819 106 804 386 l 457 331 l 449 375 b 554 403 485 375 535 381 b 511 606 589 422 567 610 l 379 596 l 372 632 b 642 628 464 640 599 611 b 646 917 703 651 728 882 b 329 963 611 932 460 964 b -35 901 144 960 -33 940 b 11 664 -39 835 -19 682 l 157 678 l 104 646 b 139 296 104 465 117 422 b 57 246 111 296 57 293 b 122 7 57 196 51 18 z m 282 1218 b 292 1193 282 1210 285 1201 l 403 1054 b 421 1046 407 1049 414 1046 l 451 1046 b 485 1078 471 1046 485 1060 b 418 1240 485 1082 483 1088 b 394 1256 414 1250 404 1256 l 319 1253 b 282 1218 296 1251 282 1236 z "},"ē":{"ha":765,"x_min":0,"x_max":0,"o":"m 122 7 b 774 61 194 -6 728 15 b 732 375 819 106 804 386 l 457 331 l 449 375 b 554 403 485 375 535 381 b 511 606 589 422 567 610 l 379 596 l 372 632 b 642 628 464 640 599 611 b 646 917 703 651 728 882 b 329 963 611 932 460 964 b -35 901 144 960 -33 940 b 11 664 -39 835 -19 682 l 157 678 l 104 646 b 139 296 104 465 117 422 b 57 246 111 296 57 293 b 122 7 57 196 51 18 z m 186 1103 b 243 1046 186 1071 211 1046 l 524 1046 b 581 1103 556 1046 581 1071 l 581 1156 b 524 1213 581 1188 556 1213 l 243 1213 b 186 1156 211 1213 186 1188 z "},"ę":{"ha":765,"x_min":0,"x_max":0,"o":"m 122 7 b 774 61 194 -6 728 15 b 732 375 819 106 804 386 l 457 331 l 449 375 b 554 403 485 375 535 381 b 511 606 589 422 567 610 l 379 596 l 372 632 b 642 628 464 640 599 611 b 646 917 703 651 728 882 b 329 963 611 932 460 964 b -35 901 144 960 -33 940 b 11 664 -39 835 -19 682 l 157 678 l 104 646 b 139 296 104 465 117 422 b 57 246 111 296 57 293 b 122 7 57 196 51 18 z m 461 -149 b 643 -278 461 -237 546 -278 b 689 -235 672 -278 689 -260 l 689 -206 b 646 -164 689 -182 671 -165 b 586 -126 601 -161 586 -150 b 625 -44 586 -97 603 -71 b 638 -15 633 -35 638 -25 b 594 14 638 1 621 14 b 574 7 588 14 581 11 b 461 -149 506 -46 461 -100 z "},"ẽ":{"ha":765,"x_min":0,"x_max":0,"o":"m 122 7 b 774 61 194 -6 728 15 b 732 375 819 106 804 386 l 457 331 l 449 375 b 554 403 485 375 535 381 b 511 606 589 422 567 610 l 379 596 l 372 632 b 642 628 464 640 599 611 b 646 917 703 651 728 882 b 329 963 611 932 460 964 b -35 901 144 960 -33 940 b 11 664 -39 835 -19 682 l 157 678 l 104 646 b 139 296 104 465 117 422 b 57 246 111 296 57 293 b 122 7 57 196 51 18 z m 169 1046 l 253 1046 b 313 1133 253 1081 274 1133 b 464 1036 354 1133 386 1036 b 597 1203 524 1036 597 1108 l 514 1203 b 464 1119 514 1160 488 1119 b 313 1217 428 1119 393 1217 b 169 1046 246 1217 169 1146 z "},"ə":{"ha":765,"x_min":0,"x_max":0,"o":"m 643 938 b -8 883 571 950 38 929 b 33 569 -54 839 -39 558 l 308 614 l 317 569 b 211 542 281 569 231 564 b 254 339 176 522 199 335 l 386 349 l 393 313 b 124 317 301 304 167 333 b 119 28 63 293 38 63 b 436 -18 154 13 306 -19 b 800 43 621 -15 799 4 b 754 281 804 110 785 263 l 608 267 l 661 299 b 626 649 661 479 649 522 b 708 699 654 649 708 651 b 643 938 708 749 714 926 z "},"f":{"ha":618,"x_min":0,"x_max":0,"o":"m 103 -3 b 365 88 272 -17 371 33 l 299 443 l 344 329 b 511 325 396 322 493 310 b 507 539 524 333 585 506 b 568 549 526 539 547 542 b 539 906 667 581 706 906 b 88 925 371 906 132 936 b -19 739 38 914 -4 840 b 64 526 -33 642 -68 542 b 103 -3 42 360 -68 14 z m 304 532 l 308 594 b 471 543 364 585 414 554 z "},"g":{"ha":642,"x_min":0,"x_max":0,"o":"m 418 14 b 635 482 765 104 675 464 b 208 371 594 500 211 390 b 276 175 204 349 258 193 b 447 228 294 157 389 208 l 303 135 b 181 381 235 93 179 353 b 297 443 186 408 258 421 b 303 590 288 457 272 581 b 411 479 331 603 389 482 b 625 550 431 476 621 536 b 603 925 629 565 617 903 b 357 921 588 944 363 926 b 381 783 349 913 375 831 b 125 939 357 863 288 972 b -35 494 21 917 -29 699 b 418 14 -42 286 69 -76 z "},"ğ":{"ha":642,"x_min":0,"x_max":0,"o":"m 418 14 b 635 482 765 104 675 464 b 208 371 594 500 211 390 b 276 175 204 349 258 193 b 447 228 294 157 389 208 l 303 135 b 181 381 235 93 179 353 b 297 443 186 408 258 421 b 303 590 288 457 272 581 b 411 479 331 603 389 482 b 625 550 431 476 621 536 b 603 925 629 565 617 903 b 357 921 588 944 363 926 b 381 783 349 913 375 831 b 125 939 357 863 288 972 b -35 494 21 917 -29 699 b 418 14 -42 286 69 -76 z m 135 1083 b 321 935 135 997 229 935 b 506 1083 411 935 506 997 b 476 1117 506 1101 494 1117 l 432 1117 b 407 1096 419 1117 411 1108 b 321 1033 394 1060 361 1033 b 233 1096 279 1033 246 1060 b 208 1117 229 1108 221 1117 l 164 1117 b 135 1083 146 1117 135 1104 z "},"ģ":{"ha":642,"x_min":0,"x_max":0,"o":"m 418 14 b 635 482 765 104 675 464 b 208 371 594 500 211 390 b 276 175 204 349 258 193 b 447 228 294 157 389 208 l 303 135 b 181 381 235 93 179 353 b 297 443 186 408 258 421 b 303 590 288 457 272 581 b 411 479 331 603 389 482 b 625 550 431 476 621 536 b 603 925 629 565 617 903 b 357 921 588 944 363 926 b 381 783 349 913 375 831 b 125 939 357 863 288 972 b -35 494 21 917 -29 699 b 418 14 -42 286 69 -76 z m 250 963 b 278 935 250 947 263 935 l 363 935 b 390 963 378 935 390 947 l 390 1046 b 363 1074 390 1061 378 1074 l 349 1074 b 333 1079 343 1074 338 1075 b 324 1126 325 1089 324 1101 b 333 1178 324 1142 333 1164 b 321 1192 333 1186 329 1192 b 250 1074 292 1192 250 1115 z "},"ġ":{"ha":642,"x_min":0,"x_max":0,"o":"m 418 14 b 635 482 765 104 675 464 b 208 371 594 500 211 390 b 276 175 204 349 258 193 b 447 228 294 157 389 208 l 303 135 b 181 381 235 93 179 353 b 297 443 186 408 258 421 b 303 590 288 457 272 581 b 411 479 331 603 389 482 b 625 550 431 476 621 536 b 603 925 629 565 617 903 b 357 921 588 944 363 926 b 381 783 349 913 375 831 b 125 939 357 863 288 972 b -35 494 21 917 -29 699 b 418 14 -42 286 69 -76 z m 239 1017 b 321 935 239 971 275 935 b 403 1017 367 935 403 971 b 321 1099 403 1063 367 1099 b 239 1017 275 1099 239 1063 z "},"h":{"ha":893,"x_min":0,"x_max":0,"o":"m 603 18 b 918 68 661 -19 886 18 b 849 475 949 115 897 271 b 703 926 813 632 735 919 b 513 890 651 940 519 926 b 526 644 497 806 519 732 l 399 618 b 321 919 376 718 364 890 b -35 890 269 956 -31 933 b 39 632 -39 846 14 640 l 189 667 l 111 622 b 104 292 104 517 108 396 b 131 28 101 186 101 54 b 468 43 160 1 443 -24 b 460 365 493 113 464 307 l 531 379 b 603 18 556 256 564 43 z "},"i":{"ha":354,"x_min":0,"x_max":0,"o":"m 133 3 b 386 132 317 -1 406 21 b 257 925 368 242 286 915 b 100 915 226 938 122 940 b -33 186 51 844 -29 315 b 133 3 -36 58 -51 6 z "},"ı":{"ha":354,"x_min":0,"x_max":0,"o":"m 133 3 b 386 132 317 -1 406 21 b 257 925 368 242 286 915 b 100 915 226 938 122 940 b -33 186 51 844 -29 315 b 133 3 -36 58 -51 6 z "},"í":{"ha":354,"x_min":0,"x_max":0,"o":"m 133 3 b 386 132 317 -1 406 21 b 257 925 368 242 286 915 b 100 915 226 938 122 940 b -33 186 51 844 -29 315 b 133 3 -36 58 -51 6 z m 60 1078 b 93 1046 60 1060 74 1046 l 124 1046 b 142 1054 131 1046 138 1049 l 253 1193 b 263 1218 260 1201 263 1210 b 225 1253 263 1236 249 1251 l 150 1256 b 126 1240 140 1256 131 1250 b 60 1078 61 1088 60 1082 z "},"î":{"ha":354,"x_min":0,"x_max":0,"o":"m 133 3 b 386 132 317 -1 406 21 b 257 925 368 242 286 915 b 100 915 226 938 122 940 b -33 186 51 844 -29 315 b 133 3 -36 58 -51 6 z m -32 1118 b 1 1086 -32 1101 -18 1086 l 101 1086 b 125 1101 111 1086 121 1092 b 157 1179 139 1133 149 1160 l 190 1101 b 214 1086 194 1092 204 1086 l 314 1086 b 347 1118 333 1086 347 1101 b 282 1281 347 1122 346 1128 b 258 1296 278 1290 268 1296 l 158 1296 b 158 1296 158 1296 158 1296 l 57 1296 b 33 1281 47 1296 38 1290 b -32 1118 -31 1128 -32 1122 z "},"ï":{"ha":354,"x_min":0,"x_max":0,"o":"m 133 3 b 386 132 317 -1 406 21 b 257 925 368 242 286 915 b 100 915 226 938 122 940 b -33 186 51 844 -29 315 b 133 3 -36 58 -51 6 z m -31 1128 b 51 1046 -31 1082 6 1046 b 133 1128 97 1046 133 1082 b 51 1210 133 1174 97 1210 b -31 1128 6 1210 -31 1174 z m 188 1128 b 269 1046 188 1082 224 1046 b 351 1128 315 1046 351 1082 b 269 1210 351 1174 315 1210 b 188 1128 224 1210 188 1174 z "},"ì":{"ha":354,"x_min":0,"x_max":0,"o":"m 133 3 b 386 132 317 -1 406 21 b 257 925 368 242 286 915 b 100 915 226 938 122 940 b -33 186 51 844 -29 315 b 133 3 -36 58 -51 6 z m 60 1218 b 69 1193 60 1210 63 1201 l 181 1054 b 199 1046 185 1049 192 1046 l 229 1046 b 263 1078 249 1046 263 1060 b 196 1240 263 1082 261 1088 b 172 1256 192 1250 182 1256 l 97 1253 b 60 1218 74 1251 60 1236 z "},"ĳ":{"ha":926,"x_min":0,"x_max":0,"o":"m 133 3 b 389 104 300 -1 389 17 b 621 -1 433 40 507 -4 b 929 607 993 11 993 339 b 810 931 871 843 857 926 b 418 893 760 935 451 942 b 513 622 369 765 460 618 b 736 682 586 626 678 663 l 678 629 b 658 254 711 479 725 261 b 550 486 567 243 575 468 b 339 508 522 506 361 528 b 335 501 338 507 336 504 b 257 925 306 707 274 919 b 100 915 226 938 122 940 b -33 186 51 844 -29 315 b 133 3 -36 58 -51 6 z "},"ī":{"ha":354,"x_min":0,"x_max":0,"o":"m 133 3 b 386 132 317 -1 406 21 b 257 925 368 242 286 915 b 100 915 226 938 122 940 b -33 186 51 844 -29 315 b 133 3 -36 58 -51 6 z m -36 1103 b 21 1046 -36 1071 -11 1046 l 301 1046 b 358 1103 333 1046 358 1071 l 358 1156 b 301 1213 358 1188 333 1213 l 21 1213 b -36 1156 -11 1213 -36 1188 z "},"į":{"ha":354,"x_min":0,"x_max":0,"o":"m 133 3 b 386 132 317 -1 406 21 b 257 925 368 242 286 915 b 100 915 226 938 122 940 b -33 186 51 844 -29 315 b 133 3 -36 58 -51 6 z m 79 1128 b 161 1046 79 1082 115 1046 b 243 1128 207 1046 243 1082 b 161 1210 243 1174 207 1210 b 79 1128 115 1210 79 1174 z m 522 -149 b 704 -278 522 -237 607 -278 b 750 -235 733 -278 750 -260 l 750 -206 b 707 -164 750 -182 732 -165 b 647 -126 663 -161 647 -150 b 686 -44 647 -97 664 -71 b 699 -15 694 -35 699 -25 b 656 14 699 1 682 14 b 635 7 649 14 642 11 b 522 -149 567 -46 522 -100 z "},"ĩ":{"ha":354,"x_min":0,"x_max":0,"o":"m 133 3 b 386 132 317 -1 406 21 b 257 925 368 242 286 915 b 100 915 226 938 122 940 b -33 186 51 844 -29 315 b 133 3 -36 58 -51 6 z m -53 1046 l 31 1046 b 90 1133 31 1081 51 1133 b 242 1036 132 1133 164 1036 b 375 1203 301 1036 375 1108 l 292 1203 b 242 1119 292 1160 265 1119 b 90 1217 206 1119 171 1217 b -53 1046 24 1217 -53 1146 z "},"j":{"ha":572,"x_min":0,"x_max":0,"o":"m 267 -1 b 575 607 639 11 639 339 b 456 931 517 843 503 926 b 64 893 406 935 97 942 b 158 622 15 765 106 618 b 382 682 232 626 324 663 l 324 629 b 304 254 357 479 371 261 b 196 486 213 243 221 468 b -15 508 168 506 7 528 b 267 -1 -36 490 -106 -12 z "},"ȷ":{"ha":572,"x_min":0,"x_max":0,"o":"m 267 -1 b 575 607 639 11 639 339 b 456 931 517 843 503 926 b 64 893 406 935 97 942 b 158 622 15 765 106 618 b 382 682 232 626 324 663 l 324 629 b 304 254 357 479 371 261 b 196 486 213 243 221 468 b -15 508 168 506 7 528 b 267 -1 -36 490 -106 -12 z "},"k":{"ha":789,"x_min":0,"x_max":0,"o":"m 463 -4 b 824 100 508 -21 824 64 b 714 286 824 135 788 204 b 513 464 640 368 590 414 b 714 763 581 531 658 608 b 542 933 764 897 625 922 b 411 792 457 944 446 901 b 318 597 375 682 361 657 b 343 838 300 569 333 774 b 121 944 354 901 258 922 b -35 782 -18 964 -35 874 b 47 633 -35 689 11 626 b 167 668 82 639 128 657 l 75 608 l 39 474 b 24 21 13 375 -11 42 b 329 15 60 -1 288 -1 b 336 336 372 35 336 229 l 240 378 b 361 325 300 371 336 360 b 463 -4 400 269 418 14 z "},"ķ":{"ha":789,"x_min":0,"x_max":0,"o":"m 463 -4 b 824 100 508 -21 824 64 b 714 286 824 135 788 204 b 513 464 640 368 590 414 b 714 763 581 531 658 608 b 542 933 764 897 625 922 b 411 792 457 944 446 901 b 318 597 375 682 361 657 b 343 838 300 569 333 774 b 121 944 354 901 258 922 b -35 782 -18 964 -35 874 b 47 633 -35 689 11 626 b 167 668 82 639 128 657 l 75 608 l 39 474 b 24 21 13 375 -11 42 b 329 15 60 -1 288 -1 b 336 336 372 35 336 229 l 240 378 b 361 325 300 371 336 360 b 463 -4 400 269 418 14 z m 301 -296 b 344 -333 301 -317 322 -333 l 392 -333 b 432 -299 413 -333 425 -318 b 488 -117 465 -210 488 -146 b 443 -74 488 -93 469 -74 l 372 -74 b 329 -117 349 -74 333 -93 b 301 -296 301 -292 301 -294 z "},"l":{"ha":643,"x_min":0,"x_max":0,"o":"m 150 0 b 667 135 189 0 617 103 b 532 443 717 167 582 436 b 313 368 482 450 388 393 l 418 850 b 125 932 431 908 164 946 b 18 567 86 917 47 729 b -35 121 -10 404 -37 181 b 150 0 -31 60 111 0 z "},"ĺ":{"ha":643,"x_min":0,"x_max":0,"o":"m 150 0 b 667 135 189 0 617 103 b 532 443 717 167 582 436 b 313 368 482 450 388 393 l 418 850 b 125 932 431 908 164 946 b 18 567 86 917 47 729 b -35 121 -10 404 -37 181 b 150 0 -31 60 111 0 z m 189 1078 b 222 1046 189 1060 203 1046 l 253 1046 b 271 1054 260 1046 267 1049 l 382 1193 b 392 1218 389 1201 392 1210 b 354 1253 392 1236 378 1251 l 279 1256 b 256 1240 269 1256 260 1250 b 189 1078 190 1088 189 1082 z "},"ľ":{"ha":643,"x_min":0,"x_max":0,"o":"m 150 0 b 667 135 189 0 617 103 b 532 443 717 167 582 436 b 313 368 482 450 388 393 l 418 850 b 125 932 431 908 164 946 b 18 567 86 917 47 729 b -35 121 -10 404 -37 181 b 150 0 -31 60 111 0 z m 413 660 b 443 629 413 643 425 629 l 513 629 b 536 646 524 629 532 635 l 611 844 b 614 857 613 849 614 853 b 581 888 614 875 600 888 l 482 888 b 457 867 469 888 460 881 l 414 667 b 413 660 414 664 413 661 z "},"ļ":{"ha":643,"x_min":0,"x_max":0,"o":"m 150 0 b 667 135 189 0 617 103 b 532 443 717 167 582 436 b 313 368 482 450 388 393 l 418 850 b 125 932 431 908 164 946 b 18 567 86 917 47 729 b -35 121 -10 404 -37 181 b 150 0 -31 60 111 0 z m 229 -296 b 272 -333 229 -317 250 -333 l 319 -333 b 360 -299 340 -333 353 -318 b 415 -117 393 -210 415 -146 b 371 -74 415 -93 397 -74 l 300 -74 b 257 -117 276 -74 261 -93 b 229 -296 229 -292 229 -294 z "},"ł":{"ha":435,"x_min":0,"x_max":0,"o":"m 164 3 b 467 156 383 -1 488 25 b 407 579 457 213 433 392 l 472 625 b 554 825 558 686 593 771 b 369 838 519 875 446 879 b 313 1100 347 983 325 1096 b 125 1088 276 1114 151 1118 b 13 590 92 1039 46 807 l -121 497 b -204 297 -207 436 -242 351 b -28 279 -172 250 -101 243 b -32 222 -31 257 -32 238 b 164 3 -36 68 -54 7 z "},"m":{"ha":890,"x_min":0,"x_max":0,"o":"m 369 4 b 444 232 457 15 460 133 l 358 450 b 493 267 406 383 450 267 b 624 510 547 267 589 424 l 550 253 b 594 4 561 176 557 7 b 919 43 631 0 894 4 b 825 601 947 86 858 481 b 678 933 796 711 739 933 b 518 900 586 933 528 918 l 460 618 b 333 907 417 724 385 893 b -32 876 282 922 -24 913 b -10 654 -39 839 -32 676 l 157 664 l 74 633 b 81 36 76 444 50 83 b 369 4 110 -11 308 -4 z "},"n":{"ha":814,"x_min":0,"x_max":0,"o":"m 482 11 b 771 21 524 -4 749 -4 b 790 411 793 47 771 206 b 849 882 814 650 853 842 b 568 933 844 922 590 942 b 493 624 546 926 497 642 l 542 442 b 313 931 464 604 393 933 b 50 908 253 933 75 949 b 8 375 24 867 28 571 b -32 75 -6 224 -47 117 b 308 13 -6 1 260 -21 b 308 468 360 46 335 297 b 482 11 368 319 442 25 z "},"ń":{"ha":814,"x_min":0,"x_max":0,"o":"m 482 11 b 771 21 524 -4 749 -4 b 790 411 793 47 771 206 b 849 882 814 650 853 842 b 568 933 844 922 590 942 b 493 624 546 926 497 642 l 542 442 b 313 931 464 604 393 933 b 50 908 253 933 75 949 b 8 375 24 867 28 571 b -32 75 -6 224 -47 117 b 308 13 -6 1 260 -21 b 308 468 360 46 335 297 b 482 11 368 319 442 25 z m 306 1078 b 339 1046 306 1060 319 1046 l 369 1046 b 388 1054 376 1046 383 1049 l 499 1193 b 508 1218 506 1201 508 1210 b 471 1253 508 1236 494 1251 l 396 1256 b 372 1240 386 1256 376 1250 b 306 1078 307 1088 306 1082 z "},"ň":{"ha":814,"x_min":0,"x_max":0,"o":"m 482 11 b 771 21 524 -4 749 -4 b 790 411 793 47 771 206 b 849 882 814 650 853 842 b 568 933 844 922 590 942 b 493 624 546 926 497 642 l 542 442 b 313 931 464 604 393 933 b 50 908 253 933 75 949 b 8 375 24 867 28 571 b -32 75 -6 224 -47 117 b 308 13 -6 1 260 -21 b 308 468 360 46 335 297 b 482 11 368 319 442 25 z m 221 1264 b 286 1101 221 1260 222 1254 b 310 1086 290 1092 300 1086 l 410 1086 b 410 1086 410 1086 410 1086 l 511 1086 b 535 1101 521 1086 531 1092 b 600 1264 599 1254 600 1260 b 567 1296 600 1281 586 1296 l 467 1296 b 443 1281 457 1296 447 1290 b 410 1203 429 1249 419 1222 l 378 1281 b 354 1296 374 1290 364 1296 l 254 1296 b 221 1264 235 1296 221 1281 z "},"ņ":{"ha":814,"x_min":0,"x_max":0,"o":"m 482 11 b 771 21 524 -4 749 -4 b 790 411 793 47 771 206 b 849 882 814 650 853 842 b 568 933 844 922 590 942 b 493 624 546 926 497 642 l 542 442 b 313 931 464 604 393 933 b 50 908 253 933 75 949 b 8 375 24 867 28 571 b -32 75 -6 224 -47 117 b 308 13 -6 1 260 -21 b 308 468 360 46 335 297 b 482 11 368 319 442 25 z m 314 -296 b 357 -333 314 -317 335 -333 l 404 -333 b 444 -299 425 -333 438 -318 b 500 -117 478 -210 500 -146 b 456 -74 500 -93 482 -74 l 385 -74 b 342 -117 361 -74 346 -93 b 314 -296 314 -292 314 -294 z "},"ñ":{"ha":814,"x_min":0,"x_max":0,"o":"m 482 11 b 771 21 524 -4 749 -4 b 790 411 793 47 771 206 b 849 882 814 650 853 842 b 568 933 844 922 590 942 b 493 624 546 926 497 642 l 542 442 b 313 931 464 604 393 933 b 50 908 253 933 75 949 b 8 375 24 867 28 571 b -32 75 -6 224 -47 117 b 308 13 -6 1 260 -21 b 308 468 360 46 335 297 b 482 11 368 319 442 25 z m 193 1046 l 276 1046 b 336 1133 276 1081 297 1133 b 488 1036 378 1133 410 1036 b 621 1203 547 1036 621 1108 l 538 1203 b 488 1119 538 1160 511 1119 b 336 1217 451 1119 417 1217 b 193 1046 269 1217 193 1146 z "},"o":{"ha":761,"x_min":0,"x_max":0,"o":"m 403 7 b 796 481 565 18 806 129 b 367 939 785 831 575 943 b -35 433 178 939 -49 801 b 403 7 -19 64 239 -4 z m 254 492 b 385 718 257 607 319 722 b 510 496 450 715 510 603 b 388 253 510 335 456 257 b 254 492 319 249 261 332 z "},"ó":{"ha":761,"x_min":0,"x_max":0,"o":"m 403 7 b 796 481 565 18 806 129 b 367 939 785 831 575 943 b -35 433 178 939 -49 801 b 403 7 -19 64 239 -4 z m 254 492 b 385 718 257 607 319 722 b 510 496 450 715 510 603 b 388 253 510 335 456 257 b 254 492 319 249 261 332 z m 279 1078 b 313 1046 279 1060 293 1046 l 343 1046 b 361 1054 350 1046 357 1049 l 472 1193 b 482 1218 479 1201 482 1210 b 444 1253 482 1236 468 1251 l 369 1256 b 346 1240 360 1256 350 1250 b 279 1078 281 1088 279 1082 z "},"ô":{"ha":761,"x_min":0,"x_max":0,"o":"m 403 7 b 796 481 565 18 806 129 b 367 939 785 831 575 943 b -35 433 178 939 -49 801 b 403 7 -19 64 239 -4 z m 188 1118 b 221 1086 188 1101 201 1086 l 321 1086 b 344 1101 331 1086 340 1092 b 376 1179 358 1133 368 1160 l 410 1101 b 433 1086 414 1092 424 1086 l 533 1086 b 567 1118 553 1086 567 1101 b 501 1281 567 1122 565 1128 b 478 1296 497 1290 488 1296 l 378 1296 b 378 1296 378 1296 378 1296 l 276 1296 b 253 1281 267 1296 257 1290 b 188 1118 189 1128 188 1122 z m 254 492 b 385 718 257 607 319 722 b 510 496 450 715 510 603 b 388 253 510 335 456 257 b 254 492 319 249 261 332 z "},"ö":{"ha":761,"x_min":0,"x_max":0,"o":"m 403 7 b 796 481 565 18 806 129 b 367 939 785 831 575 943 b -35 433 178 939 -49 801 b 403 7 -19 64 239 -4 z m 189 1128 b 271 1046 189 1082 225 1046 b 353 1128 317 1046 353 1082 b 271 1210 353 1174 317 1210 b 189 1128 225 1210 189 1174 z m 254 492 b 385 718 257 607 319 722 b 510 496 450 715 510 603 b 388 253 510 335 456 257 b 254 492 319 249 261 332 z m 407 1128 b 489 1046 407 1082 443 1046 b 571 1128 535 1046 571 1082 b 489 1210 571 1174 535 1210 b 407 1128 443 1210 407 1174 z "},"ò":{"ha":761,"x_min":0,"x_max":0,"o":"m 403 7 b 796 481 565 18 806 129 b 367 939 785 831 575 943 b -35 433 178 939 -49 801 b 403 7 -19 64 239 -4 z m 254 492 b 385 718 257 607 319 722 b 510 496 450 715 510 603 b 388 253 510 335 456 257 b 254 492 319 249 261 332 z m 279 1218 b 289 1193 279 1210 282 1201 l 400 1054 b 418 1046 404 1049 411 1046 l 449 1046 b 482 1078 468 1046 482 1060 b 415 1240 482 1082 481 1088 b 392 1256 411 1250 401 1256 l 317 1253 b 279 1218 293 1251 279 1236 z "},"ő":{"ha":761,"x_min":0,"x_max":0,"o":"m 403 7 b 796 481 565 18 806 129 b 367 939 785 831 575 943 b -35 433 178 939 -49 801 b 403 7 -19 64 239 -4 z m 190 1078 b 224 1046 190 1060 204 1046 l 254 1046 b 272 1054 261 1046 268 1049 l 383 1193 b 393 1218 390 1201 393 1210 b 356 1253 393 1236 379 1251 l 281 1256 b 257 1240 271 1256 261 1250 b 190 1078 192 1088 190 1082 z m 254 492 b 385 718 257 607 319 722 b 510 496 450 715 510 603 b 388 253 510 335 456 257 b 254 492 319 249 261 332 z m 368 1078 b 401 1046 368 1060 382 1046 l 432 1046 b 450 1054 439 1046 446 1049 l 561 1193 b 571 1218 568 1201 571 1210 b 533 1253 571 1236 557 1251 l 458 1256 b 435 1240 449 1256 439 1250 b 368 1078 369 1088 368 1082 z "},"ō":{"ha":761,"x_min":0,"x_max":0,"o":"m 403 7 b 796 481 565 18 806 129 b 367 939 785 831 575 943 b -35 433 178 939 -49 801 b 403 7 -19 64 239 -4 z m 183 1103 b 240 1046 183 1071 208 1046 l 521 1046 b 578 1103 553 1046 578 1071 l 578 1156 b 521 1213 578 1188 553 1213 l 240 1213 b 183 1156 208 1213 183 1188 z m 254 492 b 385 718 257 607 319 722 b 510 496 450 715 510 603 b 388 253 510 335 456 257 b 254 492 319 249 261 332 z "},"ø":{"ha":761,"x_min":0,"x_max":0,"o":"m 403 7 b 796 481 565 18 806 129 b 760 683 793 560 781 626 l 804 722 b 843 851 851 765 869 818 b 708 836 817 885 756 878 l 683 814 b 367 939 601 907 483 942 b -35 433 178 939 -49 801 b 13 218 -31 346 -14 275 l -14 194 b -54 63 -65 150 -82 97 b 79 81 -26 33 26 36 l 100 100 b 403 7 192 19 313 1 z m 254 492 b 385 718 257 607 319 722 b 479 632 421 717 456 682 l 258 438 b 254 492 257 454 256 472 z m 314 289 l 508 461 b 388 253 501 324 450 257 b 314 289 361 251 335 263 z "},"õ":{"ha":761,"x_min":0,"x_max":0,"o":"m 403 7 b 796 481 565 18 806 129 b 367 939 785 831 575 943 b -35 433 178 939 -49 801 b 403 7 -19 64 239 -4 z m 167 1046 l 250 1046 b 310 1133 250 1081 271 1133 b 461 1036 351 1133 383 1036 b 594 1203 521 1036 594 1108 l 511 1203 b 461 1119 511 1160 485 1119 b 310 1217 425 1119 390 1217 b 167 1046 243 1217 167 1146 z m 254 492 b 385 718 257 607 319 722 b 510 496 450 715 510 603 b 388 253 510 335 456 257 b 254 492 319 249 261 332 z "},"œ":{"ha":1453,"x_min":0,"x_max":0,"o":"m 483 8 b 651 49 535 13 593 25 b 697 8 663 26 676 11 b 1457 71 781 -7 1403 18 b 1408 438 1510 124 1493 451 l 1088 385 l 1078 438 b 1201 469 1121 438 1178 444 b 1151 706 1240 492 1215 710 l 997 694 l 990 738 b 1303 732 1096 747 1253 713 b 1308 1069 1375 760 1404 1029 b 938 1122 1268 1086 1092 1124 b 596 1094 806 1121 676 1111 b 442 1111 546 1107 494 1113 b -33 513 218 1111 -50 949 b 483 8 -15 76 292 -4 z m 278 319 b 397 319 349 313 397 319 b 310 581 358 364 314 467 b 463 850 313 718 385 854 b 611 586 540 844 611 713 b 467 299 611 396 543 314 b 278 319 429 292 369 283 z "},"p":{"ha":694,"x_min":0,"x_max":0,"o":"m 132 46 b 494 58 185 -56 449 17 b 442 322 542 101 490 232 b 729 600 599 325 724 383 b -8 914 744 1017 47 949 b 3 560 -61 878 -22 590 b 125 529 29 533 86 539 l 107 404 b 132 46 99 343 76 146 z m 375 585 b 461 565 406 590 461 597 b 385 508 461 533 426 508 z "},"þ":{"ha":833,"x_min":0,"x_max":0,"o":"m 136 -8 l 199 4 b 292 156 272 19 310 83 b 649 547 485 196 649 290 b 283 950 649 756 438 883 l 290 982 b 213 1114 306 1043 272 1097 b 83 1028 154 1131 99 1092 b -14 319 29 774 -14 475 b 1 86 -14 240 -8 167 b 136 -8 11 19 69 -21 z m 218 521 b 233 682 218 561 224 618 b 376 515 322 642 376 585 b 233 351 376 443 311 372 b 218 521 222 407 218 463 z "},"q":{"ha":763,"x_min":0,"x_max":0,"o":"m 404 1 l 411 1 b 468 -128 432 -67 454 -118 b 785 47 511 -157 767 11 b 701 150 794 67 753 107 b 797 475 761 222 801 328 b 368 932 785 825 576 938 b -33 428 179 932 -49 796 b 404 1 -19 58 240 -10 z m 258 485 b 385 713 258 601 318 718 b 511 489 449 708 501 597 b 483 340 515 439 506 385 b 413 407 451 372 422 399 b 326 367 394 417 343 388 b 369 150 322 353 343 256 l 369 147 l 322 274 b 258 485 285 310 260 382 z "},"r":{"ha":843,"x_min":0,"x_max":0,"o":"m 564 8 b 878 140 646 -57 878 31 b 619 408 878 228 722 419 b 733 626 671 428 733 515 b 358 933 733 818 564 922 b -25 858 153 943 -14 943 b 132 515 -35 779 -72 499 b 157 32 139 354 83 85 b 489 46 222 -17 388 -7 b 428 286 456 101 428 175 b 344 321 404 289 386 297 b 428 307 372 314 404 303 b 511 324 463 310 479 314 l 449 286 b 564 8 453 182 479 76 z m 372 575 b 463 546 404 585 460 578 b 386 494 465 515 414 501 z "},"ŕ":{"ha":843,"x_min":0,"x_max":0,"o":"m 564 8 b 878 140 646 -57 878 31 b 619 408 878 228 722 419 b 733 626 671 428 733 515 b 358 933 733 818 564 922 b -25 858 153 943 -14 943 b 132 515 -35 779 -72 499 b 157 32 139 354 83 85 b 489 46 222 -17 388 -7 b 428 286 456 101 428 175 b 344 321 404 289 386 297 b 428 307 372 314 404 303 b 511 324 463 310 479 314 l 449 286 b 564 8 453 182 479 76 z m 286 1078 b 319 1046 286 1060 300 1046 l 350 1046 b 368 1054 357 1046 364 1049 l 479 1193 b 489 1218 486 1201 489 1210 b 451 1253 489 1236 475 1251 l 376 1256 b 353 1240 367 1256 357 1250 b 286 1078 288 1088 286 1082 z m 372 575 b 463 546 404 585 460 578 b 386 494 465 515 414 501 z "},"ř":{"ha":843,"x_min":0,"x_max":0,"o":"m 564 8 b 878 140 646 -57 878 31 b 619 408 878 228 722 419 b 733 626 671 428 733 515 b 358 933 733 818 564 922 b -25 858 153 943 -14 943 b 132 515 -35 779 -72 499 b 157 32 139 354 83 85 b 489 46 222 -17 388 -7 b 428 286 456 101 428 175 b 344 321 404 289 386 297 b 428 307 372 314 404 303 b 511 324 463 310 479 314 l 449 286 b 564 8 453 182 479 76 z m 201 1264 b 267 1101 201 1260 203 1254 b 290 1086 271 1092 281 1086 l 390 1086 b 390 1086 390 1086 390 1086 l 492 1086 b 515 1101 501 1086 511 1092 b 581 1264 579 1254 581 1260 b 547 1296 581 1281 567 1296 l 447 1296 b 424 1281 438 1296 428 1290 b 390 1203 410 1249 400 1222 l 358 1281 b 335 1296 354 1290 344 1296 l 235 1296 b 201 1264 215 1296 201 1281 z m 372 575 b 463 546 404 585 460 578 b 386 494 465 515 414 501 z "},"ŗ":{"ha":843,"x_min":0,"x_max":0,"o":"m 564 8 b 878 140 646 -57 878 31 b 619 408 878 228 722 419 b 733 626 671 428 733 515 b 358 933 733 818 564 922 b -25 858 153 943 -14 943 b 132 515 -35 779 -72 499 b 157 32 139 354 83 85 b 489 46 222 -17 388 -7 b 428 286 456 101 428 175 b 344 321 404 289 386 297 b 428 307 372 314 404 303 b 511 324 463 310 479 314 l 449 286 b 564 8 453 182 479 76 z m 329 -296 b 372 -333 329 -317 350 -333 l 419 -333 b 460 -299 440 -333 453 -318 b 515 -117 493 -210 515 -146 b 471 -74 515 -93 497 -74 l 400 -74 b 357 -117 376 -74 361 -93 b 329 -296 329 -292 329 -294 z m 372 575 b 463 546 404 585 460 578 b 386 494 465 515 414 501 z "},"s":{"ha":565,"x_min":0,"x_max":0,"o":"m 264 0 b 600 285 581 -22 596 206 b 472 535 604 419 485 531 b 372 535 458 538 413 519 b 289 614 339 546 296 592 b 314 628 282 632 296 642 b 379 556 332 614 347 568 b 456 556 406 549 426 553 b 571 740 582 571 585 650 b 317 935 556 836 458 935 b -6 774 188 935 31 910 b 39 582 -46 618 -6 582 b 88 803 43 671 50 740 b 60 572 65 729 43 649 b 133 446 75 503 104 472 b -24 422 76 440 -4 429 b 264 0 -51 413 -54 21 z m 226 369 b 289 304 268 340 304 319 b 226 369 264 274 233 325 z "},"ś":{"ha":565,"x_min":0,"x_max":0,"o":"m 264 0 b 600 285 581 -22 596 206 b 472 535 604 419 485 531 b 372 535 458 538 413 519 b 289 614 339 546 296 592 b 314 628 282 632 296 642 b 379 556 332 614 347 568 b 456 556 406 549 426 553 b 571 740 582 571 585 650 b 317 935 556 836 458 935 b -6 774 188 935 31 910 b 39 582 -46 618 -6 582 b 88 803 43 671 50 740 b 60 572 65 729 43 649 b 133 446 75 503 104 472 b -24 422 76 440 -4 429 b 264 0 -51 413 -54 21 z m 213 1078 b 246 1046 213 1060 226 1046 l 276 1046 b 294 1054 283 1046 290 1049 l 406 1193 b 415 1218 413 1201 415 1210 b 378 1253 415 1236 401 1251 l 303 1256 b 279 1240 293 1256 283 1250 b 213 1078 214 1088 213 1082 z m 226 369 b 289 304 268 340 304 319 b 226 369 264 274 233 325 z "},"š":{"ha":565,"x_min":0,"x_max":0,"o":"m 264 0 b 600 285 581 -22 596 206 b 472 535 604 419 485 531 b 372 535 458 538 413 519 b 289 614 339 546 296 592 b 314 628 282 632 296 642 b 379 556 332 614 347 568 b 456 556 406 549 426 553 b 571 740 582 571 585 650 b 317 935 556 836 458 935 b -6 774 188 935 31 910 b 39 582 -46 618 -6 582 b 88 803 43 671 50 740 b 60 572 65 729 43 649 b 133 446 75 503 104 472 b -24 422 76 440 -4 429 b 264 0 -51 413 -54 21 z m 128 1264 b 193 1101 128 1260 129 1254 b 217 1086 197 1092 207 1086 l 317 1086 b 318 1086 317 1086 317 1086 l 418 1086 b 442 1101 428 1086 438 1092 b 507 1264 506 1254 507 1260 b 474 1296 507 1281 493 1296 l 374 1296 b 350 1281 364 1296 354 1290 b 318 1203 336 1249 326 1222 l 285 1281 b 261 1296 281 1290 271 1296 l 161 1296 b 128 1264 142 1296 128 1281 z m 226 369 b 289 304 268 340 304 319 b 226 369 264 274 233 325 z "},"ş":{"ha":565,"x_min":0,"x_max":0,"o":"m 294 -332 b 458 -222 378 -332 458 -306 b 428 -136 458 -183 444 -154 b 322 -83 397 -104 361 -89 b 350 -19 349 -32 350 -25 b 346 0 350 -12 349 -6 b 600 285 583 19 596 213 b 472 535 604 419 485 531 b 372 535 458 538 413 519 b 289 614 339 546 296 592 b 314 628 282 632 296 642 b 379 556 332 614 347 568 b 456 556 406 549 426 553 b 571 740 582 571 585 650 b 317 935 556 836 458 935 b -6 774 188 935 31 910 b 39 582 -46 618 -6 582 b 88 803 43 671 50 740 b 60 572 65 729 43 649 b 133 446 75 503 104 472 b -24 422 76 440 -4 429 b 224 4 -50 413 -54 54 l 221 -1 b 175 -117 190 -92 175 -111 b 215 -161 175 -140 190 -158 l 253 -165 b 306 -197 285 -169 306 -185 b 264 -217 306 -212 294 -217 b 181 -193 243 -217 211 -207 b 157 -187 172 -189 164 -187 b 108 -244 124 -187 108 -228 b 121 -271 108 -254 113 -264 b 294 -332 161 -307 203 -332 z m 226 369 b 289 304 268 340 304 319 b 226 369 264 274 233 325 z "},"ș":{"ha":565,"x_min":0,"x_max":0,"o":"m 264 0 b 600 285 581 -22 596 206 b 472 535 604 419 485 531 b 372 535 458 538 413 519 b 289 614 339 546 296 592 b 314 628 282 632 296 642 b 379 556 332 614 347 568 b 456 556 406 549 426 553 b 571 740 582 571 585 650 b 317 935 556 836 458 935 b -6 774 188 935 31 910 b 39 582 -46 618 -6 582 b 88 803 43 671 50 740 b 60 572 65 729 43 649 b 133 446 75 503 104 472 b -24 422 76 440 -4 429 b 264 0 -51 413 -54 21 z m 190 -296 b 233 -333 190 -317 211 -333 l 281 -333 b 321 -299 301 -333 314 -318 b 376 -117 354 -210 376 -146 b 332 -74 376 -93 358 -74 l 261 -74 b 218 -117 238 -74 222 -93 b 190 -296 190 -292 190 -294 z m 226 369 b 289 304 268 340 304 319 b 226 369 264 274 233 325 z "},"ß":{"ha":729,"x_min":0,"x_max":0,"o":"m 43 1017 b -11 92 -56 674 -44 363 b 111 3 -4 29 50 -7 l 164 11 b 265 153 233 22 283 83 b 204 683 222 322 204 508 b 217 869 204 717 207 789 b 422 806 328 856 422 840 b 276 601 422 682 272 725 b 367 506 278 549 315 515 b 435 307 528 472 561 379 b 331 110 390 282 297 221 b 535 11 367 -11 481 -14 b 764 317 636 57 764 158 b 549 597 764 439 663 557 b 546 649 492 618 490 621 b 656 840 625 688 656 739 b 179 1118 656 1040 342 1100 b 96 1089 146 1121 117 1110 b 43 1017 72 1075 53 1050 z "},"t":{"ha":575,"x_min":0,"x_max":0,"o":"m 426 19 b 435 301 478 46 446 204 l 404 556 l 300 575 b 575 601 394 582 553 586 b 589 919 596 615 635 911 b 108 935 546 926 219 938 b -33 772 -25 938 -25 878 b 33 519 -40 664 -29 515 l 171 549 b 75 46 138 394 51 128 b 426 19 96 -22 375 -7 z "},"ť":{"ha":575,"x_min":0,"x_max":0,"o":"m 426 19 b 435 301 478 46 446 204 l 404 556 l 300 575 b 575 601 394 582 553 586 b 589 919 596 615 635 911 b 108 935 546 926 219 938 b -33 772 -25 938 -25 878 b 33 519 -40 664 -29 515 l 171 549 b 75 46 138 394 51 128 b 426 19 96 -22 375 -7 z m 575 965 b 606 935 575 949 588 935 l 675 935 b 699 951 686 935 694 940 l 774 1150 b 776 1163 775 1154 776 1158 b 743 1193 776 1181 763 1193 l 644 1193 b 619 1172 632 1193 622 1186 l 576 972 b 575 965 576 969 575 967 z "},"ţ":{"ha":575,"x_min":0,"x_max":0,"o":"m 426 19 b 435 301 478 46 446 204 l 404 556 l 300 575 b 575 601 394 582 553 586 b 589 919 596 615 635 911 b 108 935 546 926 219 938 b -33 772 -25 938 -25 878 b 33 519 -40 664 -29 515 l 171 549 b 75 46 138 394 51 128 b 225 -3 85 14 151 0 b 179 -117 194 -92 179 -111 b 219 -161 179 -140 194 -158 l 257 -165 b 310 -197 289 -169 310 -185 b 268 -217 310 -212 299 -217 b 185 -193 247 -217 215 -207 b 161 -187 176 -189 168 -187 b 113 -244 128 -187 113 -228 b 125 -271 113 -254 117 -264 b 299 -332 165 -307 207 -332 b 463 -222 382 -332 463 -306 b 432 -136 463 -183 449 -154 b 326 -83 401 -104 365 -89 b 354 -19 353 -32 354 -25 b 349 3 354 -11 351 -4 b 426 19 385 7 413 13 z "},"ț":{"ha":575,"x_min":0,"x_max":0,"o":"m 426 19 b 435 301 478 46 446 204 l 404 556 l 300 575 b 575 601 394 582 553 586 b 589 919 596 615 635 911 b 108 935 546 926 219 938 b -33 772 -25 938 -25 878 b 33 519 -40 664 -29 515 l 171 549 b 75 46 138 394 51 128 b 426 19 96 -22 375 -7 z m 194 -296 b 238 -333 194 -317 215 -333 l 285 -333 b 325 -299 306 -333 318 -318 b 381 -117 358 -210 381 -146 b 336 -74 381 -93 363 -74 l 265 -74 b 222 -117 242 -74 226 -93 b 194 -296 194 -292 194 -294 z "},"u":{"ha":732,"x_min":0,"x_max":0,"o":"m 446 24 l 464 -21 b 765 46 479 -33 750 19 b 635 925 781 72 656 894 b 415 914 611 954 433 932 b 407 558 396 894 411 710 b 313 313 403 407 396 310 b 343 813 231 318 325 692 b 204 936 363 932 290 921 b 57 838 136 947 71 932 b 0 156 42 743 -99 351 b 363 0 97 -40 301 -14 b 515 165 438 19 479 86 b 446 24 503 135 526 106 z "},"ú":{"ha":732,"x_min":0,"x_max":0,"o":"m 446 24 l 464 -21 b 765 46 479 -33 750 19 b 635 925 781 72 656 894 b 415 914 611 954 433 932 b 407 558 396 894 411 710 b 313 313 403 407 396 310 b 343 813 231 318 325 692 b 204 936 363 932 290 921 b 57 838 136 947 71 932 b 0 156 42 743 -99 351 b 363 0 97 -40 301 -14 b 515 165 438 19 479 86 b 446 24 503 135 526 106 z m 265 1078 b 299 1046 265 1060 279 1046 l 329 1046 b 347 1054 336 1046 343 1049 l 458 1193 b 468 1218 465 1201 468 1210 b 431 1253 468 1236 454 1251 l 356 1256 b 332 1240 346 1256 336 1250 b 265 1078 267 1088 265 1082 z "},"û":{"ha":732,"x_min":0,"x_max":0,"o":"m 446 24 l 464 -21 b 765 46 479 -33 750 19 b 635 925 781 72 656 894 b 415 914 611 954 433 932 b 407 558 396 894 411 710 b 313 313 403 407 396 310 b 343 813 231 318 325 692 b 204 936 363 932 290 921 b 57 838 136 947 71 932 b 0 156 42 743 -99 351 b 363 0 97 -40 301 -14 b 515 165 438 19 479 86 b 446 24 503 135 526 106 z m 174 1118 b 207 1086 174 1101 188 1086 l 307 1086 b 331 1101 317 1086 326 1092 b 364 1179 344 1133 354 1160 l 396 1101 b 419 1086 400 1092 410 1086 l 519 1086 b 553 1118 539 1086 553 1101 b 488 1281 553 1122 551 1128 b 464 1296 483 1290 474 1296 l 364 1296 b 364 1296 364 1296 364 1296 l 263 1296 b 239 1281 253 1296 243 1290 b 174 1118 175 1128 174 1122 z "},"ü":{"ha":732,"x_min":0,"x_max":0,"o":"m 446 24 l 464 -21 b 765 46 479 -33 750 19 b 635 925 781 72 656 894 b 415 914 611 954 433 932 b 407 558 396 894 411 710 b 313 313 403 407 396 310 b 343 813 231 318 325 692 b 204 936 363 932 290 921 b 57 838 136 947 71 932 b 0 156 42 743 -99 351 b 363 0 97 -40 301 -14 b 515 165 438 19 479 86 b 446 24 503 135 526 106 z m 175 1128 b 257 1046 175 1082 211 1046 b 339 1128 303 1046 339 1082 b 257 1210 339 1174 303 1210 b 175 1128 211 1210 175 1174 z m 393 1128 b 475 1046 393 1082 429 1046 b 557 1128 521 1046 557 1082 b 475 1210 557 1174 521 1210 b 393 1128 429 1210 393 1174 z "},"ù":{"ha":732,"x_min":0,"x_max":0,"o":"m 446 24 l 464 -21 b 765 46 479 -33 750 19 b 635 925 781 72 656 894 b 415 914 611 954 433 932 b 407 558 396 894 411 710 b 313 313 403 407 396 310 b 343 813 231 318 325 692 b 204 936 363 932 290 921 b 57 838 136 947 71 932 b 0 156 42 743 -99 351 b 363 0 97 -40 301 -14 b 515 165 438 19 479 86 b 446 24 503 135 526 106 z m 265 1218 b 275 1193 265 1210 268 1201 l 386 1054 b 404 1046 390 1049 397 1046 l 435 1046 b 468 1078 454 1046 468 1060 b 401 1240 468 1082 467 1088 b 378 1256 397 1250 388 1256 l 303 1253 b 265 1218 279 1251 265 1236 z "},"ű":{"ha":732,"x_min":0,"x_max":0,"o":"m 446 24 l 464 -21 b 765 46 479 -33 750 19 b 635 925 781 72 656 894 b 415 914 611 954 433 932 b 407 558 396 894 411 710 b 313 313 403 407 396 310 b 343 813 231 318 325 692 b 204 936 363 932 290 921 b 57 838 136 947 71 932 b 0 156 42 743 -99 351 b 363 0 97 -40 301 -14 b 515 165 438 19 479 86 b 446 24 503 135 526 106 z m 176 1078 b 210 1046 176 1060 190 1046 l 240 1046 b 258 1054 247 1046 254 1049 l 369 1193 b 379 1218 376 1201 379 1210 b 342 1253 379 1236 365 1251 l 267 1256 b 243 1240 257 1256 247 1250 b 176 1078 178 1088 176 1082 z m 354 1078 b 388 1046 354 1060 368 1046 l 418 1046 b 436 1054 425 1046 432 1049 l 547 1193 b 557 1218 554 1201 557 1210 b 519 1253 557 1236 543 1251 l 444 1256 b 421 1240 435 1256 425 1250 b 354 1078 356 1088 354 1082 z "},"ū":{"ha":732,"x_min":0,"x_max":0,"o":"m 446 24 l 464 -21 b 765 46 479 -33 750 19 b 635 925 781 72 656 894 b 415 914 611 954 433 932 b 407 558 396 894 411 710 b 313 313 403 407 396 310 b 343 813 231 318 325 692 b 204 936 363 932 290 921 b 57 838 136 947 71 932 b 0 156 42 743 -99 351 b 363 0 97 -40 301 -14 b 515 165 438 19 479 86 b 446 24 503 135 526 106 z m 169 1103 b 226 1046 169 1071 194 1046 l 507 1046 b 564 1103 539 1046 564 1071 l 564 1156 b 507 1213 564 1188 539 1213 l 226 1213 b 169 1156 194 1213 169 1188 z "},"ų":{"ha":732,"x_min":0,"x_max":0,"o":"m 446 24 l 464 -21 b 511 -19 468 -24 485 -24 b 431 -149 461 -64 431 -108 b 613 -278 431 -237 515 -278 b 658 -235 642 -278 658 -260 l 658 -206 b 615 -164 658 -182 640 -165 b 556 -126 571 -161 556 -150 b 594 -44 556 -97 572 -71 b 607 -15 603 -35 607 -25 b 604 -4 607 -11 606 -7 b 765 46 679 11 757 32 b 635 925 781 72 656 894 b 415 914 611 954 433 932 b 407 558 396 894 411 710 b 313 313 403 407 396 310 b 343 813 231 318 325 692 b 204 936 363 932 290 921 b 57 838 136 947 71 932 b 0 156 42 743 -99 351 b 363 0 97 -40 301 -14 b 515 165 438 19 479 86 b 446 24 503 135 526 106 z "},"ů":{"ha":732,"x_min":0,"x_max":0,"o":"m 446 24 l 464 -21 b 765 46 479 -33 750 19 b 635 925 781 72 656 894 b 415 914 611 954 433 932 b 407 558 396 894 411 710 b 313 313 403 407 396 310 b 343 813 231 318 325 692 b 204 936 363 932 290 921 b 57 838 136 947 71 932 b 0 156 42 743 -99 351 b 363 0 97 -40 301 -14 b 515 165 438 19 479 86 b 446 24 503 135 526 106 z m 228 1183 b 367 1044 228 1107 290 1044 b 504 1183 442 1044 504 1107 b 367 1321 504 1258 442 1321 b 228 1183 290 1321 228 1258 z m 329 1183 b 367 1219 329 1203 346 1219 b 403 1183 386 1219 403 1203 b 367 1146 403 1163 386 1146 b 329 1183 346 1146 329 1163 z "},"ũ":{"ha":732,"x_min":0,"x_max":0,"o":"m 446 24 l 464 -21 b 765 46 479 -33 750 19 b 635 925 781 72 656 894 b 415 914 611 954 433 932 b 407 558 396 894 411 710 b 313 313 403 407 396 310 b 343 813 231 318 325 692 b 204 936 363 932 290 921 b 57 838 136 947 71 932 b 0 156 42 743 -99 351 b 363 0 97 -40 301 -14 b 515 165 438 19 479 86 b 446 24 503 135 526 106 z m 153 1046 l 236 1046 b 296 1133 236 1081 257 1133 b 447 1036 338 1133 369 1036 b 581 1203 507 1036 581 1108 l 497 1203 b 447 1119 497 1160 471 1119 b 296 1217 411 1119 376 1217 b 153 1046 229 1217 153 1146 z "},"v":{"ha":642,"x_min":0,"x_max":0,"o":"m 528 4 b 674 874 614 28 694 781 b 406 899 650 967 400 938 b 417 431 408 863 424 553 b 188 944 378 603 367 947 b -32 825 10 940 -47 878 b 181 60 -17 774 174 118 b 528 4 188 4 442 -18 z "},"w":{"ha":1004,"x_min":0,"x_max":0,"o":"m 485 3 b 569 342 543 25 569 226 b 654 14 599 233 621 36 b 947 31 688 -7 921 -22 b 1036 897 974 82 1054 857 b 729 901 1018 938 754 935 l 743 407 b 607 938 700 586 676 913 b 403 908 536 964 410 942 b 410 449 394 875 414 656 b 228 953 350 644 365 950 b -35 849 92 956 -35 879 b 179 63 -35 819 157 104 b 485 3 203 22 414 -22 z "},"ẃ":{"ha":1004,"x_min":0,"x_max":0,"o":"m 485 3 b 569 342 543 25 569 226 b 654 14 599 233 621 36 b 947 31 688 -7 921 -22 b 1036 897 974 82 1054 857 b 729 901 1018 938 754 935 l 743 407 b 607 938 700 586 676 913 b 403 908 536 964 410 942 b 410 449 394 875 414 656 b 228 953 350 644 365 950 b -35 849 92 956 -35 879 b 179 63 -35 819 157 104 b 485 3 203 22 414 -22 z m 421 1078 b 454 1046 421 1060 435 1046 l 485 1046 b 503 1054 492 1046 499 1049 l 614 1193 b 624 1218 621 1201 624 1210 b 586 1253 624 1236 610 1251 l 511 1256 b 488 1240 501 1256 492 1250 b 421 1078 422 1088 421 1082 z "},"ŵ":{"ha":1004,"x_min":0,"x_max":0,"o":"m 485 3 b 569 342 543 25 569 226 b 654 14 599 233 621 36 b 947 31 688 -7 921 -22 b 1036 897 974 82 1054 857 b 729 901 1018 938 754 935 l 743 407 b 607 938 700 586 676 913 b 403 908 536 964 410 942 b 410 449 394 875 414 656 b 228 953 350 644 365 950 b -35 849 92 956 -35 879 b 179 63 -35 819 157 104 b 485 3 203 22 414 -22 z m 329 1118 b 363 1086 329 1101 343 1086 l 463 1086 b 486 1101 472 1086 482 1092 b 518 1179 500 1133 510 1160 l 551 1101 b 575 1086 556 1092 565 1086 l 675 1086 b 708 1118 694 1086 708 1101 b 643 1281 708 1122 707 1128 b 619 1296 639 1290 629 1296 l 519 1296 b 519 1296 519 1296 519 1296 l 418 1296 b 394 1281 408 1296 399 1290 b 329 1118 331 1128 329 1122 z "},"ẅ":{"ha":1004,"x_min":0,"x_max":0,"o":"m 485 3 b 569 342 543 25 569 226 b 654 14 599 233 621 36 b 947 31 688 -7 921 -22 b 1036 897 974 82 1054 857 b 729 901 1018 938 754 935 l 743 407 b 607 938 700 586 676 913 b 403 908 536 964 410 942 b 410 449 394 875 414 656 b 228 953 350 644 365 950 b -35 849 92 956 -35 879 b 179 63 -35 819 157 104 b 485 3 203 22 414 -22 z m 331 1128 b 413 1046 331 1082 367 1046 b 494 1128 458 1046 494 1082 b 413 1210 494 1174 458 1210 b 331 1128 367 1210 331 1174 z m 549 1128 b 631 1046 549 1082 585 1046 b 713 1128 676 1046 713 1082 b 631 1210 713 1174 676 1210 b 549 1128 585 1210 549 1174 z "},"ẁ":{"ha":1004,"x_min":0,"x_max":0,"o":"m 485 3 b 569 342 543 25 569 226 b 654 14 599 233 621 36 b 947 31 688 -7 921 -22 b 1036 897 974 82 1054 857 b 729 901 1018 938 754 935 l 743 407 b 607 938 700 586 676 913 b 403 908 536 964 410 942 b 410 449 394 875 414 656 b 228 953 350 644 365 950 b -35 849 92 956 -35 879 b 179 63 -35 819 157 104 b 485 3 203 22 414 -22 z m 421 1218 b 431 1193 421 1210 424 1201 l 542 1054 b 560 1046 546 1049 553 1046 l 590 1046 b 624 1078 610 1046 624 1060 b 557 1240 624 1082 622 1088 b 533 1256 553 1250 543 1256 l 458 1253 b 421 1218 435 1251 421 1236 z "},"x":{"ha":861,"x_min":0,"x_max":0,"o":"m 617 -3 b 896 168 689 -36 896 99 b 585 482 896 238 689 379 l 772 760 b 596 913 810 815 671 913 b 367 688 519 913 443 764 l 242 926 b 6 885 229 954 63 926 b 142 449 -49 843 69 569 l 235 535 b -35 103 144 390 -35 238 b 304 15 -35 -6 269 -12 b 406 203 339 43 374 140 b 617 -3 464 113 522 43 z "},"y":{"ha":801,"x_min":0,"x_max":0,"o":"m 543 -17 b 813 335 724 -10 901 26 b 724 914 724 640 735 892 b 465 867 713 936 465 974 b 428 651 465 760 483 644 b 368 892 350 651 365 856 b 151 929 374 929 217 978 b 146 422 94 888 32 543 b 69 435 107 433 79 439 b -11 101 33 415 -86 167 b 543 -17 63 35 361 -24 z m 293 374 b 507 533 385 375 458 418 b 468 346 494 471 528 378 b 293 374 443 331 369 350 z "},"ý":{"ha":801,"x_min":0,"x_max":0,"o":"m 543 -17 b 813 335 724 -10 901 26 b 724 914 724 640 735 892 b 465 867 713 936 465 974 b 428 651 465 760 483 644 b 368 892 350 651 365 856 b 151 929 374 929 217 978 b 146 422 94 888 32 543 b 69 435 107 433 79 439 b -11 101 33 415 -86 167 b 543 -17 63 35 361 -24 z m 293 374 b 507 533 385 375 458 418 b 468 346 494 471 528 378 b 293 374 443 331 369 350 z m 319 1078 b 353 1046 319 1060 333 1046 l 383 1046 b 401 1054 390 1046 397 1049 l 513 1193 b 522 1218 519 1201 522 1210 b 485 1253 522 1236 508 1251 l 410 1256 b 386 1240 400 1256 390 1250 b 319 1078 321 1088 319 1082 z "},"ŷ":{"ha":801,"x_min":0,"x_max":0,"o":"m 543 -17 b 813 335 724 -10 901 26 b 724 914 724 640 735 892 b 465 867 713 936 465 974 b 428 651 465 760 483 644 b 368 892 350 651 365 856 b 151 929 374 929 217 978 b 146 422 94 888 32 543 b 69 435 107 433 79 439 b -11 101 33 415 -86 167 b 543 -17 63 35 361 -24 z m 228 1118 b 261 1086 228 1101 242 1086 l 361 1086 b 385 1101 371 1086 381 1092 b 418 1179 399 1133 408 1160 l 450 1101 b 474 1086 454 1092 464 1086 l 574 1086 b 607 1118 593 1086 607 1101 b 542 1281 607 1122 606 1128 b 518 1296 538 1290 528 1296 l 418 1296 b 417 1296 418 1296 418 1296 l 317 1296 b 293 1281 307 1296 297 1290 b 228 1118 229 1128 228 1122 z m 293 374 b 507 533 385 375 458 418 b 468 346 494 471 528 378 b 293 374 443 331 369 350 z "},"ÿ":{"ha":801,"x_min":0,"x_max":0,"o":"m 543 -17 b 813 335 724 -10 901 26 b 724 914 724 640 735 892 b 465 867 713 936 465 974 b 428 651 465 760 483 644 b 368 892 350 651 365 856 b 151 929 374 929 217 978 b 146 422 94 888 32 543 b 69 435 107 433 79 439 b -11 101 33 415 -86 167 b 543 -17 63 35 361 -24 z m 229 1128 b 311 1046 229 1082 265 1046 b 393 1128 357 1046 393 1082 b 311 1210 393 1174 357 1210 b 229 1128 265 1210 229 1174 z m 293 374 b 507 533 385 375 458 418 b 468 346 494 471 528 378 b 293 374 443 331 369 350 z m 447 1128 b 529 1046 447 1082 483 1046 b 611 1128 575 1046 611 1082 b 529 1210 611 1174 575 1210 b 447 1128 483 1210 447 1174 z "},"ỳ":{"ha":801,"x_min":0,"x_max":0,"o":"m 543 -17 b 813 335 724 -10 901 26 b 724 914 724 640 735 892 b 465 867 713 936 465 974 b 428 651 465 760 483 644 b 368 892 350 651 365 856 b 151 929 374 929 217 978 b 146 422 94 888 32 543 b 69 435 107 433 79 439 b -11 101 33 415 -86 167 b 543 -17 63 35 361 -24 z m 293 374 b 507 533 385 375 458 418 b 468 346 494 471 528 378 b 293 374 443 331 369 350 z m 319 1218 b 329 1193 319 1210 322 1201 l 440 1054 b 458 1046 444 1049 451 1046 l 489 1046 b 522 1078 508 1046 522 1060 b 456 1240 522 1082 521 1088 b 432 1256 451 1250 442 1256 l 357 1253 b 319 1218 333 1251 319 1236 z "},"ỹ":{"ha":801,"x_min":0,"x_max":0,"o":"m 543 -17 b 813 335 724 -10 901 26 b 724 914 724 640 735 892 b 465 867 713 936 465 974 b 428 651 465 760 483 644 b 368 892 350 651 365 856 b 151 929 374 929 217 978 b 146 422 94 888 32 543 b 69 435 107 433 79 439 b -11 101 33 415 -86 167 b 543 -17 63 35 361 -24 z m 207 1046 l 290 1046 b 350 1133 290 1081 311 1133 b 501 1036 392 1133 424 1036 b 635 1203 561 1036 635 1108 l 551 1203 b 501 1119 551 1160 525 1119 b 350 1217 465 1119 431 1217 b 207 1046 283 1217 207 1146 z m 293 374 b 507 533 385 375 458 418 b 468 346 494 471 528 378 b 293 374 443 331 369 350 z "},"z":{"ha":829,"x_min":0,"x_max":0,"o":"m 125 -1 b 811 65 192 -4 689 26 b 750 443 935 104 807 440 b 504 322 694 446 621 390 b 743 542 532 358 681 478 b 783 854 821 615 794 757 b 235 928 772 949 504 938 b -32 704 -22 917 -44 850 b 104 506 -22 561 51 503 b 374 546 157 510 260 510 b 22 310 251 497 15 368 b 125 -1 31 249 57 4 z "},"ź":{"ha":829,"x_min":0,"x_max":0,"o":"m 125 -1 b 811 65 192 -4 689 26 b 750 443 935 104 807 440 b 504 322 694 446 621 390 b 743 542 532 358 681 478 b 783 854 821 615 794 757 b 235 928 772 949 504 938 b -32 704 -22 917 -44 850 b 104 506 -22 561 51 503 b 374 546 157 510 260 510 b 22 310 251 497 15 368 b 125 -1 31 249 57 4 z m 294 1078 b 328 1046 294 1060 308 1046 l 358 1046 b 376 1054 365 1046 372 1049 l 488 1193 b 497 1218 494 1201 497 1210 b 460 1253 497 1236 483 1251 l 385 1256 b 361 1240 375 1256 365 1250 b 294 1078 296 1088 294 1082 z "},"ž":{"ha":829,"x_min":0,"x_max":0,"o":"m 125 -1 b 811 65 192 -4 689 26 b 750 443 935 104 807 440 b 504 322 694 446 621 390 b 743 542 532 358 681 478 b 783 854 821 615 794 757 b 235 928 772 949 504 938 b -32 704 -22 917 -44 850 b 104 506 -22 561 51 503 b 374 546 157 510 260 510 b 22 310 251 497 15 368 b 125 -1 31 249 57 4 z m 210 1264 b 275 1101 210 1260 211 1254 b 299 1086 279 1092 289 1086 l 399 1086 b 400 1086 399 1086 399 1086 l 500 1086 b 524 1101 510 1086 519 1092 b 589 1264 588 1254 589 1260 b 556 1296 589 1281 575 1296 l 456 1296 b 432 1281 446 1296 436 1290 b 400 1203 418 1249 408 1222 l 367 1281 b 343 1296 363 1290 353 1296 l 243 1296 b 210 1264 224 1296 210 1281 z "},"ż":{"ha":829,"x_min":0,"x_max":0,"o":"m 125 -1 b 811 65 192 -4 689 26 b 750 443 935 104 807 440 b 504 322 694 446 621 390 b 743 542 532 358 681 478 b 783 854 821 615 794 757 b 235 928 772 949 504 938 b -32 704 -22 917 -44 850 b 104 506 -22 561 51 503 b 374 546 157 510 260 510 b 22 310 251 497 15 368 b 125 -1 31 249 57 4 z m 314 1128 b 396 1046 314 1082 350 1046 b 478 1128 442 1046 478 1082 b 396 1210 478 1174 442 1210 b 314 1128 350 1210 314 1174 z "},".":{"ha":308,"x_min":0,"x_max":0,"o":"m 154 -10 b 274 110 219 -10 274 44 b 154 229 274 175 219 229 b 35 110 89 229 35 175 b 154 -10 35 44 89 -10 z "},",":{"ha":253,"x_min":0,"x_max":0,"o":"m 82 -60 b 135 -19 101 -60 110 -57 b 218 149 192 65 218 118 b 183 181 218 165 204 181 l 86 181 b 61 160 74 181 64 174 b 35 -6 43 78 35 26 b 82 -60 35 -54 54 -60 z "},":":{"ha":308,"x_min":0,"x_max":0,"o":"m 154 456 b 274 575 219 456 274 510 b 154 694 274 640 219 694 b 35 575 89 694 35 640 b 154 456 35 510 89 456 z m 35 110 b 154 -10 35 44 89 -10 b 274 110 219 -10 274 44 b 154 229 274 175 219 229 b 35 110 89 229 35 175 z "},";":{"ha":308,"x_min":0,"x_max":0,"o":"m 154 460 b 274 579 219 460 274 514 b 154 699 274 644 219 699 b 35 579 89 699 35 644 b 154 460 35 514 89 460 z m 57 -6 b 104 -60 57 -54 76 -60 b 157 -19 124 -60 132 -57 b 240 149 214 65 240 118 b 206 181 240 165 226 181 l 108 181 b 83 160 96 181 86 174 b 57 -6 65 78 57 26 z "},"…":{"ha":892,"x_min":0,"x_max":0,"o":"m 738 -10 b 857 110 803 -10 857 44 b 738 229 857 175 803 229 b 618 110 672 229 618 175 b 738 -10 618 44 672 -10 z m 35 110 b 154 -10 35 44 89 -10 b 274 110 219 -10 274 44 b 154 229 274 175 219 229 b 35 110 89 229 35 175 z m 326 110 b 446 -10 326 44 381 -10 b 565 110 511 -10 565 44 b 446 229 565 175 511 229 b 326 110 381 229 326 175 z "},"!":{"ha":361,"x_min":0,"x_max":0,"o":"m 200 278 b 239 282 214 278 228 278 b 326 760 289 301 326 511 b 268 974 326 879 325 974 b 35 844 71 974 35 958 b 139 288 35 763 97 299 b 200 278 158 282 188 278 z m 67 110 b 186 -10 67 44 121 -10 b 306 110 251 -10 306 44 b 186 229 306 175 251 229 b 67 110 121 229 67 175 z "},"¡":{"ha":361,"x_min":0,"x_max":0,"o":"m 268 -10 b 326 204 325 -10 326 85 b 239 682 326 453 289 663 b 200 686 228 686 214 686 b 139 676 188 686 158 682 b 35 119 97 665 35 201 b 268 -10 35 6 71 -10 z m 67 854 b 186 735 67 789 121 735 b 306 854 251 735 306 789 b 186 974 306 919 251 974 b 67 854 121 974 67 919 z "},"?":{"ha":619,"x_min":0,"x_max":0,"o":"m 251 242 b 394 250 299 242 347 243 b 428 288 414 253 428 264 b 424 415 428 343 424 382 b 585 739 424 449 585 567 b 331 993 585 875 528 993 b 35 713 110 993 35 906 b 136 611 35 639 51 611 b 228 676 181 611 228 621 b 297 779 228 749 246 779 b 354 701 342 779 354 743 b 211 411 354 621 211 492 b 215 272 211 365 211 318 b 251 242 217 253 219 242 z m 211 110 b 331 -10 211 44 265 -10 b 450 110 396 -10 450 44 b 331 229 450 175 396 229 b 211 110 265 229 211 175 z "},"¿":{"ha":619,"x_min":0,"x_max":0,"o":"m 289 -10 b 585 271 510 -10 585 78 b 483 372 585 344 568 372 b 392 307 439 372 392 363 b 322 204 392 235 374 204 b 265 282 278 204 265 240 b 408 572 265 363 408 492 b 404 711 408 618 408 665 b 368 742 403 731 400 742 b 225 733 321 742 272 740 b 192 696 206 731 192 719 b 196 568 192 640 196 601 b 35 244 196 535 35 417 b 289 -10 35 108 92 -10 z m 169 874 b 289 754 169 808 224 754 b 408 874 354 754 408 808 b 289 993 408 939 354 993 b 169 874 224 993 169 939 z "},"·":{"ha":308,"x_min":0,"x_max":0,"o":"m 154 243 b 274 363 219 243 274 297 b 154 482 274 428 219 482 b 35 363 89 482 35 428 b 154 243 35 297 89 243 z "},"•":{"ha":376,"x_min":0,"x_max":0,"o":"m 189 207 b 342 361 272 207 342 276 b 189 514 342 444 272 514 b 35 361 104 514 35 444 b 189 207 35 276 104 207 z "},"*":{"ha":481,"x_min":0,"x_max":0,"o":"m 394 607 b 351 619 381 607 365 611 l 296 651 l 296 715 l 351 747 l 407 715 b 446 657 432 701 446 678 b 394 607 446 628 424 607 z m 35 657 b 86 607 35 628 57 607 b 129 619 100 607 115 611 l 185 651 l 185 588 b 240 517 185 547 208 517 b 296 588 272 517 296 547 l 296 651 l 240 683 l 296 715 l 296 779 l 351 747 l 407 779 b 446 839 432 793 446 817 b 393 888 446 868 422 888 b 351 875 379 888 365 883 l 296 843 l 296 907 b 240 978 296 947 272 978 b 185 907 208 978 185 947 l 185 779 l 129 747 l 74 779 b 35 839 49 793 35 817 b 88 888 35 868 58 888 b 129 875 101 888 115 883 l 240 811 l 185 779 l 185 715 l 129 747 l 74 715 b 35 657 49 701 35 678 z "},"#":{"ha":1226,"x_min":0,"x_max":0,"o":"m 208 549 l 343 542 l 336 418 l 119 429 b 97 219 3 435 18 224 l 326 208 l 321 86 b 460 -1 318 24 381 -1 b 531 100 500 -1 528 57 l 536 199 l 661 193 l 650 -25 b 789 -112 647 -87 710 -112 b 860 -11 829 -112 857 -54 l 869 182 l 993 176 b 1081 315 1056 174 1081 236 b 979 386 1081 356 1022 383 l 881 392 l 886 517 l 1104 506 b 1192 644 1167 503 1192 565 b 1090 715 1192 685 1133 713 l 897 725 l 903 849 b 693 871 908 965 697 950 l 686 736 l 563 742 l 574 960 b 364 982 579 1076 368 1061 l 353 753 l 231 758 b 208 549 114 764 129 553 z m 546 408 l 553 532 l 676 526 l 671 401 z "},"/":{"ha":756,"x_min":0,"x_max":0,"o":"m 108 -250 b 211 -204 150 -250 197 -236 b 718 990 379 193 549 592 b 721 1001 719 994 721 999 b 650 1033 721 1024 688 1033 b 544 990 607 1033 557 1019 l 107 -40 b 38 -204 82 -99 60 -154 b 35 -217 36 -208 35 -214 b 108 -250 35 -240 69 -250 z "},"\\":{"ha":756,"x_min":0,"x_max":0,"o":"m 647 -250 b 721 -217 686 -250 721 -240 b 718 -204 721 -214 719 -208 b 649 -40 696 -154 674 -99 l 211 990 b 106 1033 199 1019 149 1033 b 35 1001 68 1033 35 1024 b 38 990 35 999 36 994 b 544 -204 207 592 376 193 b 647 -250 558 -236 606 -250 z "},"-":{"ha":518,"x_min":0,"x_max":0,"o":"m 106 342 l 413 342 b 483 401 453 342 483 367 b 413 460 483 435 453 460 l 106 460 b 35 401 65 460 35 435 b 106 342 35 367 65 342 z "},"–":{"ha":768,"x_min":0,"x_max":0,"o":"m 106 339 l 663 339 b 733 399 703 339 733 364 b 663 457 733 432 703 457 l 106 457 b 35 399 65 457 35 432 b 106 339 35 364 65 339 z "},"—":{"ha":1461,"x_min":0,"x_max":0,"o":"m 106 343 l 1356 343 b 1426 399 1396 343 1426 367 b 1356 454 1426 431 1396 454 l 106 454 b 35 399 65 454 35 431 b 106 343 35 367 65 343 z "},"_":{"ha":707,"x_min":0,"x_max":0,"o":"m 106 -153 l 601 -153 b 672 -111 642 -153 672 -135 b 601 -69 672 -87 642 -69 l 106 -69 b 35 -111 65 -69 35 -87 b 106 -153 35 -135 65 -153 z "},"(":{"ha":446,"x_min":0,"x_max":0,"o":"m 338 -129 b 350 -126 342 -129 347 -128 b 406 -75 400 -100 406 -87 b 394 -44 406 -65 403 -54 b 218 544 289 74 218 293 b 397 1136 218 797 290 1018 b 411 1167 407 1146 411 1157 b 392 1197 411 1179 404 1190 l 357 1217 b 343 1221 353 1219 347 1221 b 335 1219 340 1221 338 1219 b 35 544 165 1165 35 885 b 328 -128 35 210 163 -69 b 338 -129 331 -128 333 -129 z "},")":{"ha":446,"x_min":0,"x_max":0,"o":"m 108 -129 b 118 -128 113 -129 115 -128 b 411 544 283 -69 411 210 b 111 1219 411 885 281 1165 b 103 1221 108 1219 106 1221 b 89 1217 99 1221 93 1219 l 54 1197 b 35 1167 42 1190 35 1179 b 49 1136 35 1157 39 1146 b 228 544 156 1018 228 797 b 51 -44 228 293 157 74 b 40 -75 43 -54 40 -65 b 96 -126 40 -87 46 -100 b 108 -129 99 -128 104 -129 z "},"{":{"ha":457,"x_min":0,"x_max":0,"o":"m 357 -32 b 422 40 394 -32 422 0 l 422 83 b 368 144 422 115 400 133 b 300 293 300 169 300 244 l 300 317 b 194 488 300 383 250 447 b 300 658 250 528 300 592 l 300 682 b 368 831 300 731 300 806 b 422 892 400 842 422 860 l 422 935 b 357 1007 422 975 394 1007 b 126 685 217 1007 126 872 l 126 658 b 72 536 126 608 111 554 b 50 521 64 532 56 528 b 35 489 40 513 35 501 b 35 488 35 489 35 488 b 50 454 35 474 40 463 b 72 439 56 447 64 443 b 126 317 111 421 126 367 l 126 290 b 357 -32 126 103 217 -32 z "},"}":{"ha":457,"x_min":0,"x_max":0,"o":"m 100 -32 b 331 290 240 -32 331 103 l 331 317 b 385 439 331 367 346 421 b 407 454 393 443 401 447 b 422 486 417 463 422 474 b 422 488 422 486 422 488 l 422 489 b 407 521 422 501 417 513 b 385 536 401 528 393 532 b 331 658 346 554 331 608 l 331 685 b 100 1007 331 872 240 1007 b 35 935 63 1007 35 975 l 35 892 b 89 831 35 860 57 842 b 157 682 157 806 157 731 l 157 658 b 263 488 157 592 207 528 b 157 317 207 447 157 383 l 157 293 b 89 144 157 244 157 169 b 35 83 57 133 35 115 l 35 40 b 100 -32 35 0 63 -32 z "},"[":{"ha":426,"x_min":0,"x_max":0,"o":"m 106 -65 l 321 -65 b 392 6 361 -65 392 -35 l 392 31 b 321 101 392 71 361 101 l 272 101 b 201 172 232 101 201 132 l 201 889 b 272 960 201 929 232 960 l 321 960 b 392 1031 361 960 392 990 l 392 1054 b 321 1125 392 1094 361 1125 l 106 1125 b 35 1054 65 1125 35 1094 l 35 6 b 106 -65 35 -35 65 -65 z "},"]":{"ha":426,"x_min":0,"x_max":0,"o":"m 106 -65 l 321 -65 b 392 6 361 -65 392 -35 l 392 1054 b 321 1125 392 1094 361 1125 l 106 1125 b 35 1054 65 1125 35 1094 l 35 1031 b 106 960 35 990 65 960 l 154 960 b 225 889 194 960 225 929 l 225 172 b 154 101 225 132 194 101 l 106 101 b 35 31 65 101 35 71 l 35 6 b 106 -65 35 -35 65 -65 z "},"‚":{"ha":253,"x_min":0,"x_max":0,"o":"m 82 -60 b 135 -19 101 -60 110 -57 b 218 149 192 65 218 118 b 183 181 218 165 204 181 l 86 181 b 61 160 74 181 64 174 b 35 -6 43 78 35 26 b 82 -60 35 -54 54 -60 z "},"„":{"ha":475,"x_min":0,"x_max":0,"o":"m 304 -60 b 357 -19 324 -60 332 -57 b 440 149 414 65 440 118 b 406 181 440 165 426 181 l 308 181 b 283 160 296 181 286 174 b 257 -6 265 78 257 26 b 304 -60 257 -54 276 -60 z m 35 -6 b 82 -60 35 -54 54 -60 b 135 -19 101 -60 110 -57 b 218 149 192 65 218 118 b 183 181 218 165 204 181 l 86 181 b 61 160 74 181 64 174 b 35 -6 43 78 35 26 z "},"“":{"ha":475,"x_min":0,"x_max":0,"o":"m 292 729 l 389 729 b 414 750 401 729 411 736 b 440 915 432 832 440 883 b 393 969 440 964 421 969 b 340 929 374 969 365 967 b 257 761 283 844 257 792 b 292 729 257 744 271 729 z m 35 761 b 69 729 35 744 49 729 l 167 729 b 192 750 179 729 189 736 b 218 915 210 832 218 883 b 171 969 218 964 199 969 b 118 929 151 969 143 967 b 35 761 61 844 35 792 z "},"”":{"ha":475,"x_min":0,"x_max":0,"o":"m 304 729 b 357 769 324 729 332 732 b 440 938 414 854 440 907 b 406 969 440 954 426 969 l 308 969 b 283 949 296 969 286 963 b 257 783 265 867 257 815 b 304 729 257 735 276 729 z m 35 783 b 82 729 35 735 54 729 b 135 769 101 729 110 732 b 218 938 192 854 218 907 b 183 969 218 954 204 969 l 86 969 b 61 949 74 969 64 963 b 35 783 43 867 35 815 z "},"‘":{"ha":253,"x_min":0,"x_max":0,"o":"m 69 729 l 167 729 b 192 750 179 729 189 736 b 218 915 210 832 218 883 b 171 969 218 964 199 969 b 118 929 151 969 143 967 b 35 761 61 844 35 792 b 69 729 35 744 49 729 z "},"’":{"ha":253,"x_min":0,"x_max":0,"o":"m 82 729 b 135 769 101 729 110 732 b 218 938 192 854 218 907 b 183 969 218 954 204 969 l 86 969 b 61 949 74 969 64 963 b 35 783 43 867 35 815 b 82 729 35 735 54 729 z "},"«":{"ha":656,"x_min":0,"x_max":0,"o":"m 482 33 l 621 33 b 415 354 553 140 415 324 b 621 675 415 383 553 568 l 482 675 b 276 354 414 568 276 383 b 482 33 276 324 414 140 z m 35 354 b 240 33 35 324 172 140 l 379 33 b 174 354 311 140 174 324 b 379 675 174 383 311 568 l 240 675 b 35 354 172 568 35 383 z "},"»":{"ha":656,"x_min":0,"x_max":0,"o":"m 276 33 l 415 33 b 621 354 483 140 621 324 b 415 675 621 383 483 568 l 276 675 b 482 354 344 568 482 383 b 276 33 482 324 344 140 z m 35 33 l 174 33 b 379 354 242 140 379 324 b 174 675 379 383 242 568 l 35 675 b 240 354 103 568 240 383 b 35 33 240 324 103 140 z "},"‹":{"ha":414,"x_min":0,"x_max":0,"o":"m 240 33 l 379 33 b 174 354 311 140 174 324 b 379 675 174 383 311 568 l 240 675 b 35 354 172 568 35 383 b 240 33 35 324 172 140 z "},"›":{"ha":414,"x_min":0,"x_max":0,"o":"m 35 33 l 174 33 b 379 354 242 140 379 324 b 174 675 379 383 242 568 l 35 675 b 240 354 103 568 240 383 b 35 33 240 324 103 140 z "},"\"":{"ha":382,"x_min":0,"x_max":0,"o":"m 265 635 b 324 696 296 635 315 660 b 347 899 338 757 347 831 b 283 981 347 950 324 981 b 213 910 243 981 213 950 l 213 706 b 265 635 213 665 235 635 z m 35 708 b 88 638 35 668 57 638 b 146 699 118 638 138 663 b 169 901 160 760 169 833 b 106 983 169 953 146 983 b 35 913 65 983 35 953 z "},"'":{"ha":204,"x_min":0,"x_max":0,"o":"m 88 635 b 146 696 118 635 138 660 b 169 899 160 757 169 831 b 106 981 169 950 146 981 b 35 910 65 981 35 950 l 35 706 b 88 635 35 665 57 635 z "},"@":{"ha":1186,"x_min":0,"x_max":0,"o":"m 593 0 b 790 64 696 0 790 33 b 729 158 790 88 776 158 b 593 138 714 158 636 138 b 172 558 361 138 172 326 b 593 979 172 790 361 979 b 1014 558 825 979 1014 790 b 933 400 1014 461 993 389 b 890 410 918 403 903 406 b 750 867 853 485 817 799 b 574 903 713 903 626 914 b 285 764 496 888 307 815 b 361 576 253 693 313 583 b 601 701 407 568 574 646 l 626 629 b 446 592 567 629 500 622 b 354 415 400 567 354 511 b 540 215 354 319 435 215 b 700 314 614 215 676 247 l 701 315 b 879 211 743 235 821 211 b 1151 558 1088 211 1151 408 b 593 1117 1151 867 901 1117 b 35 558 285 1117 35 867 b 593 0 35 250 285 0 z m 551 460 b 563 517 551 501 557 517 b 571 460 568 517 571 501 b 563 385 571 418 568 385 b 551 460 557 385 551 418 z "},"&":{"ha":869,"x_min":0,"x_max":0,"o":"m 368 -22 b 610 53 469 -22 547 6 l 626 0 b 708 -22 631 -14 676 -22 b 835 63 735 -22 835 4 b 764 279 835 88 814 181 b 797 521 783 347 797 453 b 794 601 797 550 796 576 b 707 638 793 619 757 638 b 585 568 668 638 585 618 b 581 492 585 549 583 521 b 496 532 554 508 526 522 b 608 743 564 578 608 656 b 358 994 608 882 496 994 b 110 743 221 994 110 882 b 228 528 110 653 157 574 b 35 256 107 482 35 378 b 368 -22 35 89 165 -22 z m 271 261 b 389 361 271 322 326 361 b 513 264 435 361 476 321 b 367 174 481 211 433 174 b 271 261 290 174 271 218 z m 307 742 b 371 806 307 792 336 806 b 435 742 406 806 435 792 b 371 678 435 692 406 678 b 307 742 336 678 307 692 z "},"§":{"ha":574,"x_min":0,"x_max":0,"o":"m 272 0 b 539 226 524 -18 536 164 b 456 411 542 310 485 382 b 529 592 482 433 533 485 b 428 790 525 699 438 788 b 349 789 417 793 381 778 b 282 853 322 799 288 836 b 303 864 276 868 288 875 b 354 808 317 853 329 817 b 415 807 375 801 392 804 b 507 954 515 819 518 882 b 304 1108 494 1031 417 1108 b 49 981 201 1108 76 1089 b 83 828 17 857 49 828 b 122 1003 88 899 93 954 b 100 821 104 944 88 881 b 158 719 113 765 136 740 b 58 615 111 701 72 669 b 93 463 26 492 58 463 b 132 638 97 533 103 589 b 110 456 114 579 97 515 b 168 354 122 400 146 375 b 43 336 124 350 60 342 b 272 0 22 328 19 17 z m 243 293 b 292 242 276 271 304 254 b 243 293 272 218 249 257 z m 281 582 b 331 529 314 560 342 543 b 281 582 310 507 286 546 z "},"©":{"ha":1203,"x_min":0,"x_max":0,"o":"m 601 -22 b 1168 544 914 -22 1168 232 b 601 1111 1168 857 914 1111 b 35 544 289 1111 35 857 b 601 -22 35 232 289 -22 z m 211 544 b 601 935 211 760 386 935 b 992 544 817 935 992 760 b 601 154 992 329 817 154 b 211 544 386 154 211 329 z m 356 503 b 626 190 360 335 485 181 b 832 518 789 199 886 372 l 644 482 b 621 419 632 481 640 419 b 588 624 579 419 536 624 b 656 538 607 624 633 554 b 811 613 679 522 817 589 b 796 842 807 636 801 790 b 647 853 794 865 672 853 b 643 747 613 853 632 792 b 485 856 629 785 588 863 b 356 503 390 849 350 629 z "},"®":{"ha":1182,"x_min":0,"x_max":0,"o":"m 593 0 b 1147 558 899 0 1147 249 b 593 1113 1147 864 899 1113 b 35 558 283 1113 35 864 b 593 0 35 249 283 0 z m 179 558 b 593 968 179 785 361 968 b 1003 558 819 968 1003 785 b 593 144 1003 326 819 144 b 179 558 361 144 179 326 z m 310 797 b 410 576 303 746 278 565 b 426 265 415 472 379 299 b 640 274 468 233 575 240 b 600 428 618 310 600 357 b 547 450 585 431 574 435 b 600 442 564 446 585 439 b 654 453 622 444 633 446 l 614 428 b 688 250 615 361 633 293 b 890 335 740 207 890 264 b 724 507 890 392 790 514 b 797 647 757 519 797 576 b 556 844 797 771 688 838 b 310 797 424 851 317 851 z m 564 614 b 622 596 585 621 621 615 b 574 563 625 576 592 567 z "},"°":{"ha":501,"x_min":0,"x_max":0,"o":"m 251 540 b 467 757 369 540 467 638 b 251 972 467 875 369 972 b 35 757 132 972 35 875 b 251 540 35 638 132 540 z m 132 757 b 251 875 132 822 185 875 b 369 757 317 875 369 822 b 251 638 369 690 317 638 b 132 757 185 638 132 690 z "},"|":{"ha":236,"x_min":0,"x_max":0,"o":"m 92 -208 l 144 -208 b 201 -110 201 -208 201 -167 l 201 886 b 144 985 201 943 201 985 l 92 985 b 35 886 35 985 35 943 l 35 -110 b 92 -208 35 -167 35 -208 z "},"†":{"ha":586,"x_min":0,"x_max":0,"o":"m 293 371 b 376 469 340 371 376 413 l 376 725 l 453 725 b 551 808 510 725 551 761 b 453 892 551 856 510 892 l 376 892 l 376 954 b 293 1053 376 1011 340 1053 b 210 954 246 1053 210 1011 l 210 892 l 133 892 b 35 808 76 892 35 856 b 133 725 35 760 76 725 l 210 725 l 210 469 b 293 371 210 413 246 371 z "},"¢":{"ha":688,"x_min":0,"x_max":0,"o":"m 375 61 b 635 474 579 74 701 292 l 399 431 b 368 350 382 428 393 350 b 326 607 317 350 263 607 b 413 500 353 607 385 519 b 610 593 442 481 614 564 b 590 882 603 624 597 817 b 404 896 586 911 435 896 b 404 740 353 896 392 792 b 357 833 406 735 394 788 l 357 990 b 286 1061 357 1031 326 1061 l 261 1061 b 190 990 221 1061 190 1031 l 190 897 b 35 456 76 878 29 610 b 190 128 39 325 101 200 l 190 3 b 261 -68 190 -37 221 -68 l 286 -68 b 357 3 326 -68 357 -37 l 357 61 z "},"¤":{"ha":721,"x_min":0,"x_max":0,"o":"m 361 164 b 533 228 426 164 486 188 l 582 178 b 636 153 599 161 618 153 b 686 203 664 153 686 175 b 661 257 686 221 678 240 l 601 317 b 626 431 617 351 626 390 b 596 553 626 475 615 517 l 661 618 b 686 672 678 635 686 654 b 636 722 686 700 664 722 b 582 697 618 722 599 714 l 525 639 b 361 696 479 675 422 696 b 196 639 299 696 242 675 l 139 697 b 85 722 122 714 103 722 b 35 672 57 722 35 700 b 60 618 35 654 43 635 l 125 553 b 94 431 106 517 94 475 b 119 317 94 390 104 351 l 60 257 b 35 203 43 240 35 221 b 85 153 35 175 57 153 b 139 178 103 153 122 161 l 188 228 b 361 164 235 188 294 164 z m 213 431 b 361 578 213 513 278 578 b 508 431 443 578 508 513 b 361 282 508 347 443 282 b 213 431 278 282 213 347 z "},"$":{"ha":724,"x_min":0,"x_max":0,"o":"m 368 -110 l 393 -110 b 464 -39 433 -110 464 -79 l 464 4 b 689 293 674 40 685 222 b 557 550 692 432 569 546 b 454 550 543 553 496 535 b 369 632 419 561 376 610 b 394 646 361 650 376 661 b 461 572 413 632 428 585 b 539 572 489 564 510 569 b 658 763 669 588 672 669 b 464 956 646 846 574 931 l 464 1013 b 393 1083 464 1053 433 1083 l 368 1083 b 297 1013 328 1083 297 1053 l 297 957 b 65 796 193 943 93 903 b 111 599 22 636 65 599 b 161 826 114 690 121 763 b 132 588 138 751 115 668 b 208 460 147 518 178 486 b 46 435 149 454 67 442 b 297 6 19 424 15 58 l 297 -39 b 368 -110 297 -79 328 -110 z m 303 381 b 369 313 347 350 383 329 b 303 381 343 281 311 335 z "},"€":{"ha":801,"x_min":0,"x_max":0,"o":"m 449 61 b 751 478 653 74 818 296 l 560 436 b 479 350 543 432 544 350 b 419 461 451 350 432 397 l 446 461 b 517 510 486 461 517 482 b 446 557 517 538 486 557 l 406 557 b 404 599 406 571 404 585 l 440 599 b 511 647 481 599 511 619 b 440 694 511 675 481 694 l 404 694 b 442 804 410 758 421 804 b 528 694 508 804 500 714 b 725 775 557 675 735 744 b 589 1051 690 890 671 969 b 272 1058 549 1092 426 1151 b 111 694 197 1013 133 869 l 106 694 b 35 647 65 694 35 675 b 104 599 35 619 64 599 l 103 557 b 40 510 67 554 40 536 b 108 461 40 483 69 463 l 108 456 b 449 61 129 249 272 51 z "},"£":{"ha":807,"x_min":0,"x_max":0,"o":"m 375 -1 b 772 69 568 -1 772 21 b 614 293 772 254 722 293 b 365 268 551 293 468 293 l 378 361 l 571 363 b 657 443 621 363 657 389 b 572 590 657 529 643 590 l 396 589 l 396 721 l 342 721 b 399 733 360 731 379 733 b 611 671 488 733 579 671 b 725 843 649 671 725 774 b 429 972 725 906 531 972 b 140 807 250 972 154 946 b 132 586 133 742 132 658 l 122 586 b 35 503 69 586 35 549 l 35 440 b 108 360 35 397 67 367 b 42 136 82 264 42 207 b 375 -1 42 19 204 -1 z "},"¥":{"ha":847,"x_min":0,"x_max":0,"o":"m 193 474 b 321 438 228 457 272 444 b 311 401 318 425 315 414 l 175 401 b 104 343 135 401 104 376 b 175 283 104 308 135 283 l 281 283 b 271 243 276 269 274 257 l 175 243 b 104 185 135 243 104 218 b 175 125 104 150 135 125 l 256 125 b 297 14 256 79 267 40 b 624 22 344 -29 608 -10 b 647 125 640 56 647 89 l 732 125 b 803 185 772 125 803 150 b 732 243 803 218 772 243 l 629 243 b 617 283 625 257 622 269 l 732 283 b 803 343 772 283 803 308 b 732 401 803 376 772 401 l 575 401 b 558 447 569 417 564 432 b 751 572 640 467 713 507 b 764 1067 872 775 778 1040 b 463 1011 751 1092 463 1136 b 419 760 463 886 485 751 b 350 1040 329 760 346 999 b 97 1083 356 1083 174 1140 b 193 474 18 1028 -21 576 z "},"+":{"ha":761,"x_min":0,"x_max":0,"o":"m 133 375 l 297 375 l 297 211 b 381 113 297 154 333 113 b 464 211 428 113 464 154 l 464 375 l 628 375 b 726 458 685 375 726 411 b 628 542 726 506 685 542 l 464 542 l 464 706 b 381 804 464 763 428 804 b 297 706 333 804 297 763 l 297 542 l 133 542 b 35 458 76 542 35 506 b 133 375 35 411 76 375 z "},"−":{"ha":761,"x_min":0,"x_max":0,"o":"m 133 306 l 628 306 b 726 389 685 306 726 342 b 628 472 726 436 685 472 l 133 472 b 35 389 76 472 35 436 b 133 306 35 342 76 306 z "},"×":{"ha":603,"x_min":0,"x_max":0,"o":"m 490 122 b 568 200 535 122 568 156 b 535 274 568 225 557 251 l 419 389 l 535 504 b 568 578 557 526 568 553 b 492 656 568 622 535 656 b 417 622 467 656 439 644 l 301 507 l 186 622 b 111 656 164 644 136 656 b 35 578 68 656 35 621 b 68 504 35 553 46 526 l 183 389 l 68 274 b 35 199 46 251 35 225 b 110 122 35 157 68 122 b 186 156 138 122 164 133 l 301 271 l 417 156 b 490 122 439 133 465 122 z "},"÷":{"ha":739,"x_min":0,"x_max":0,"o":"m 133 299 l 606 299 b 704 382 663 299 704 335 b 606 465 704 429 663 465 l 133 465 b 35 382 76 465 35 429 b 133 299 35 333 76 299 z m 261 110 b 381 -10 261 44 315 -10 b 500 110 446 -10 500 44 b 381 229 500 175 446 229 b 261 110 315 229 261 175 z m 261 656 b 381 535 261 590 315 535 b 500 654 446 535 500 589 b 381 775 500 719 446 775 b 261 656 315 775 261 721 z "},"=":{"ha":700,"x_min":0,"x_max":0,"o":"m 133 419 l 567 419 b 665 503 624 419 665 456 b 567 586 665 550 624 586 l 133 586 b 35 503 76 586 35 550 b 133 419 35 454 76 419 z m 35 257 b 133 174 35 208 76 174 l 567 174 b 665 257 624 174 665 210 b 567 340 665 304 624 340 l 133 340 b 35 257 76 340 35 304 z "},">":{"ha":679,"x_min":0,"x_max":0,"o":"m 100 99 b 604 283 118 99 129 101 b 644 343 629 293 644 317 l 644 347 b 644 353 644 349 644 351 l 644 358 l 644 363 b 604 422 644 389 629 413 b 100 607 129 604 118 607 b 35 557 63 607 35 588 l 35 518 b 75 458 35 492 50 468 l 350 353 l 75 247 b 35 188 50 238 35 214 l 35 149 b 100 99 35 118 63 99 z "},"<":{"ha":679,"x_min":0,"x_max":0,"o":"m 579 99 b 644 149 617 99 644 118 l 644 188 b 604 247 644 214 629 238 l 329 353 l 604 458 b 644 518 629 468 644 492 l 644 557 b 579 607 644 588 617 607 b 75 422 561 607 550 604 b 35 363 50 413 35 389 l 35 358 b 35 353 35 357 35 354 l 35 347 l 35 343 b 75 283 35 317 50 293 b 579 99 550 101 561 99 z "},"±":{"ha":761,"x_min":0,"x_max":0,"o":"m 133 375 l 297 375 l 297 294 b 381 196 297 238 333 196 b 464 294 428 196 464 238 l 464 375 l 628 375 b 726 458 685 375 726 411 b 628 542 726 506 685 542 l 464 542 l 464 636 b 381 735 464 693 428 735 b 297 636 333 735 297 693 l 297 542 l 133 542 b 35 458 76 542 35 506 b 133 375 35 411 76 375 z m 35 76 b 133 -7 35 29 76 -7 l 628 -7 b 726 76 685 -7 726 29 b 628 160 726 124 685 160 l 133 160 b 35 76 76 160 35 124 z "},"~":{"ha":792,"x_min":0,"x_max":0,"o":"m 538 242 b 757 394 696 242 757 346 b 683 460 757 432 724 460 b 533 379 588 460 629 379 b 260 504 478 379 390 504 b 35 351 121 504 35 408 b 106 289 35 315 68 289 b 261 365 199 289 179 365 b 538 242 347 365 440 242 z "},"^":{"ha":411,"x_min":0,"x_max":0,"o":"m 318 547 b 376 613 354 547 376 575 b 367 661 376 628 374 644 l 263 907 b 250 926 260 914 256 921 b 207 946 240 939 225 946 b 206 946 207 946 206 946 b 161 926 186 946 171 939 b 149 907 156 921 151 914 l 44 661 b 35 613 38 644 35 628 b 93 547 35 575 57 547 b 151 586 118 547 142 563 l 206 714 l 260 586 b 318 547 269 563 293 547 z "},"%":{"ha":1033,"x_min":0,"x_max":0,"o":"m 258 0 b 310 28 279 0 299 10 l 839 858 b 858 922 853 879 858 903 b 792 994 858 963 833 994 b 740 967 771 994 751 985 l 211 136 b 192 71 197 114 192 92 b 258 0 192 32 217 0 z m 35 711 b 242 447 35 565 128 447 b 446 711 353 447 446 565 b 242 974 446 856 353 974 b 35 711 128 974 35 856 z m 225 703 b 242 821 225 768 233 821 b 258 703 250 821 258 768 b 242 585 258 638 250 585 b 225 703 233 585 225 638 z m 588 260 b 794 -4 588 114 681 -4 b 999 260 906 -4 999 114 b 794 522 999 404 906 522 b 588 260 681 522 588 404 z m 778 251 b 794 369 778 317 786 369 b 811 251 803 369 811 317 b 794 133 811 186 803 133 b 778 251 786 133 778 186 z "},"‰":{"ha":1475,"x_min":0,"x_max":0,"o":"m 258 0 b 310 28 279 0 299 10 l 839 858 b 858 922 853 879 858 903 b 792 994 858 963 833 994 b 740 967 771 994 751 985 l 211 136 b 192 71 197 114 192 92 b 258 0 192 32 217 0 z m 35 711 b 242 447 35 565 128 447 b 446 711 353 447 446 565 b 242 974 446 856 353 974 b 35 711 128 974 35 856 z m 225 703 b 242 821 225 768 233 821 b 258 703 250 821 258 768 b 242 585 258 638 250 585 b 225 703 233 585 225 638 z m 588 260 b 794 -4 588 114 681 -4 b 999 260 906 -4 999 114 b 794 522 999 404 906 522 b 588 260 681 522 588 404 z m 778 251 b 794 369 778 317 786 369 b 811 251 803 369 811 317 b 794 133 811 186 803 133 b 778 251 786 133 778 186 z m 1029 260 b 1236 -4 1029 114 1122 -4 b 1440 260 1347 -4 1440 114 b 1236 522 1440 404 1347 522 b 1029 260 1122 522 1029 404 z m 1219 251 b 1236 369 1219 317 1228 369 b 1253 251 1244 369 1253 317 b 1236 133 1253 186 1244 133 b 1219 251 1228 133 1219 186 z "},"̈":{"ha":0,"x_min":0,"x_max":0,"o":"m 300 935 b 382 1017 346 935 382 971 b 300 1099 382 1063 346 1099 b 218 1017 254 1099 218 1063 b 300 935 218 971 254 935 z m 0 1017 b 82 935 0 971 36 935 b 164 1017 128 935 164 971 b 82 1099 164 1063 128 1099 b 0 1017 36 1099 0 1063 z "},"̇":{"ha":0,"x_min":0,"x_max":0,"o":"m 82 935 b 164 1017 128 935 164 971 b 82 1099 164 1063 128 1099 b 0 1017 36 1099 0 1063 b 82 935 0 971 36 935 z "},"̀":{"ha":0,"x_min":0,"x_max":0,"o":"m 139 935 l 169 935 b 203 967 189 935 203 949 b 136 1129 203 971 201 976 b 113 1144 132 1139 122 1144 l 38 1142 b 0 1107 14 1140 0 1125 b 10 1082 0 1099 3 1090 l 121 943 b 139 935 125 938 132 935 z "},"́":{"ha":0,"x_min":0,"x_max":0,"o":"m 33 935 l 64 935 b 82 943 71 935 78 938 l 193 1082 b 203 1107 200 1090 203 1099 b 165 1142 203 1125 189 1140 l 90 1144 b 67 1129 81 1144 71 1139 b 0 967 1 976 0 971 b 33 935 0 949 14 935 z "},"̋":{"ha":0,"x_min":0,"x_max":0,"o":"m 211 935 l 242 935 b 260 943 249 935 256 938 l 371 1082 b 381 1107 378 1090 381 1099 b 343 1142 381 1125 367 1140 l 268 1144 b 244 1129 258 1144 249 1139 b 178 967 179 976 178 971 b 211 935 178 949 192 935 z m 0 967 b 33 935 0 949 14 935 l 64 935 b 82 943 71 935 78 938 l 193 1082 b 203 1107 200 1090 203 1099 b 165 1142 203 1125 189 1140 l 90 1144 b 67 1129 81 1144 71 1139 b 0 967 1 976 0 971 z "},"̂":{"ha":0,"x_min":0,"x_max":0,"o":"m 243 975 l 343 975 b 376 1007 363 975 376 990 b 311 1169 376 1011 375 1017 b 288 1185 307 1179 297 1185 l 188 1185 b 186 1185 188 1185 188 1185 l 86 1185 b 63 1169 76 1185 67 1179 b -3 1007 -1 1017 -3 1011 b 31 975 -3 990 11 975 l 131 975 b 154 990 140 975 150 981 b 188 1068 168 1022 178 1049 l 219 990 b 243 975 224 981 233 975 z "},"̌":{"ha":0,"x_min":0,"x_max":0,"o":"m 193 975 l 294 975 b 318 990 304 975 314 981 b 383 1153 382 1143 383 1149 b 350 1185 383 1169 369 1185 l 250 1185 b 226 1169 240 1185 231 1179 b 194 1092 213 1138 203 1111 l 161 1169 b 138 1185 157 1179 147 1185 l 38 1185 b 4 1153 18 1185 4 1169 b 69 990 4 1149 6 1143 b 93 975 74 981 83 975 l 193 975 b 193 975 193 975 193 975 z "},"̆":{"ha":0,"x_min":0,"x_max":0,"o":"m 186 935 b 371 1083 276 935 371 997 b 342 1117 371 1101 360 1117 l 297 1117 b 272 1096 285 1117 276 1108 b 186 1033 260 1060 226 1033 b 99 1096 144 1033 111 1060 b 74 1117 94 1108 86 1117 l 29 1117 b 0 1083 11 1117 0 1104 b 186 935 0 997 94 935 z "},"̊":{"ha":0,"x_min":0,"x_max":0,"o":"m 139 933 b 276 1072 214 933 276 996 b 139 1210 276 1147 214 1210 b 0 1072 63 1210 0 1147 b 139 933 0 996 63 933 z m 101 1072 b 139 1108 101 1092 118 1108 b 175 1072 158 1108 175 1092 b 139 1035 175 1051 158 1035 b 101 1072 118 1035 101 1051 z "},"̃":{"ha":0,"x_min":0,"x_max":0,"o":"m 294 925 b 428 1092 354 925 428 997 l 344 1092 b 294 1008 344 1049 318 1008 b 143 1106 258 1008 224 1106 b 0 935 76 1106 0 1035 l 83 935 b 143 1022 83 969 104 1022 b 294 925 185 1022 217 925 z "},"̄":{"ha":0,"x_min":0,"x_max":0,"o":"m 57 935 l 338 935 b 394 992 369 935 394 960 l 394 1044 b 338 1101 394 1076 369 1101 l 57 1101 b 0 1044 25 1101 0 1076 l 0 992 b 57 935 0 960 25 935 z "},"̒":{"ha":0,"x_min":0,"x_max":0,"o":"m 28 935 l 113 935 b 140 963 128 935 140 947 l 140 1046 b 113 1074 140 1061 128 1074 l 99 1074 b 83 1079 93 1074 88 1075 b 74 1126 75 1089 74 1101 b 83 1178 74 1142 83 1164 b 71 1192 83 1186 79 1192 b 0 1074 42 1192 0 1115 l 0 963 b 28 935 0 947 13 935 z "},"̦":{"ha":0,"x_min":0,"x_max":0,"o":"m 43 -333 l 90 -333 b 131 -299 111 -333 124 -318 b 186 -117 164 -210 186 -146 b 142 -74 186 -93 168 -74 l 71 -74 b 28 -117 47 -74 32 -93 b 0 -296 0 -292 0 -294 b 43 -333 0 -317 21 -333 z "},"̧":{"ha":0,"x_min":0,"x_max":0,"o":"m 186 -332 b 350 -222 269 -332 350 -306 b 319 -136 350 -183 336 -154 b 214 -83 289 -104 253 -89 b 242 -19 240 -32 242 -25 b 193 25 242 6 221 25 l 149 25 b 113 -1 132 25 118 14 b 67 -117 82 -92 67 -111 b 107 -161 67 -140 82 -158 l 144 -165 b 197 -197 176 -169 197 -185 b 156 -217 197 -212 186 -217 b 72 -193 135 -217 103 -207 b 49 -187 64 -189 56 -187 b 0 -244 15 -187 0 -228 b 13 -271 0 -254 4 -264 b 186 -332 53 -307 94 -332 z "},"̨":{"ha":0,"x_min":0,"x_max":0,"o":"m 182 -278 b 228 -235 211 -278 228 -260 l 228 -206 b 185 -164 228 -182 210 -165 b 125 -126 140 -161 125 -150 b 164 -44 125 -97 142 -71 b 176 -15 172 -35 176 -25 b 133 14 176 1 160 14 b 113 7 126 14 119 11 b 0 -149 44 -46 0 -100 b 182 -278 0 -237 85 -278 z "}}}
